<svg width="21" height="20" viewBox="0 0 21 20" fill="none" xmlns="http://www.w3.org/2000/svg">
<path d="M10.8939 2.08085C10.6424 1.97305 10.3576 1.97305 10.1061 2.08085L3.10608 5.08085C2.7384 5.23843 2.5 5.59997 2.5 6C2.5 6.40003 2.7384 6.76157 3.10608 6.91915L5.75037 8.05241C5.84653 7.94347 5.96706 7.85473 6.10608 7.79515L10.1061 6.08087C10.6137 5.86331 11.2016 6.09846 11.4191 6.60609C11.6367 7.11372 11.4015 7.7016 10.8939 7.91916L8.16668 9.08797L10.1061 9.91915C10.3576 10.027 10.6424 10.027 10.8939 9.91915L17.8939 6.91915C18.2616 6.76157 18.5 6.40003 18.5 6C18.5 5.59997 18.2616 5.23843 17.8939 5.08085L10.8939 2.08085Z" fill="#424242"/>
<path d="M3.81004 9.39673L5.5 10.121V14.2226C5.15723 14.1449 4.80705 14.0867 4.45071 14.0494C3.98094 14.0001 3.6097 13.6289 3.56044 13.1591C3.52046 12.7778 3.5 12.391 3.5 11.9998C3.5 11.1033 3.60741 10.2315 3.81004 9.39673Z" fill="#424242"/>
<path d="M9.79996 16.5725C9.12708 15.9129 8.35167 15.3584 7.5 14.9351V10.9781L9.31824 11.7574C10.0729 12.0808 10.9271 12.0808 11.6818 11.7574L17.19 9.39673C17.3926 10.2315 17.5 11.1033 17.5 11.9998C17.5 12.391 17.4795 12.7778 17.4396 13.1591C17.3903 13.6289 17.0191 14.0001 16.5493 14.0494C14.4765 14.2667 12.6124 15.188 11.2 16.5725C10.8112 16.9537 10.1888 16.9537 9.79996 16.5725Z" fill="#424242"/>
<path d="M6.5 18C7.05228 18 7.5 17.5523 7.5 17V14.9351C6.87136 14.6227 6.20117 14.3817 5.5 14.2226V17C5.5 17.5523 5.94772 18 6.5 18Z" fill="#424242"/>
</svg>
