<svg width="21" height="20" viewBox="0 0 21 20" fill="none" xmlns="http://www.w3.org/2000/svg">
<path d="M5.5 4C5.5 3.44772 5.05228 3 4.5 3C3.94772 3 3.5 3.44772 3.5 4V11.2676C2.9022 11.6134 2.5 12.2597 2.5 13C2.5 13.7403 2.9022 14.3866 3.5 14.7324V16C3.5 16.5523 3.94772 17 4.5 17C5.05228 17 5.5 16.5523 5.5 16V14.7324C6.0978 14.3866 6.5 13.7403 6.5 13C6.5 12.2597 6.0978 11.6134 5.5 11.2676V4Z" fill="#424242"/>
<path d="M11.5 4C11.5 3.44772 11.0523 3 10.5 3C9.94772 3 9.5 3.44772 9.5 4V5.26756C8.9022 5.61337 8.5 6.25972 8.5 7C8.5 7.74028 8.9022 8.38663 9.5 8.73244V16C9.5 16.5523 9.94772 17 10.5 17C11.0523 17 11.5 16.5523 11.5 16V8.73244C12.0978 8.38663 12.5 7.74028 12.5 7C12.5 6.25972 12.0978 5.61337 11.5 5.26756V4Z" fill="#424242"/>
<path d="M16.5 3C17.0523 3 17.5 3.44772 17.5 4V11.2676C18.0978 11.6134 18.5 12.2597 18.5 13C18.5 13.7403 18.0978 14.3866 17.5 14.7324V16C17.5 16.5523 17.0523 17 16.5 17C15.9477 17 15.5 16.5523 15.5 16V14.7324C14.9022 14.3866 14.5 13.7403 14.5 13C14.5 12.2597 14.9022 11.6134 15.5 11.2676V4C15.5 3.44772 15.9477 3 16.5 3Z" fill="#424242"/>
</svg>
