<svg width="21" height="20" viewBox="0 0 21 20" fill="none" xmlns="http://www.w3.org/2000/svg">
<path d="M4.5 3C3.39543 3 2.5 3.89543 2.5 5C2.5 6.10457 3.39543 7 4.5 7H16.5C17.6046 7 18.5 6.10457 18.5 5C18.5 3.89543 17.6046 3 16.5 3H4.5Z" fill="#424242"/>
<path fill-rule="evenodd" clip-rule="evenodd" d="M3.5 8H17.5V15C17.5 16.1046 16.6046 17 15.5 17H5.5C4.39543 17 3.5 16.1046 3.5 15V8ZM8.5 11C8.5 10.4477 8.94772 10 9.5 10H11.5C12.0523 10 12.5 10.4477 12.5 11C12.5 11.5523 12.0523 12 11.5 12H9.5C8.94772 12 8.5 11.5523 8.5 11Z" fill="#424242"/>
</svg>
