<svg width="21" height="20" viewBox="0 0 21 20" fill="none" xmlns="http://www.w3.org/2000/svg">
<path fill-rule="evenodd" clip-rule="evenodd" d="M10.5 18C14.9183 18 18.5 14.4183 18.5 10C18.5 5.58172 14.9183 2 10.5 2C6.08172 2 2.5 5.58172 2.5 10C2.5 14.4183 6.08172 18 10.5 18ZM11.2071 7.70711C11.5976 7.31658 11.5976 6.68342 11.2071 6.29289C10.8166 5.90237 10.1834 5.90237 9.79289 6.29289L6.79289 9.29289C6.40237 9.68342 6.40237 10.3166 6.79289 10.7071L9.79289 13.7071C10.1834 14.0976 10.8166 14.0976 11.2071 13.7071C11.5976 13.3166 11.5976 12.6834 11.2071 12.2929L9.91421 11H13.5C14.0523 11 14.5 10.5523 14.5 10C14.5 9.44772 14.0523 9 13.5 9L9.91421 9L11.2071 7.70711Z" fill="#424242"/>
</svg>
