<svg width="21" height="20" viewBox="0 0 21 20" fill="none" xmlns="http://www.w3.org/2000/svg">
<path fill-rule="evenodd" clip-rule="evenodd" d="M10.5 18C14.9183 18 18.5 14.4183 18.5 10C18.5 5.58172 14.9183 2 10.5 2C6.08172 2 2.5 5.58172 2.5 10C2.5 14.4183 6.08172 18 10.5 18ZM11.5 7C11.5 6.44772 11.0523 6 10.5 6C9.94771 6 9.5 6.44772 9.5 7L9.5 10.5858L8.20711 9.29289C7.81658 8.90237 7.18342 8.90237 6.79289 9.29289C6.40237 9.68342 6.40237 10.3166 6.79289 10.7071L9.79289 13.7071C10.1834 14.0976 10.8166 14.0976 11.2071 13.7071L14.2071 10.7071C14.5976 10.3166 14.5976 9.68342 14.2071 9.29289C13.8166 8.90237 13.1834 8.90237 12.7929 9.29289L11.5 10.5858V7Z" fill="#424242"/>
</svg>
