<svg width="21" height="20" viewBox="0 0 21 20" fill="none" xmlns="http://www.w3.org/2000/svg">
<path fill-rule="evenodd" clip-rule="evenodd" d="M10.5 18C14.9183 18 18.5 14.4183 18.5 10C18.5 5.58172 14.9183 2 10.5 2C6.08172 2 2.5 5.58172 2.5 10C2.5 14.4183 6.08172 18 10.5 18ZM14.2071 9.29289L11.2071 6.29289C10.8166 5.90237 10.1834 5.90237 9.79289 6.29289C9.40237 6.68342 9.40237 7.31658 9.79289 7.70711L11.0858 9L7.5 9C6.94772 9 6.5 9.44771 6.5 10C6.5 10.5523 6.94772 11 7.5 11H11.0858L9.79289 12.2929C9.40237 12.6834 9.40237 13.3166 9.79289 13.7071C10.1834 14.0976 10.8166 14.0976 11.2071 13.7071L14.2071 10.7071C14.5976 10.3166 14.5976 9.68342 14.2071 9.29289Z" fill="#424242"/>
</svg>
