<svg width="21" height="20" viewBox="0 0 21 20" fill="none" xmlns="http://www.w3.org/2000/svg">
<path fill-rule="evenodd" clip-rule="evenodd" d="M10.5 18C14.9183 18 18.5 14.4183 18.5 10C18.5 5.58172 14.9183 2 10.5 2C6.08172 2 2.5 5.58172 2.5 10C2.5 14.4183 6.08172 18 10.5 18ZM14.2071 9.29289L11.2071 6.29289C10.8166 5.90237 10.1834 5.90237 9.79289 6.29289L6.79289 9.29289C6.40237 9.68342 6.40237 10.3166 6.79289 10.7071C7.18342 11.0976 7.81658 11.0976 8.20711 10.7071L9.5 9.41421L9.5 13C9.5 13.5523 9.94771 14 10.5 14C11.0523 14 11.5 13.5523 11.5 13V9.41421L12.7929 10.7071C13.1834 11.0976 13.8166 11.0976 14.2071 10.7071C14.5976 10.3166 14.5976 9.68342 14.2071 9.29289Z" fill="#424242"/>
</svg>
