<svg width="21" height="20" viewBox="0 0 21 20" fill="none" xmlns="http://www.w3.org/2000/svg">
<path fill-rule="evenodd" clip-rule="evenodd" d="M3.5 4C3.5 3.44772 3.94772 3 4.5 3H8.5C9.05228 3 9.5 3.44772 9.5 4C9.5 4.55228 9.05228 5 8.5 5H6.91421L9.20711 7.29289C9.59763 7.68342 9.59763 8.31658 9.20711 8.70711C8.81658 9.09763 8.18342 9.09763 7.79289 8.70711L5.5 6.41421V8C5.5 8.55228 5.05228 9 4.5 9C3.94772 9 3.5 8.55228 3.5 8V4ZM12.5 5C11.9477 5 11.5 4.55228 11.5 4C11.5 3.44772 11.9477 3 12.5 3H16.5C17.0523 3 17.5 3.44772 17.5 4V8C17.5 8.55228 17.0523 9 16.5 9C15.9477 9 15.5 8.55228 15.5 8V6.41421L13.2071 8.70711C12.8166 9.09763 12.1834 9.09763 11.7929 8.70711C11.4024 8.31658 11.4024 7.68342 11.7929 7.29289L14.0858 5H12.5ZM3.5 12C3.5 11.4477 3.94772 11 4.5 11C5.05228 11 5.5 11.4477 5.5 12V13.5858L7.79289 11.2929C8.18342 10.9024 8.81658 10.9024 9.20711 11.2929C9.59763 11.6834 9.59763 12.3166 9.20711 12.7071L6.91421 15H8.5C9.05228 15 9.5 15.4477 9.5 16C9.5 16.5523 9.05228 17 8.5 17H4.5C3.94772 17 3.5 16.5523 3.5 16V12ZM16.5 11C17.0523 11 17.5 11.4477 17.5 12V16C17.5 16.5523 17.0523 17 16.5 17H12.5C11.9477 17 11.5 16.5523 11.5 16C11.5 15.4477 11.9477 15 12.5 15H14.0858L11.7929 12.7071C11.4024 12.3166 11.4024 11.6834 11.7929 11.2929C12.1834 10.9024 12.8166 10.9024 13.2071 11.2929L15.5 13.5858V12C15.5 11.4477 15.9477 11 16.5 11Z" fill="#424242"/>
</svg>
