<svg width="21" height="20" viewBox="0 0 21 20" fill="none" xmlns="http://www.w3.org/2000/svg">
<path fill-rule="evenodd" clip-rule="evenodd" d="M14.7426 5.75736C12.3995 3.41421 8.60051 3.41421 6.25736 5.75736C3.91421 8.10051 3.91421 11.8995 6.25736 14.2426C8.29395 16.2792 11.4325 16.5464 13.757 15.0408C14.2205 14.7405 14.8397 14.8729 15.1399 15.3364C15.4402 15.8 15.3078 16.4191 14.8443 16.7194C11.7445 18.7273 7.5606 18.3743 4.84315 15.6569C1.71895 12.5327 1.71895 7.46734 4.84315 4.34315C7.96734 1.21895 13.0327 1.21895 16.1569 4.34315C17.7187 5.90503 18.5 7.9542 18.5 10C18.5 11.6569 17.1569 13 15.5 13C14.8247 13 14.2015 12.7769 13.7001 12.4003C12.9703 13.3717 11.8085 14 10.5 14C8.29086 14 6.5 12.2091 6.5 10C6.5 7.79086 8.29086 6 10.5 6C12.7091 6 14.5 7.79086 14.5 10C14.5 10.5523 14.9477 11 15.5 11C16.0523 11 16.5 10.5523 16.5 10C16.5 8.46294 15.9144 6.9291 14.7426 5.75736ZM12.5 10C12.5 8.89543 11.6046 8 10.5 8C9.39543 8 8.5 8.89543 8.5 10C8.5 11.1046 9.39543 12 10.5 12C11.6046 12 12.5 11.1046 12.5 10Z" fill="#424242"/>
</svg>
