<svg width="21" height="20" viewBox="0 0 21 20" fill="none" xmlns="http://www.w3.org/2000/svg">
<path fill-rule="evenodd" clip-rule="evenodd" d="M7.20711 4.87868C7.76972 4.31607 8.53278 4 9.32843 4H15.5C17.1569 4 18.5 5.34315 18.5 7V13C18.5 14.6569 17.1569 16 15.5 16H9.32843C8.53278 16 7.76972 15.6839 7.20711 15.1213L2.79289 10.7071C2.60536 10.5196 2.5 10.2652 2.5 10C2.5 9.73478 2.60536 9.48043 2.79289 9.29289L7.20711 4.87868ZM11.2071 7.29289C10.8166 6.90237 10.1834 6.90237 9.79289 7.29289C9.40237 7.68342 9.40237 8.31658 9.79289 8.70711L11.0858 10L9.79289 11.2929C9.40237 11.6834 9.40237 12.3166 9.79289 12.7071C10.1834 13.0976 10.8166 13.0976 11.2071 12.7071L12.5 11.4142L13.7929 12.7071C14.1834 13.0976 14.8166 13.0976 15.2071 12.7071C15.5976 12.3166 15.5976 11.6834 15.2071 11.2929L13.9142 10L15.2071 8.70711C15.5976 8.31658 15.5976 7.68342 15.2071 7.29289C14.8166 6.90237 14.1834 6.90237 13.7929 7.29289L12.5 8.58579L11.2071 7.29289Z" fill="#424242"/>
</svg>
