<svg width="21" height="20" viewBox="0 0 21 20" fill="none" xmlns="http://www.w3.org/2000/svg">
<path fill-rule="evenodd" clip-rule="evenodd" d="M18.5 10C18.5 14.4183 14.9183 18 10.5 18C6.08172 18 2.5 14.4183 2.5 10C2.5 5.58172 6.08172 2 10.5 2C14.9183 2 18.5 5.58172 18.5 10ZM13.9766 14.8907C12.9958 15.5892 11.7959 16 10.5 16C7.18629 16 4.5 13.3137 4.5 10C4.5 8.70414 4.91081 7.50423 5.6093 6.52339L13.9766 14.8907ZM15.3908 13.4765L7.02354 5.1092C8.00434 4.41077 9.2042 4 10.5 4C13.8137 4 16.5 6.68629 16.5 10C16.5 11.2958 16.0892 12.4957 15.3908 13.4765Z" fill="#424242"/>
</svg>
