<svg width="21" height="20" viewBox="0 0 21 20" fill="none" xmlns="http://www.w3.org/2000/svg">
<path fill-rule="evenodd" clip-rule="evenodd" d="M7.49985 2C7.09539 2 6.73075 2.24364 6.57597 2.61732C6.42119 2.99099 6.50675 3.42111 6.79275 3.70711L7.49985 4.41421V8.17157C7.49985 8.43679 7.3945 8.69114 7.20696 8.87868L3.20696 12.8787C1.31707 14.7686 2.65556 18 5.32828 18H15.6714C18.3441 18 19.6826 14.7686 17.7927 12.8787L13.7927 8.87868C13.6052 8.69114 13.4999 8.43679 13.4999 8.17157V4.41421L14.207 3.70711C14.493 3.42111 14.5785 2.99099 14.4237 2.61732C14.269 2.24364 13.9043 2 13.4999 2H7.49985ZM9.49985 8.17157V4H11.4999V8.17157C11.4999 8.96722 11.8159 9.73028 12.3785 10.2929L13.4061 11.3204C12.6892 11.1537 11.9377 11.1874 11.2349 11.4217L10.7647 11.5784C9.94364 11.8521 9.05596 11.8521 8.23489 11.5784L7.67244 11.3909C7.63436 11.3782 7.59607 11.3667 7.55762 11.3564L8.62117 10.2929C9.18378 9.73028 9.49985 8.96722 9.49985 8.17157Z" fill="#424242"/>
</svg>
