<svg width="21" height="20" viewBox="0 0 21 20" fill="none" xmlns="http://www.w3.org/2000/svg">
<path d="M10.5 2C7.18632 2 4.50003 4.68629 4.50003 8V11.5858L3.79292 12.2929C3.50692 12.5789 3.42137 13.009 3.57615 13.3827C3.73093 13.7564 4.09557 14 4.50003 14H16.5C16.9045 14 17.2691 13.7564 17.4239 13.3827C17.5787 13.009 17.4931 12.5789 17.2071 12.2929L16.5 11.5858V8C16.5 4.68629 13.8137 2 10.5 2Z" fill="#424242"/>
<path d="M10.5 18C8.84315 18 7.5 16.6569 7.5 15H13.5C13.5 16.6569 12.1569 18 10.5 18Z" fill="#424242"/>
</svg>
