<svg width="21" height="20" viewBox="0 0 21 20" fill="none" xmlns="http://www.w3.org/2000/svg">
<path d="M9.5 4.80423C8.4428 4.28906 7.25516 4 6 4C4.74484 4 3.5572 4.28906 2.5 4.80423V14.8042C3.5572 14.2891 4.74484 14 6 14C7.6686 14 9.21789 14.5108 10.5 15.3847C11.7821 14.5108 13.3314 14 15 14C16.2552 14 17.4428 14.2891 18.5 14.8042V4.80423C17.4428 4.28906 16.2552 4 15 4C13.7448 4 12.5572 4.28906 11.5 4.80423V12C11.5 12.5523 11.0523 13 10.5 13C9.94772 13 9.5 12.5523 9.5 12V4.80423Z" fill="#424242"/>
</svg>
