<svg width="21" height="20" viewBox="0 0 21 20" fill="none" xmlns="http://www.w3.org/2000/svg">
<path fill-rule="evenodd" clip-rule="evenodd" d="M6.5 6V5C6.5 3.34315 7.84315 2 9.5 2H11.5C13.1569 2 14.5 3.34315 14.5 5V6H16.5C17.6046 6 18.5 6.89543 18.5 8V11.5708C16.0096 12.4947 13.3149 12.9999 10.5 12.9999C7.68514 12.9999 4.99037 12.4947 2.5 11.5707V8C2.5 6.89543 3.39543 6 4.5 6H6.5ZM8.5 5C8.5 4.44772 8.94772 4 9.5 4H11.5C12.0523 4 12.5 4.44772 12.5 5V6H8.5V5ZM9.5 10C9.5 9.44772 9.94772 9 10.5 9H10.51C11.0623 9 11.51 9.44772 11.51 10C11.51 10.5523 11.0623 11 10.51 11H10.5C9.94772 11 9.5 10.5523 9.5 10Z" fill="#424242"/>
<path d="M2.5 13.6923V16C2.5 17.1046 3.39543 18 4.5 18H16.5C17.6046 18 18.5 17.1046 18.5 16V13.6923C15.9872 14.5404 13.2964 14.9999 10.5 14.9999C7.70363 14.9999 5.01279 14.5404 2.5 13.6923Z" fill="#424242"/>
</svg>
