<svg width="21" height="20" viewBox="0 0 21 20" fill="none" xmlns="http://www.w3.org/2000/svg">
<path d="M6.5 3C6.5 2.44772 6.94772 2 7.5 2H7.51C8.06228 2 8.51 2.44772 8.51 3C8.51 3.55228 8.06228 4 7.51 4H7.5C6.94772 4 6.5 3.55228 6.5 3Z" fill="#424242"/>
<path d="M8.5 6C8.5 5.44772 8.05228 5 7.5 5C6.94772 5 6.5 5.44772 6.5 6V7C5.39543 7 4.5 7.89543 4.5 9V10C3.39543 10 2.5 10.8954 2.5 12V12.6833C2.86868 12.7866 3.22499 12.9482 3.5547 13.168C4.12713 13.5496 4.87287 13.5496 5.4453 13.168C6.68953 12.3385 8.31047 12.3385 9.5547 13.168C10.1271 13.5496 10.8729 13.5496 11.4453 13.168C12.6895 12.3385 14.3105 12.3385 15.5547 13.168C16.1271 13.5496 16.8729 13.5496 17.4453 13.168C17.775 12.9482 18.1313 12.7866 18.5 12.6833V12C18.5 10.8954 17.6046 10 16.5 10V9C16.5 7.89543 15.6046 7 14.5 7V6C14.5 5.44772 14.0523 5 13.5 5C12.9477 5 12.5 5.44772 12.5 6V7H11.5V6C11.5 5.44772 11.0523 5 10.5 5C9.94772 5 9.5 5.44772 9.5 6V7H8.5V6Z" fill="#424242"/>
<path d="M18.5 14.8679C17.2633 15.6614 15.6714 15.6495 14.4453 14.8321C13.8729 14.4505 13.1271 14.4505 12.5547 14.8321C11.3105 15.6616 9.68953 15.6616 8.4453 14.8321C7.87287 14.4505 7.12713 14.4505 6.5547 14.8321C5.32863 15.6495 3.73675 15.6614 2.5 14.8679V17C2.5 17.5523 2.94772 18 3.5 18H17.5C18.0523 18 18.5 17.5523 18.5 17V14.8679Z" fill="#424242"/>
<path d="M9.5 3C9.5 2.44772 9.94772 2 10.5 2H10.51C11.0623 2 11.51 2.44772 11.51 3C11.51 3.55228 11.0623 4 10.51 4H10.5C9.94772 4 9.5 3.55228 9.5 3Z" fill="#424242"/>
<path d="M12.5 3C12.5 2.44772 12.9477 2 13.5 2H13.51C14.0623 2 14.51 2.44772 14.51 3C14.51 3.55228 14.0623 4 13.51 4H13.5C12.9477 4 12.5 3.55228 12.5 3Z" fill="#424242"/>
</svg>
