<svg width="21" height="20" viewBox="0 0 21 20" fill="none" xmlns="http://www.w3.org/2000/svg">
<path fill-rule="evenodd" clip-rule="evenodd" d="M6.5 2C5.94772 2 5.5 2.44772 5.5 3V4H4.5C3.39543 4 2.5 4.89543 2.5 6V16C2.5 17.1046 3.39543 18 4.5 18H16.5C17.6046 18 18.5 17.1046 18.5 16V6C18.5 4.89543 17.6046 4 16.5 4H15.5V3C15.5 2.44772 15.0523 2 14.5 2C13.9477 2 13.5 2.44772 13.5 3V4H7.5V3C7.5 2.44772 7.05228 2 6.5 2ZM6.5 7C5.94772 7 5.5 7.44772 5.5 8C5.5 8.55228 5.94772 9 6.5 9H14.5C15.0523 9 15.5 8.55228 15.5 8C15.5 7.44772 15.0523 7 14.5 7H6.5Z" fill="#424242"/>
</svg>
