<svg width="21" height="20" viewBox="0 0 21 20" fill="none" xmlns="http://www.w3.org/2000/svg">
<path fill-rule="evenodd" clip-rule="evenodd" d="M4.5 5C3.39543 5 2.5 5.89543 2.5 7V15C2.5 16.1046 3.39543 17 4.5 17H16.5C17.6046 17 18.5 16.1046 18.5 15V7C18.5 5.89543 17.6046 5 16.5 5H14.9142C14.649 5 14.3946 4.89464 14.2071 4.70711L13.0858 3.58579C12.7107 3.21071 12.202 3 11.6716 3H9.32843C8.79799 3 8.28929 3.21071 7.91421 3.58579L6.79289 4.70711C6.60536 4.89464 6.351 5 6.08579 5H4.5ZM10.5 14C12.1569 14 13.5 12.6569 13.5 11C13.5 9.34315 12.1569 8 10.5 8C8.84315 8 7.5 9.34315 7.5 11C7.5 12.6569 8.84315 14 10.5 14Z" fill="#424242"/>
</svg>
