<svg width="21" height="20" viewBox="0 0 21 20" fill="none" xmlns="http://www.w3.org/2000/svg">
<path d="M4.5 4C3.39543 4 2.5 4.89543 2.5 6V10C2.5 11.1046 3.39543 12 4.5 12L4.5 6H14.5C14.5 4.89543 13.6046 4 12.5 4H4.5Z" fill="#424242"/>
<path fill-rule="evenodd" clip-rule="evenodd" d="M6.5 10C6.5 8.89543 7.39543 8 8.5 8H16.5C17.6046 8 18.5 8.89543 18.5 10V14C18.5 15.1046 17.6046 16 16.5 16H8.5C7.39543 16 6.5 15.1046 6.5 14V10ZM12.5 14C13.6046 14 14.5 13.1046 14.5 12C14.5 10.8954 13.6046 10 12.5 10C11.3954 10 10.5 10.8954 10.5 12C10.5 13.1046 11.3954 14 12.5 14Z" fill="#424242"/>
</svg>
