<svg width="21" height="20" viewBox="0 0 21 20" fill="none" xmlns="http://www.w3.org/2000/svg">
<path fill-rule="evenodd" clip-rule="evenodd" d="M5.5 3C4.39543 3 3.5 3.89543 3.5 5V15C3.5 16.1046 4.39543 17 5.5 17H15.5C16.6046 17 17.5 16.1046 17.5 15V5C17.5 3.89543 16.6046 3 15.5 3H5.5ZM14.5 7C14.5 6.44772 14.0523 6 13.5 6C12.9477 6 12.5 6.44772 12.5 7V13C12.5 13.5523 12.9477 14 13.5 14C14.0523 14 14.5 13.5523 14.5 13V7ZM11.5 9C11.5 8.44772 11.0523 8 10.5 8C9.94772 8 9.5 8.44772 9.5 9V13C9.5 13.5523 9.94772 14 10.5 14C11.0523 14 11.5 13.5523 11.5 13V9ZM8.5 12C8.5 11.4477 8.05228 11 7.5 11C6.94772 11 6.5 11.4477 6.5 12V13C6.5 13.5523 6.94772 14 7.5 14C8.05228 14 8.5 13.5523 8.5 13V12Z" fill="#424242"/>
</svg>
