<svg width="21" height="20" viewBox="0 0 21 20" fill="none" xmlns="http://www.w3.org/2000/svg">
<path d="M2.5 11C2.5 10.4477 2.94772 10 3.5 10H5.5C6.05228 10 6.5 10.4477 6.5 11V16C6.5 16.5523 6.05228 17 5.5 17H3.5C2.94772 17 2.5 16.5523 2.5 16V11Z" fill="#424242"/>
<path d="M8.5 7C8.5 6.44772 8.94772 6 9.5 6H11.5C12.0523 6 12.5 6.44772 12.5 7V16C12.5 16.5523 12.0523 17 11.5 17H9.5C8.94772 17 8.5 16.5523 8.5 16V7Z" fill="#424242"/>
<path d="M14.5 4C14.5 3.44772 14.9477 3 15.5 3H17.5C18.0523 3 18.5 3.44772 18.5 4V16C18.5 16.5523 18.0523 17 17.5 17H15.5C14.9477 17 14.5 16.5523 14.5 16V4Z" fill="#424242"/>
</svg>
