<svg width="21" height="20" viewBox="0 0 21 20" fill="none" xmlns="http://www.w3.org/2000/svg">
<path d="M2.5 5C2.5 3.89543 3.39543 3 4.5 3H11.5C12.6046 3 13.5 3.89543 13.5 5V9C13.5 10.1046 12.6046 11 11.5 11H9.5L6.5 14V11H4.5C3.39543 11 2.5 10.1046 2.5 9V5Z" fill="#424242"/>
<path d="M15.5 7V9C15.5 11.2091 13.7091 13 11.5 13H10.3284L8.56173 14.7667C8.84154 14.9156 9.16091 15 9.5 15H11.5L14.5 18V15H16.5C17.6046 15 18.5 14.1046 18.5 13V9C18.5 7.89543 17.6046 7 16.5 7H15.5Z" fill="#424242"/>
</svg>
