<svg width="21" height="20" viewBox="0 0 21 20" fill="none" xmlns="http://www.w3.org/2000/svg">
<path fill-rule="evenodd" clip-rule="evenodd" d="M16.2071 4.29289C16.5976 4.68342 16.5976 5.31658 16.2071 5.70711L11.2071 10.7071C10.8166 11.0976 10.1834 11.0976 9.79289 10.7071L4.79289 5.70711C4.40237 5.31658 4.40237 4.68342 4.79289 4.29289C5.18342 3.90237 5.81658 3.90237 6.20711 4.29289L10.5 8.58579L14.7929 4.29289C15.1834 3.90237 15.8166 3.90237 16.2071 4.29289ZM16.2071 10.2929C16.5976 10.6834 16.5976 11.3166 16.2071 11.7071L11.2071 16.7071C10.8166 17.0976 10.1834 17.0976 9.79289 16.7071L4.79289 11.7071C4.40237 11.3166 4.40237 10.6834 4.79289 10.2929C5.18342 9.90237 5.81658 9.90237 6.20711 10.2929L10.5 14.5858L14.7929 10.2929C15.1834 9.90237 15.8166 9.90237 16.2071 10.2929Z" fill="#424242"/>
</svg>
