<svg width="21" height="20" viewBox="0 0 21 20" fill="none" xmlns="http://www.w3.org/2000/svg">
<path fill-rule="evenodd" clip-rule="evenodd" d="M10.7929 15.7071C10.4024 15.3166 10.4024 14.6834 10.7929 14.2929L15.0858 10L10.7929 5.70711C10.4024 5.31658 10.4024 4.68342 10.7929 4.29289C11.1834 3.90237 11.8166 3.90237 12.2071 4.29289L17.2071 9.29289C17.5976 9.68342 17.5976 10.3166 17.2071 10.7071L12.2071 15.7071C11.8166 16.0976 11.1834 16.0976 10.7929 15.7071Z" fill="#424242"/>
<path fill-rule="evenodd" clip-rule="evenodd" d="M4.79289 15.7071C4.40237 15.3166 4.40237 14.6834 4.79289 14.2929L9.08579 10L4.79289 5.70711C4.40237 5.31658 4.40237 4.68342 4.79289 4.29289C5.18342 3.90237 5.81658 3.90237 6.20711 4.29289L11.2071 9.29289C11.5976 9.68342 11.5976 10.3166 11.2071 10.7071L6.20711 15.7071C5.81658 16.0976 5.18342 16.0976 4.79289 15.7071Z" fill="#424242"/>
</svg>
