<svg width="21" height="20" viewBox="0 0 21 20" fill="none" xmlns="http://www.w3.org/2000/svg">
<path fill-rule="evenodd" clip-rule="evenodd" d="M4.79289 15.7071C4.40237 15.3166 4.40237 14.6834 4.79289 14.2929L9.79289 9.29289C10.1834 8.90237 10.8166 8.90237 11.2071 9.29289L16.2071 14.2929C16.5976 14.6834 16.5976 15.3166 16.2071 15.7071C15.8166 16.0976 15.1834 16.0976 14.7929 15.7071L10.5 11.4142L6.20711 15.7071C5.81658 16.0976 5.18342 16.0976 4.79289 15.7071ZM4.79289 9.70711C4.40237 9.31658 4.40237 8.68342 4.79289 8.29289L9.79289 3.29289C10.1834 2.90237 10.8166 2.90237 11.2071 3.29289L16.2071 8.29289C16.5976 8.68342 16.5976 9.31658 16.2071 9.70711C15.8166 10.0976 15.1834 10.0976 14.7929 9.70711L10.5 5.41421L6.20711 9.70711C5.81658 10.0976 5.18342 10.0976 4.79289 9.70711Z" fill="#424242"/>
</svg>
