<svg width="21" height="20" viewBox="0 0 21 20" fill="none" xmlns="http://www.w3.org/2000/svg">
<path fill-rule="evenodd" clip-rule="evenodd" d="M16.2071 15.7071C15.8166 16.0976 15.1834 16.0976 14.7929 15.7071L9.79289 10.7071C9.40237 10.3166 9.40237 9.68342 9.79289 9.29289L14.7929 4.29289C15.1834 3.90237 15.8166 3.90237 16.2071 4.29289C16.5976 4.68342 16.5976 5.31658 16.2071 5.70711L11.9142 10L16.2071 14.2929C16.5976 14.6834 16.5976 15.3166 16.2071 15.7071ZM10.2071 15.7071C9.81658 16.0976 9.18342 16.0976 8.79289 15.7071L3.79289 10.7071C3.40237 10.3166 3.40237 9.68342 3.79289 9.29289L8.79289 4.29289C9.18342 3.90237 9.81658 3.90237 10.2071 4.29289C10.5976 4.68342 10.5976 5.31658 10.2071 5.70711L5.91421 10L10.2071 14.2929C10.5976 14.6834 10.5976 15.3166 10.2071 15.7071Z" fill="#424242"/>
</svg>
