<svg width="21" height="20" viewBox="0 0 21 20" fill="none" xmlns="http://www.w3.org/2000/svg">
<path d="M13.5 7H7.5V13H13.5V7Z" fill="#424242"/>
<path fill-rule="evenodd" clip-rule="evenodd" d="M7.5 2C7.5 1.44772 7.94772 1 8.5 1C9.05228 1 9.5 1.44772 9.5 2V3H11.5V2C11.5 1.44772 11.9477 1 12.5 1C13.0523 1 13.5 1.44772 13.5 2V3H15.5C16.6046 3 17.5 3.89543 17.5 5V7H18.5C19.0523 7 19.5 7.44772 19.5 8C19.5 8.55228 19.0523 9 18.5 9H17.5V11H18.5C19.0523 11 19.5 11.4477 19.5 12C19.5 12.5523 19.0523 13 18.5 13H17.5V15C17.5 16.1046 16.6046 17 15.5 17H13.5V18C13.5 18.5523 13.0523 19 12.5 19C11.9477 19 11.5 18.5523 11.5 18V17H9.5V18C9.5 18.5523 9.05228 19 8.5 19C7.94772 19 7.5 18.5523 7.5 18V17H5.5C4.39543 17 3.5 16.1046 3.5 15V13H2.5C1.94772 13 1.5 12.5523 1.5 12C1.5 11.4477 1.94772 11 2.5 11H3.5V9H2.5C1.94772 9 1.5 8.55228 1.5 8C1.5 7.44772 1.94772 7 2.5 7H3.5V5C3.5 3.89543 4.39543 3 5.5 3H7.5V2ZM5.5 5H15.5V15H5.5V5Z" fill="#424242"/>
</svg>
