<svg width="21" height="20" viewBox="0 0 21 20" fill="none" xmlns="http://www.w3.org/2000/svg">
<path d="M7.375 6.25V5.09C7.375 4.14417 8.07917 3.34167 9.02167 3.26333C9.3325 3.23833 9.645 3.21583 9.9575 3.19667M13.625 15H15.5C15.9973 15 16.4742 14.8025 16.8258 14.4508C17.1775 14.0992 17.375 13.6223 17.375 13.125V5.09C17.375 4.14417 16.6708 3.34167 15.7283 3.26333C15.4167 3.23749 15.1047 3.21526 14.7925 3.19667M14.7925 3.19667C14.6741 2.81392 14.4355 2.47911 14.1131 2.24128C13.7907 2.00345 13.4006 1.87509 13 1.875H11.75C11.3494 1.87509 10.9593 2.00345 10.6369 2.24128C10.3145 2.47911 10.0767 2.81392 9.95833 3.19667C9.90417 3.37167 9.875 3.5575 9.875 3.75V4.375H14.875V3.75C14.875 3.5575 14.8467 3.37167 14.7925 3.19667ZM13.625 15.625V14.0625C13.625 13.3166 13.3287 12.6012 12.8012 12.0738C12.2738 11.5463 11.5584 11.25 10.8125 11.25H9.5625C9.31386 11.25 9.0754 11.1512 8.89959 10.9754C8.72377 10.7996 8.625 10.5611 8.625 10.3125V9.0625C8.625 8.31658 8.32868 7.60121 7.80124 7.07376C7.27379 6.54632 6.55842 6.25 5.8125 6.25H4.875M6.125 6.25H4.5625C4.045 6.25 3.625 6.67 3.625 7.1875V17.1875C3.625 17.705 4.045 18.125 4.5625 18.125H12.6875C13.205 18.125 13.625 17.705 13.625 17.1875V13.75C13.625 11.7609 12.8348 9.85322 11.4283 8.4467C10.0218 7.04018 8.11412 6.25 6.125 6.25Z" stroke="black" stroke-width="1.5" stroke-linecap="round" stroke-linejoin="round"/>
</svg>
