<svg width="21" height="20" viewBox="0 0 21 20" fill="none" xmlns="http://www.w3.org/2000/svg">
<path d="M9.5 2C8.94772 2 8.5 2.44772 8.5 3C8.5 3.55228 8.94772 4 9.5 4H11.5C12.0523 4 12.5 3.55228 12.5 3C12.5 2.44772 12.0523 2 11.5 2H9.5Z" fill="#424242"/>
<path fill-rule="evenodd" clip-rule="evenodd" d="M4.5 5C4.5 3.89543 5.39543 3 6.5 3C6.5 4.65685 7.84315 6 9.5 6H11.5C13.1569 6 14.5 4.65685 14.5 3C15.6046 3 16.5 3.89543 16.5 5V16C16.5 17.1046 15.6046 18 14.5 18H6.5C5.39543 18 4.5 17.1046 4.5 16V5ZM14.2071 10.7071C14.5976 10.3166 14.5976 9.68342 14.2071 9.29289C13.8166 8.90237 13.1834 8.90237 12.7929 9.29289L9.5 12.5858L8.20711 11.2929C7.81658 10.9024 7.18342 10.9024 6.79289 11.2929C6.40237 11.6834 6.40237 12.3166 6.79289 12.7071L8.79289 14.7071C9.18342 15.0976 9.81658 15.0976 10.2071 14.7071L14.2071 10.7071Z" fill="#424242"/>
</svg>
