<svg width="21" height="20" viewBox="0 0 21 20" fill="none" xmlns="http://www.w3.org/2000/svg">
<path d="M9.5 2C8.94772 2 8.5 2.44772 8.5 3C8.5 3.55228 8.94772 4 9.5 4H11.5C12.0523 4 12.5 3.55228 12.5 3C12.5 2.44772 12.0523 2 11.5 2H9.5Z" fill="#424242"/>
<path fill-rule="evenodd" clip-rule="evenodd" d="M4.5 5C4.5 3.89543 5.39543 3 6.5 3C6.5 4.65685 7.84315 6 9.5 6H11.5C13.1569 6 14.5 4.65685 14.5 3C15.6046 3 16.5 3.89543 16.5 5V16C16.5 17.1046 15.6046 18 14.5 18H6.5C5.39543 18 4.5 17.1046 4.5 16V5ZM7.5 9C6.94772 9 6.5 9.44772 6.5 10C6.5 10.5523 6.94772 11 7.5 11H7.51C8.06228 11 8.51 10.5523 8.51 10C8.51 9.44772 8.06228 9 7.51 9H7.5ZM10.5 9C9.94772 9 9.5 9.44772 9.5 10C9.5 10.5523 9.94772 11 10.5 11H13.5C14.0523 11 14.5 10.5523 14.5 10C14.5 9.44772 14.0523 9 13.5 9H10.5ZM7.5 13C6.94772 13 6.5 13.4477 6.5 14C6.5 14.5523 6.94772 15 7.5 15H7.51C8.06228 15 8.51 14.5523 8.51 14C8.51 13.4477 8.06228 13 7.51 13H7.5ZM10.5 13C9.94772 13 9.5 13.4477 9.5 14C9.5 14.5523 9.94772 15 10.5 15H13.5C14.0523 15 14.5 14.5523 14.5 14C14.5 13.4477 14.0523 13 13.5 13H10.5Z" fill="#424242"/>
</svg>
