<svg width="21" height="20" viewBox="0 0 21 20" fill="none" xmlns="http://www.w3.org/2000/svg">
<path fill-rule="evenodd" clip-rule="evenodd" d="M10.5 18C14.9183 18 18.5 14.4183 18.5 10C18.5 5.58172 14.9183 2 10.5 2C6.08172 2 2.5 5.58172 2.5 10C2.5 14.4183 6.08172 18 10.5 18ZM11.5 6C11.5 5.44772 11.0523 5 10.5 5C9.94772 5 9.5 5.44772 9.5 6V10C9.5 10.2652 9.60536 10.5196 9.79289 10.7071L12.6213 13.5355C13.0118 13.9261 13.645 13.9261 14.0355 13.5355C14.4261 13.145 14.4261 12.5118 14.0355 12.1213L11.5 9.58579V6Z" fill="#424242"/>
</svg>
