<svg width="21" height="20" viewBox="0 0 21 20" fill="none" xmlns="http://www.w3.org/2000/svg">
<path fill-rule="evenodd" clip-rule="evenodd" d="M15.5 14H15.32C15.302 13.951 15.291 13.9 15.271 13.853C14.939 13.049 14.5 12.448 13.5 12.171V11C13.5 9.346 12.154 8 10.5 8C8.846 8 7.5 9.346 7.5 11V12.169C6.5 12.446 6.061 13.047 5.729 13.848C5.719 13.871 5.714 13.897 5.706 13.92C3.877 13.552 2.5 11.937 2.5 10V9C2.5 6.791 4.291 5 6.5 5C6.88 5 7.241 5.07 7.589 5.169C7.972 3.359 9.576 2 11.5 2C13.709 2 15.5 3.791 15.5 6C15.5 6.353 15.439 6.689 15.354 7.015C15.403 7.012 15.45 7 15.5 7C17.157 7 18.5 8.344 18.5 10V11C18.5 12.657 17.157 14 15.5 14ZM8.5 14H9.502V11C9.502 10.447 9.949 10 10.502 10C11.056 10 11.503 10.447 11.503 11V14H12.501C12.905 14 13.271 14.244 13.425 14.617C13.464 14.711 13.487 14.806 13.497 14.904C13.524 15.197 13.423 15.492 13.208 15.707L11.207 17.707C11.012 17.902 10.756 18 10.5 18C10.244 18 9.988 17.902 9.793 17.707L7.793 15.707C7.58 15.492 7.479 15.197 7.506 14.904C7.514 14.806 7.537 14.711 7.576 14.617C7.731 14.244 8.096 14 8.5 14Z" fill="#424242"/>
</svg>
