<svg width="21" height="20" viewBox="0 0 21 20" fill="none" xmlns="http://www.w3.org/2000/svg">
<path fill-rule="evenodd" clip-rule="evenodd" d="M11.209 10.293C11.014 10.098 10.758 10 10.502 10C10.246 10 9.99 10.098 9.795 10.293L7.795 12.293C7.58 12.508 7.479 12.803 7.506 13.096C7.516 13.194 7.539 13.289 7.578 13.383C7.732 13.756 8.098 14 8.502 14H9.5V17C9.5 17.553 9.947 18 10.5 18C11.053 18 11.5 17.553 11.5 17V14H12.502C12.906 14 13.272 13.756 13.426 13.383C13.465 13.289 13.488 13.194 13.496 13.096C13.523 12.803 13.422 12.508 13.209 12.293L11.209 10.293ZM15.5 7C15.45 7 15.403 7.012 15.354 7.015C15.439 6.689 15.5 6.353 15.5 6C15.5 3.791 13.709 2 11.5 2C9.576 2 7.972 3.359 7.589 5.169C7.24 5.07 6.881 5 6.5 5C4.291 5 2.5 6.791 2.5 9V10C2.5 11.917 3.85 13.515 5.649 13.905C5.587 13.707 5.537 13.504 5.515 13.295C5.431 12.389 5.746 11.513 6.38 10.879L8.38 8.879C8.947 8.312 9.701 8 10.502 8C11.303 8 12.057 8.312 12.623 8.879L14.623 10.879C15.258 11.52 15.57 12.393 15.487 13.281C15.468 13.513 15.407 13.759 15.321 14H15.5C17.157 14 18.5 12.657 18.5 11V10C18.5 8.344 17.157 7 15.5 7Z" fill="#424242"/>
</svg>
