<svg width="21" height="20" viewBox="0 0 21 20" fill="none" xmlns="http://www.w3.org/2000/svg">
<path fill-rule="evenodd" clip-rule="evenodd" d="M15.5 16H6.5C4.291 16 2.5 14.209 2.5 12V11C2.5 8.791 4.291 7 6.5 7C6.88 7 7.241 7.07 7.589 7.169C7.972 5.359 9.576 4 11.5 4C13.709 4 15.5 5.791 15.5 8C15.5 8.353 15.439 8.689 15.354 9.015C15.403 9.012 15.45 9 15.5 9C17.157 9 18.5 10.344 18.5 12V13C18.5 14.657 17.157 16 15.5 16ZM11 9C9.619 9 8.5 10.119 8.5 11.5C8.5 12.881 9.619 14 11 14C12.381 14 13.5 12.881 13.5 11.5C13.5 10.119 12.381 9 11 9ZM11.5 13H10.5V12H9.5V11H10.5V10H11.5V11H12.5V12H11.5V13Z" fill="#424242"/>
</svg>
