<svg width="21" height="20" viewBox="0 0 21 20" fill="none" xmlns="http://www.w3.org/2000/svg">
<path fill-rule="evenodd" clip-rule="evenodd" d="M2.5 9.5C2.5 11.433 4.067 13 6 13H9.5V15.5858L8.20711 14.2929C7.81658 13.9024 7.18342 13.9024 6.79289 14.2929C6.40237 14.6834 6.40237 15.3166 6.79289 15.7071L9.79289 18.7071C10.1834 19.0976 10.8166 19.0976 11.2071 18.7071L14.2071 15.7071C14.5976 15.3166 14.5976 14.6834 14.2071 14.2929C13.8166 13.9024 13.1834 13.9024 12.7929 14.2929L11.5 15.5858V13H14C16.4853 13 18.5 10.9853 18.5 8.5C18.5 6.01472 16.4853 4 14 4C13.7912 4 13.5857 4.01422 13.3845 4.04175C12.9551 2.29538 11.3788 1 9.5 1C7.29086 1 5.5 2.79086 5.5 5C5.5 5.35223 5.54553 5.69382 5.63102 6.01922C3.87146 6.20358 2.5 7.69163 2.5 9.5ZM11.5 13H9.5V8C9.5 7.44772 9.94772 7 10.5 7C11.0523 7 11.5 7.44772 11.5 8V13Z" fill="#424242"/>
</svg>
