<svg width="21" height="20" viewBox="0 0 21 20" fill="none" xmlns="http://www.w3.org/2000/svg">
<path fill-rule="evenodd" clip-rule="evenodd" d="M15.5 9C15.45 9 15.403 9.012 15.354 9.015C15.439 8.689 15.5 8.353 15.5 8C15.5 5.791 13.709 4 11.5 4C9.576 4 7.972 5.359 7.589 7.169C7.24 7.07 6.881 7 6.5 7C4.291 7 2.5 8.791 2.5 11V12C2.5 14.209 4.291 16 6.5 16H15.5C17.157 16 18.5 14.657 18.5 13V12C18.5 10.344 17.157 9 15.5 9ZM11 14C9.619 14 8.5 12.881 8.5 11.5C8.5 10.119 9.619 9 11 9C12.381 9 13.5 10.119 13.5 11.5C13.5 12.881 12.381 14 11 14ZM9.5 12H12.5V11H9.5V12Z" fill="#424242"/>
</svg>
