<svg width="21" height="20" viewBox="0 0 21 20" fill="none" xmlns="http://www.w3.org/2000/svg">
<path fill-rule="evenodd" clip-rule="evenodd" d="M12.8162 3.05131C13.3402 3.22596 13.6233 3.79228 13.4487 4.31622L9.44868 16.3162C9.27404 16.8402 8.70772 17.1233 8.18377 16.9487C7.65983 16.774 7.37667 16.2077 7.55132 15.6838L11.5513 3.68377C11.726 3.15983 12.2923 2.87667 12.8162 3.05131ZM6.20711 6.29289C6.59763 6.68341 6.59763 7.31658 6.20711 7.7071L3.91421 10L6.20711 12.2929C6.59763 12.6834 6.59763 13.3166 6.20711 13.7071C5.81658 14.0976 5.18342 14.0976 4.79289 13.7071L1.79289 10.7071C1.40237 10.3166 1.40237 9.68341 1.79289 9.29289L4.79289 6.29289C5.18342 5.90237 5.81658 5.90237 6.20711 6.29289ZM14.7929 6.29289C15.1834 5.90237 15.8166 5.90237 16.2071 6.29289L19.2071 9.29289C19.5976 9.68341 19.5976 10.3166 19.2071 10.7071L16.2071 13.7071C15.8166 14.0976 15.1834 14.0976 14.7929 13.7071C14.4024 13.3166 14.4024 12.6834 14.7929 12.2929L17.0858 10L14.7929 7.7071C14.4024 7.31658 14.4024 6.68341 14.7929 6.29289Z" fill="#424242"/>
</svg>
