<svg width="21" height="20" viewBox="0 0 21 20" fill="none" xmlns="http://www.w3.org/2000/svg">
<path fill-rule="evenodd" clip-rule="evenodd" d="M11.9892 3.17094C11.6102 1.60969 9.3898 1.60969 9.01078 3.17094C8.76594 4.17949 7.61045 4.65811 6.72416 4.11809C5.35218 3.28212 3.78212 4.85218 4.61809 6.22416C5.15811 7.11045 4.67949 8.26593 3.67094 8.51078C2.10969 8.8898 2.10969 11.1102 3.67094 11.4892C4.67949 11.7341 5.15811 12.8896 4.61809 13.7758C3.78212 15.1478 5.35218 16.7179 6.72417 15.8819C7.61045 15.3419 8.76594 15.8205 9.01078 16.8291C9.3898 18.3903 11.6102 18.3903 11.9892 16.8291C12.2341 15.8205 13.3896 15.3419 14.2758 15.8819C15.6478 16.7179 17.2179 15.1478 16.3819 13.7758C15.8419 12.8896 16.3205 11.7341 17.3291 11.4892C18.8903 11.1102 18.8903 8.8898 17.3291 8.51078C16.3205 8.26593 15.8419 7.11045 16.3819 6.22416C17.2179 4.85218 15.6478 3.28212 14.2758 4.11809C13.3896 4.65811 12.2341 4.17949 11.9892 3.17094ZM10.5 13C12.1569 13 13.5 11.6569 13.5 10C13.5 8.34315 12.1569 7 10.5 7C8.84315 7 7.5 8.34315 7.5 10C7.5 11.6569 8.84315 13 10.5 13Z" fill="#424242"/>
</svg>
