<svg width="21" height="20" viewBox="0 0 21 20" fill="none" xmlns="http://www.w3.org/2000/svg">
<path d="M7.5 3C6.94772 3 6.5 3.44772 6.5 4C6.5 4.55228 6.94772 5 7.5 5H13.5C14.0523 5 14.5 4.55228 14.5 4C14.5 3.44772 14.0523 3 13.5 3H7.5Z" fill="#424242"/>
<path d="M4.5 7C4.5 6.44772 4.94772 6 5.5 6H15.5C16.0523 6 16.5 6.44772 16.5 7C16.5 7.55228 16.0523 8 15.5 8H5.5C4.94772 8 4.5 7.55228 4.5 7Z" fill="#424242"/>
<path d="M2.5 11C2.5 9.89543 3.39543 9 4.5 9H16.5C17.6046 9 18.5 9.89543 18.5 11V15C18.5 16.1046 17.6046 17 16.5 17H4.5C3.39543 17 2.5 16.1046 2.5 15V11Z" fill="#424242"/>
</svg>
