<svg width="21" height="20" viewBox="0 0 21 20" fill="none" xmlns="http://www.w3.org/2000/svg">
<path fill-rule="evenodd" clip-rule="evenodd" d="M4.5 2C3.39543 2 2.5 2.89543 2.5 4V15C2.5 16.6569 3.84315 18 5.5 18C7.15685 18 8.5 16.6569 8.5 15V4C8.5 2.89543 7.60457 2 6.5 2H4.5ZM5.5 16C6.05228 16 6.5 15.5523 6.5 15C6.5 14.4477 6.05228 14 5.5 14C4.94772 14 4.5 14.4477 4.5 15C4.5 15.5523 4.94772 16 5.5 16Z" fill="#424242"/>
<path d="M10.5 14.2426L15.3995 9.34308C16.1805 8.56203 16.1805 7.2957 15.3995 6.51465L13.9853 5.10044C13.2042 4.31939 11.9379 4.31939 11.1568 5.10044L10.5 5.75728V14.2426Z" fill="#424242"/>
<path d="M16.5 18H9.57104L15.571 12H16.5C17.6046 12 18.5 12.8954 18.5 14V16C18.5 17.1046 17.6046 18 16.5 18Z" fill="#424242"/>
</svg>
