<svg width="21" height="20" viewBox="0 0 21 20" fill="none" xmlns="http://www.w3.org/2000/svg">
<path d="M4.5 4C3.39543 4 2.5 4.89543 2.5 6V7H18.5V6C18.5 4.89543 17.6046 4 16.5 4H4.5Z" fill="#424242"/>
<path fill-rule="evenodd" clip-rule="evenodd" d="M18.5 9H2.5V14C2.5 15.1046 3.39543 16 4.5 16H16.5C17.6046 16 18.5 15.1046 18.5 14V9ZM4.5 13C4.5 12.4477 4.94772 12 5.5 12H6.5C7.05228 12 7.5 12.4477 7.5 13C7.5 13.5523 7.05228 14 6.5 14H5.5C4.94772 14 4.5 13.5523 4.5 13ZM9.5 12C8.94772 12 8.5 12.4477 8.5 13C8.5 13.5523 8.94772 14 9.5 14H10.5C11.0523 14 11.5 13.5523 11.5 13C11.5 12.4477 11.0523 12 10.5 12H9.5Z" fill="#424242"/>
</svg>
