<svg width="21" height="20" viewBox="0 0 21 20" fill="none" xmlns="http://www.w3.org/2000/svg">
<path d="M11.5 17C11.5 17.3466 11.6795 17.6684 11.9743 17.8507C12.2691 18.0329 12.6372 18.0494 12.9472 17.8944L16.9472 15.8944C17.286 15.725 17.5 15.3788 17.5 15V9.23607C17.5 8.88949 17.3205 8.56762 17.0257 8.38542C16.7309 8.20321 16.3628 8.18665 16.0528 8.34164L12.0528 10.3416C11.714 10.511 11.5 10.8573 11.5 11.2361V17Z" fill="#424242"/>
<path d="M15.7111 6.27639C16.0499 6.107 16.2639 5.76074 16.2639 5.38197C16.2639 5.00319 16.0499 4.65693 15.7111 4.48754L10.9472 2.10557C10.6657 1.96481 10.3343 1.96481 10.0528 2.10557L5.28885 4.48754C4.95007 4.65693 4.73607 5.00319 4.73607 5.38197C4.73607 5.76074 4.95007 6.107 5.28885 6.27639L10.0528 8.65836C10.3343 8.79912 10.6657 8.79912 10.9472 8.65836L15.7111 6.27639Z" fill="#424242"/>
<path d="M4.94721 8.34164C4.63723 8.18665 4.26909 8.20321 3.97427 8.38542C3.67945 8.56762 3.5 8.88949 3.5 9.23607V15C3.5 15.3788 3.714 15.725 4.05279 15.8944L8.05279 17.8944C8.36277 18.0494 8.73091 18.0329 9.02573 17.8507C9.32055 17.6684 9.5 17.3466 9.5 17V11.2361C9.5 10.8573 9.286 10.511 8.94721 10.3416L4.94721 8.34164Z" fill="#424242"/>
</svg>
