<svg width="21" height="20" viewBox="0 0 21 20" fill="none" xmlns="http://www.w3.org/2000/svg">
<path d="M10.0039 1.13176C10.3113 0.956081 10.6887 0.956081 10.9961 1.13176L12.7461 2.13176C13.2257 2.40577 13.3923 3.01662 13.1182 3.49614C12.8442 3.97566 12.2334 4.14225 11.7539 3.86824L10.5 3.15175L9.24614 3.86824C8.76662 4.14225 8.15577 3.97566 7.88176 3.49614C7.60775 3.01662 7.77434 2.40577 8.25386 2.13176L10.0039 1.13176Z" fill="#424242"/>
<path d="M6.11824 4.50386C6.39225 4.98338 6.22566 5.59423 5.74614 5.86824L5.51556 6L5.74614 6.13176C6.22566 6.40577 6.39225 7.01662 6.11824 7.49614C5.84423 7.97566 5.23338 8.14225 4.75386 7.86824L4.5 7.72318V8C4.5 8.55228 4.05228 9 3.5 9C2.94772 9 2.5 8.55228 2.5 8V6C2.5 5.75001 2.59173 5.52145 2.74336 5.34614C2.77802 5.30603 2.81598 5.26854 2.85699 5.23411C2.90754 5.19163 2.96236 5.15405 3.02071 5.12213L4.75386 4.13176C5.23338 3.85775 5.84423 4.02434 6.11824 4.50386Z" fill="#424242"/>
<path d="M14.8818 4.50386C15.1558 4.02434 15.7666 3.85775 16.2461 4.13176L17.9793 5.12212C18.0376 5.15405 18.0925 5.19162 18.143 5.23411C18.3613 5.41755 18.5 5.69258 18.5 6V8C18.5 8.55228 18.0523 9 17.5 9C16.9477 9 16.5 8.55228 16.5 8V7.72318L16.2461 7.86824C15.7666 8.14225 15.1558 7.97566 14.8818 7.49614C14.6077 7.01662 14.7743 6.40577 15.2539 6.13176L15.4844 6L15.2539 5.86824C14.7743 5.59423 14.6077 4.98338 14.8818 4.50386Z" fill="#424242"/>
<path d="M7.88176 8.50386C8.15577 8.02434 8.76662 7.85775 9.24614 8.13176L10.5 8.84825L11.7539 8.13176C12.2334 7.85775 12.8442 8.02434 13.1182 8.50386C13.3923 8.98338 13.2257 9.59423 12.7461 9.86824L11.5 10.5803V12C11.5 12.5523 11.0523 13 10.5 13C9.94772 13 9.5 12.5523 9.5 12V10.5803L8.25386 9.86824C7.77434 9.59423 7.60775 8.98338 7.88176 8.50386Z" fill="#424242"/>
<path d="M3.5 11C4.05228 11 4.5 11.4477 4.5 12V13.4197L5.74614 14.1318C6.22566 14.4058 6.39225 15.0166 6.11824 15.4961C5.84423 15.9757 5.23338 16.1423 4.75386 15.8682L3.00386 14.8682C2.69229 14.6902 2.5 14.3589 2.5 14V12C2.5 11.4477 2.94772 11 3.5 11Z" fill="#424242"/>
<path d="M17.5 11C18.0523 11 18.5 11.4477 18.5 12V14C18.5 14.3589 18.3077 14.6902 17.9961 14.8682L16.2461 15.8682C15.7666 16.1423 15.1558 15.9757 14.8818 15.4961C14.6077 15.0166 14.7743 14.4058 15.2539 14.1318L16.5 13.4197V12C16.5 11.4477 16.9477 11 17.5 11Z" fill="#424242"/>
<path d="M7.88176 16.5039C8.15577 16.0243 8.76662 15.8577 9.24614 16.1318L9.5 16.2768V16C9.5 15.4477 9.94772 15 10.5 15C11.0523 15 11.5 15.4477 11.5 16V16.2768L11.7539 16.1318C12.2334 15.8577 12.8442 16.0243 13.1182 16.5039C13.3923 16.9834 13.2257 17.5942 12.7461 17.8682L11.0113 18.8596C10.8617 18.9488 10.6868 19 10.5 19C10.3132 19 10.1383 18.9488 9.98866 18.8596L8.25386 17.8682C7.77434 17.5942 7.60775 16.9834 7.88176 16.5039Z" fill="#424242"/>
</svg>
