<svg width="21" height="20" viewBox="0 0 21 20" fill="none" xmlns="http://www.w3.org/2000/svg">
<path fill-rule="evenodd" clip-rule="evenodd" d="M10.5 18C14.9183 18 18.5 14.4183 18.5 10C18.5 5.58172 14.9183 2 10.5 2C6.08172 2 2.5 5.58172 2.5 10C2.5 14.4183 6.08172 18 10.5 18ZM7.5 4C6.94772 4 6.5 4.44772 6.5 5C6.5 5.55228 6.94772 6 7.5 6C8.05228 6 8.5 6.44772 8.5 7V8H7.5C6.94772 8 6.5 8.44772 6.5 9C6.5 9.55228 6.94772 10 7.5 10H8.5V13C8.5 14.6569 9.84315 16 11.5 16C13.1569 16 14.5 14.6569 14.5 13V12C14.5 11.4477 14.0523 11 13.5 11C12.9477 11 12.5 11.4477 12.5 12V13C12.5 13.5523 12.0523 14 11.5 14C10.9477 14 10.5 13.5523 10.5 13V10H13.5C14.0523 10 14.5 9.55228 14.5 9C14.5 8.44772 14.0523 8 13.5 8H10.5V7C10.5 5.34315 9.15685 4 7.5 4Z" fill="#424242"/>
</svg>
