<svg width="21" height="20" viewBox="0 0 21 20" fill="none" xmlns="http://www.w3.org/2000/svg">
<path fill-rule="evenodd" clip-rule="evenodd" d="M10.5 18C14.9183 18 18.5 14.4183 18.5 10C18.5 5.58172 14.9183 2 10.5 2C6.08172 2 2.5 5.58172 2.5 10C2.5 14.4183 6.08172 18 10.5 18ZM8.35752 5.48541C8.07337 5.01183 7.45911 4.85827 6.98553 5.14241C6.51195 5.42656 6.35839 6.04082 6.64254 6.5144L8.13384 8.99991H7.50003C6.94774 8.99991 6.50003 9.44762 6.50003 9.99991C6.50003 10.5522 6.94774 10.9999 7.50003 10.9999H9.33384L9.50003 11.2769V11.9999H7.50003C6.94774 11.9999 6.50003 12.4476 6.50003 12.9999C6.50003 13.5522 6.94774 13.9999 7.50003 13.9999H9.50003V14.9999C9.50003 15.5522 9.94774 15.9999 10.5 15.9999C11.0523 15.9999 11.5 15.5522 11.5 14.9999V13.9999H13.5C14.0523 13.9999 14.5 13.5522 14.5 12.9999C14.5 12.4476 14.0523 11.9999 13.5 11.9999H11.5V11.2769L11.6662 10.9999H13.5C14.0523 10.9999 14.5 10.5522 14.5 9.99991C14.5 9.44762 14.0523 8.99991 13.5 8.99991H12.8662L14.3575 6.5144C14.6417 6.04082 14.4881 5.42656 14.0145 5.14241C13.5409 4.85827 12.9267 5.01183 12.6425 5.48541L10.5338 8.99991H10.4662L8.35752 5.48541Z" fill="#424242"/>
</svg>
