<svg width="21" height="20" viewBox="0 0 21 20" fill="none" xmlns="http://www.w3.org/2000/svg">
<path fill-rule="evenodd" clip-rule="evenodd" d="M10.5 18C14.9183 18 18.5 14.4183 18.5 10C18.5 5.58172 14.9183 2 10.5 2C6.08172 2 2.5 5.58172 2.5 10C2.5 14.4183 6.08172 18 10.5 18ZM7.50003 5C6.94774 5 6.50003 5.44772 6.50003 6C6.50003 6.55228 6.94774 7 7.50003 7H8.50003C9.24031 7 9.88666 7.4022 10.2325 8H7.50003C6.94774 8 6.50003 8.44772 6.50003 9C6.50003 9.55228 6.94774 10 7.50003 10H10.2325C9.88665 10.5978 9.24031 11 8.50003 11H7.50003C7.09557 11 6.73093 11.2436 6.57615 11.6173C6.42137 11.991 6.50692 12.4211 6.79292 12.7071L9.79292 15.7071C10.1834 16.0976 10.8166 16.0976 11.2071 15.7071C11.5977 15.3166 11.5977 14.6834 11.2071 14.2929L9.72363 12.8094C11.0222 12.3926 12.0316 11.3302 12.374 10H13.5C14.0523 10 14.5 9.55228 14.5 9C14.5 8.44772 14.0523 8 13.5 8H12.374C12.2827 7.64523 12.1439 7.30951 11.9649 7H13.5C14.0523 7 14.5 6.55228 14.5 6C14.5 5.44772 14.0523 5 13.5 5H7.50003Z" fill="#424242"/>
</svg>
