<svg width="21" height="20" viewBox="0 0 21 20" fill="none" xmlns="http://www.w3.org/2000/svg">
<path d="M8.93338 7.41784C9.08818 7.31464 9.27939 7.2224 9.5 7.15101L9.50001 8.84899C9.27939 8.7776 9.08818 8.68536 8.93338 8.58216C8.56927 8.33942 8.5 8.1139 8.5 8C8.5 7.8861 8.56927 7.66058 8.93338 7.41784Z" fill="#424242"/>
<path d="M11.5 12.849L11.5 11.151C11.7206 11.2224 11.9118 11.3146 12.0666 11.4178C12.4308 11.6606 12.5 11.8861 12.5 12C12.5 12.1139 12.4308 12.3394 12.0666 12.5822C11.9118 12.6854 11.7206 12.7776 11.5 12.849Z" fill="#424242"/>
<path fill-rule="evenodd" clip-rule="evenodd" d="M10.5 18C14.9183 18 18.5 14.4183 18.5 10C18.5 5.58172 14.9183 2 10.5 2C6.08172 2 2.5 5.58172 2.5 10C2.5 14.4183 6.08172 18 10.5 18ZM11.5 5C11.5 4.44772 11.0523 4 10.5 4C9.94772 4 9.5 4.44772 9.5 5V5.09199C8.8784 5.20873 8.30348 5.43407 7.82398 5.75374C7.1023 6.23485 6.5 7.00933 6.5 8C6.5 8.99067 7.1023 9.76515 7.82398 10.2463C8.30348 10.5659 8.87841 10.7913 9.50001 10.908L9.50002 12.8492C9.10902 12.7223 8.81917 12.5319 8.65667 12.3446C8.29471 11.9275 7.66313 11.8827 7.24599 12.2447C6.82885 12.6067 6.78411 13.2382 7.14607 13.6554C7.70855 14.3036 8.55956 14.7308 9.5 14.9076L9.5 15C9.49999 15.5523 9.94769 16 10.5 16C11.0523 16 11.5 15.5523 11.5 15L11.5 14.908C12.1216 14.7913 12.6965 14.5659 13.176 14.2463C13.8977 13.7651 14.5 12.9907 14.5 12C14.5 11.0093 13.8977 10.2348 13.176 9.75373C12.6965 9.43407 12.1216 9.20873 11.5 9.09199L11.5 7.15075C11.891 7.27771 12.1808 7.4681 12.3434 7.65538C12.7053 8.07252 13.3369 8.11726 13.754 7.7553C14.1712 7.39335 14.2159 6.76176 13.854 6.34462C13.2915 5.69637 12.4405 5.26915 11.5 5.09236V5Z" fill="#424242"/>
</svg>
