<svg width="21" height="20" viewBox="0 0 21 20" fill="none" xmlns="http://www.w3.org/2000/svg">
<path fill-rule="evenodd" clip-rule="evenodd" d="M10.5 18C14.9183 18 18.5 14.4183 18.5 10C18.5 5.58172 14.9183 2 10.5 2C6.08172 2 2.5 5.58172 2.5 10C2.5 14.4183 6.08172 18 10.5 18ZM9.23617 6.97896C9.70793 6.1927 10.1962 6 10.5 6C10.8038 6 11.2921 6.1927 11.7638 6.97896C12.048 7.45254 12.6622 7.60611 13.1358 7.32196C13.6094 7.03781 13.763 6.42355 13.4788 5.94997C12.779 4.78361 11.7317 4 10.5 4C9.26829 4 8.221 4.78361 7.52119 5.94997C7.23632 6.42475 7.01422 6.94939 6.85097 7.5H6.5C5.94772 7.5 5.5 7.94772 5.5 8.5C5.5 9.05228 5.94772 9.5 6.5 9.5H6.51337C6.50443 9.66702 6.5 9.83388 6.5 10C6.5 10.1661 6.50443 10.333 6.51337 10.5H6.5C5.94772 10.5 5.5 10.9477 5.5 11.5C5.5 12.0523 5.94772 12.5 6.5 12.5H6.85097C7.01422 13.0506 7.23632 13.5753 7.52119 14.05C8.221 15.2164 9.26829 16 10.5 16C11.7317 16 12.779 15.2164 13.4788 14.05C13.763 13.5764 13.6094 12.9622 13.1358 12.678C12.6622 12.3939 12.048 12.5475 11.7638 13.021C11.2921 13.8073 10.8038 14 10.5 14C10.1962 14 9.70793 13.8073 9.23617 13.021C9.13927 12.8595 9.0511 12.6851 8.97216 12.5H10.5C11.0523 12.5 11.5 12.0523 11.5 11.5C11.5 10.9477 11.0523 10.5 10.5 10.5H8.51695C8.50571 10.335 8.5 10.1681 8.5 10C8.5 9.83191 8.50571 9.66498 8.51695 9.5H10.5C11.0523 9.5 11.5 9.05228 11.5 8.5C11.5 7.94772 11.0523 7.5 10.5 7.5H8.97216C9.0511 7.31488 9.13927 7.14047 9.23617 6.97896Z" fill="#424242"/>
</svg>
