<svg width="21" height="20" viewBox="0 0 21 20" fill="none" xmlns="http://www.w3.org/2000/svg">
<path fill-rule="evenodd" clip-rule="evenodd" d="M10.5 18C14.9183 18 18.5 14.4183 18.5 10C18.5 5.58172 14.9183 2 10.5 2C6.08172 2 2.5 5.58172 2.5 10C2.5 14.4183 6.08172 18 10.5 18ZM11.5 4C9.84315 4 8.5 5.34315 8.5 7V9H7.5C6.94772 9 6.5 9.44772 6.5 10C6.5 10.5523 6.94772 11 7.5 11H8.5V12C8.5 12.5523 8.05228 13 7.5 13C6.94772 13 6.5 13.4477 6.5 14C6.5 14.5523 6.94772 15 7.5 15H13.5C14.0523 15 14.5 14.5523 14.5 14C14.5 13.4477 14.0523 13 13.5 13H10.3293C10.4398 12.6872 10.5 12.3506 10.5 12V11H11.5C12.0523 11 12.5 10.5523 12.5 10C12.5 9.44772 12.0523 9 11.5 9H10.5V7C10.5 6.44772 10.9477 6 11.5 6C12.0523 6 12.5 6.44772 12.5 7C12.5 7.55228 12.9477 8 13.5 8C14.0523 8 14.5 7.55228 14.5 7C14.5 5.34315 13.1569 4 11.5 4Z" fill="#424242"/>
</svg>
