<svg width="21" height="20" viewBox="0 0 21 20" fill="none" xmlns="http://www.w3.org/2000/svg">
<path d="M3.5 12V15C3.5 16.6569 6.63401 18 10.5 18C14.366 18 17.5 16.6569 17.5 15V12C17.5 13.6569 14.366 15 10.5 15C6.63401 15 3.5 13.6569 3.5 12Z" fill="#424242"/>
<path d="M3.5 7V10C3.5 11.6569 6.63401 13 10.5 13C14.366 13 17.5 11.6569 17.5 10V7C17.5 8.65685 14.366 10 10.5 10C6.63401 10 3.5 8.65685 3.5 7Z" fill="#424242"/>
<path d="M17.5 5C17.5 6.65685 14.366 8 10.5 8C6.63401 8 3.5 6.65685 3.5 5C3.5 3.34315 6.63401 2 10.5 2C14.366 2 17.5 3.34315 17.5 5Z" fill="#424242"/>
</svg>
