<svg width="21" height="20" viewBox="0 0 21 20" fill="none" xmlns="http://www.w3.org/2000/svg">
<path fill-rule="evenodd" clip-rule="evenodd" d="M3.5 5C3.5 3.89543 4.39543 3 5.5 3H15.5C16.6046 3 17.5 3.89543 17.5 5V13C17.5 14.1046 16.6046 15 15.5 15H13.2808L13.403 15.4887L14.2071 16.2929C14.4931 16.5789 14.5787 17.009 14.4239 17.3827C14.2691 17.7563 13.9045 18 13.5 18H7.50003C7.09557 18 6.73093 17.7563 6.57615 17.3827C6.42137 17.009 6.50692 16.5789 6.79292 16.2929L7.59706 15.4887L7.71925 15H5.5C4.39543 15 3.5 14.1046 3.5 13V5ZM9.2713 12C9.25657 11.9997 9.24189 11.9997 9.22725 12H5.5V5H15.5V12H11.7728C11.7582 11.9997 11.7435 11.9997 11.7288 12H9.2713Z" fill="#424242"/>
</svg>
