<svg width="21" height="20" viewBox="0 0 21 20" fill="none" xmlns="http://www.w3.org/2000/svg">
<path fill-rule="evenodd" clip-rule="evenodd" d="M6.5 2C5.39543 2 4.5 2.89543 4.5 4V16C4.5 17.1046 5.39543 18 6.5 18H14.5C15.6046 18 16.5 17.1046 16.5 16V7.41421C16.5 6.88378 16.2893 6.37507 15.9142 6L12.5 2.58579C12.1249 2.21071 11.6162 2 11.0858 2H6.5ZM8.5 12C8.5 11.4477 8.05228 11 7.5 11C6.94772 11 6.5 11.4477 6.5 12V15C6.5 15.5523 6.94772 16 7.5 16C8.05228 16 8.5 15.5523 8.5 15V12ZM10.5 9C11.0523 9 11.5 9.44772 11.5 10V15C11.5 15.5523 11.0523 16 10.5 16C9.94772 16 9.5 15.5523 9.5 15V10C9.5 9.44772 9.94772 9 10.5 9ZM14.5 8C14.5 7.44772 14.0523 7 13.5 7C12.9477 7 12.5 7.44772 12.5 8V15C12.5 15.5523 12.9477 16 13.5 16C14.0523 16 14.5 15.5523 14.5 15V8Z" fill="#424242"/>
</svg>
