<svg width="21" height="20" viewBox="0 0 21 20" fill="none" xmlns="http://www.w3.org/2000/svg">
<path fill-rule="evenodd" clip-rule="evenodd" d="M4.5 4C4.5 2.89543 5.39543 2 6.5 2H11.0858C11.6162 2 12.1249 2.21071 12.5 2.58579L15.9142 6C16.2893 6.37507 16.5 6.88378 16.5 7.41421V16C16.5 17.1046 15.6046 18 14.5 18H6.5C5.39543 18 4.5 17.1046 4.5 16V4ZM6.5 10C6.5 9.44772 6.94772 9 7.5 9H13.5C14.0523 9 14.5 9.44772 14.5 10C14.5 10.5523 14.0523 11 13.5 11H7.5C6.94772 11 6.5 10.5523 6.5 10ZM7.5 13C6.94772 13 6.5 13.4477 6.5 14C6.5 14.5523 6.94772 15 7.5 15H13.5C14.0523 15 14.5 14.5523 14.5 14C14.5 13.4477 14.0523 13 13.5 13H7.5Z" fill="#424242"/>
</svg>
