<svg width="21" height="20" viewBox="0 0 21 20" fill="none" xmlns="http://www.w3.org/2000/svg">
<path d="M4.5 4C4.5 2.89543 5.39543 2 6.5 2H11.0858C11.6162 2 12.1249 2.21071 12.5 2.58579L15.9142 6C16.2893 6.37507 16.5 6.88378 16.5 7.41421V16C16.5 17.1046 15.6046 18 14.5 18H12.9722C13.9223 16.9385 14.5 15.5367 14.5 14C14.5 10.6863 11.8137 8 8.5 8C6.96329 8 5.56151 8.57771 4.5 9.52779V4Z" fill="#424242"/>
<path fill-rule="evenodd" clip-rule="evenodd" d="M8.5 10C6.29086 10 4.5 11.7909 4.5 14C4.5 14.7414 4.70229 15.4364 5.05397 16.0318L3.79289 17.2929C3.40237 17.6834 3.40237 18.3166 3.79289 18.7071C4.18342 19.0976 4.81658 19.0976 5.20711 18.7071L6.46818 17.446C7.06362 17.7977 7.75862 18 8.5 18C10.7091 18 12.5 16.2091 12.5 14C12.5 11.7909 10.7091 10 8.5 10ZM6.5 14C6.5 12.8954 7.39543 12 8.5 12C9.60457 12 10.5 12.8954 10.5 14C10.5 15.1046 9.60457 16 8.5 16C7.94744 16 7.44881 15.7772 7.08579 15.4142C6.72276 15.0512 6.5 14.5526 6.5 14Z" fill="#424242"/>
</svg>
