<svg width="21" height="20" viewBox="0 0 21 20" fill="none" xmlns="http://www.w3.org/2000/svg">
<path fill-rule="evenodd" clip-rule="evenodd" d="M6.5 2C5.39543 2 4.5 2.89543 4.5 4V16C4.5 17.1046 5.39543 18 6.5 18H14.5C15.6046 18 16.5 17.1046 16.5 16V7.41421C16.5 6.88378 16.2893 6.37507 15.9142 6L12.5 2.58579C12.1249 2.21071 11.6162 2 11.0858 2H6.5ZM11.5 8C11.5 7.44772 11.0523 7 10.5 7C9.94772 7 9.5 7.44772 9.5 8V10H7.5C6.94772 10 6.5 10.4477 6.5 11C6.5 11.5523 6.94772 12 7.5 12H9.5V14C9.5 14.5523 9.94771 15 10.5 15C11.0523 15 11.5 14.5523 11.5 14L11.5 12H13.5C14.0523 12 14.5 11.5523 14.5 11C14.5 10.4477 14.0523 10 13.5 10H11.5V8Z" fill="#424242"/>
</svg>
