<svg width="21" height="20" viewBox="0 0 21 20" fill="none" xmlns="http://www.w3.org/2000/svg">
<path d="M10.5 6C9.39543 6 8.5 5.10457 8.5 4C8.5 2.89543 9.39543 2 10.5 2C11.6046 2 12.5 2.89543 12.5 4C12.5 5.10457 11.6046 6 10.5 6Z" fill="#424242"/>
<path d="M10.5 12C9.39543 12 8.5 11.1046 8.5 10C8.5 8.89543 9.39543 8 10.5 8C11.6046 8 12.5 8.89543 12.5 10C12.5 11.1046 11.6046 12 10.5 12Z" fill="#424242"/>
<path d="M10.5 18C9.39543 18 8.5 17.1046 8.5 16C8.5 14.8954 9.39543 14 10.5 14C11.6046 14 12.5 14.8954 12.5 16C12.5 17.1046 11.6046 18 10.5 18Z" fill="#424242"/>
</svg>
