<svg width="21" height="20" viewBox="0 0 21 20" fill="none" xmlns="http://www.w3.org/2000/svg">
<path d="M6.5 10C6.5 11.1046 5.60457 12 4.5 12C3.39543 12 2.5 11.1046 2.5 10C2.5 8.89543 3.39543 8 4.5 8C5.60457 8 6.5 8.89543 6.5 10Z" fill="#424242"/>
<path d="M12.5 10C12.5 11.1046 11.6046 12 10.5 12C9.39543 12 8.5 11.1046 8.5 10C8.5 8.89543 9.39543 8 10.5 8C11.6046 8 12.5 8.89543 12.5 10Z" fill="#424242"/>
<path d="M16.5 12C17.6046 12 18.5 11.1046 18.5 10C18.5 8.89543 17.6046 8 16.5 8C15.3954 8 14.5 8.89543 14.5 10C14.5 11.1046 15.3954 12 16.5 12Z" fill="#424242"/>
</svg>
