<svg width="21" height="20" viewBox="0 0 21 20" fill="none" xmlns="http://www.w3.org/2000/svg">
<path fill-rule="evenodd" clip-rule="evenodd" d="M10.5 18C14.9183 18 18.5 14.4183 18.5 10C18.5 5.58172 14.9183 2 10.5 2C6.08172 2 2.5 5.58172 2.5 10C2.5 14.4183 6.08172 18 10.5 18ZM7.5 9C8.05228 9 8.5 8.55228 8.5 8C8.5 7.44772 8.05228 7 7.5 7C6.94772 7 6.5 7.44772 6.5 8C6.5 8.55228 6.94772 9 7.5 9ZM14.5 8C14.5 8.55228 14.0523 9 13.5 9C12.9477 9 12.5 8.55228 12.5 8C12.5 7.44772 12.9477 7 13.5 7C14.0523 7 14.5 7.44772 14.5 8ZM14.0355 13.5354C14.4261 13.1449 14.4261 12.5118 14.0355 12.1212C13.645 11.7307 13.0118 11.7307 12.6213 12.1212C11.4497 13.2928 9.55025 13.2928 8.37868 12.1212C7.98816 11.7307 7.35499 11.7307 6.96447 12.1212C6.57394 12.5118 6.57394 13.1449 6.96447 13.5354C8.91709 15.4881 12.0829 15.4881 14.0355 13.5354Z" fill="#424242"/>
</svg>
