<svg width="21" height="20" viewBox="0 0 21 20" fill="none" xmlns="http://www.w3.org/2000/svg">
<path fill-rule="evenodd" clip-rule="evenodd" d="M10.5 18C14.9183 18 18.5 14.4183 18.5 10C18.5 5.58172 14.9183 2 10.5 2C6.08172 2 2.5 5.58172 2.5 10C2.5 14.4183 6.08172 18 10.5 18ZM7.5 9C8.05228 9 8.5 8.55228 8.5 8C8.5 7.44772 8.05228 7 7.5 7C6.94772 7 6.5 7.44772 6.5 8C6.5 8.55228 6.94772 9 7.5 9ZM14.5 8C14.5 8.55228 14.0523 9 13.5 9C12.9477 9 12.5 8.55228 12.5 8C12.5 7.44772 12.9477 7 13.5 7C14.0523 7 14.5 7.44772 14.5 8ZM6.96447 13.8785C7.35499 14.269 7.98816 14.269 8.37868 13.8785C9.55025 12.7069 11.4497 12.7069 12.6213 13.8785C13.0118 14.269 13.645 14.269 14.0355 13.8785C14.4261 13.4879 14.4261 12.8548 14.0355 12.4642C12.0829 10.5116 8.91709 10.5116 6.96447 12.4642C6.57394 12.8548 6.57394 13.4879 6.96447 13.8785Z" fill="#424242"/>
</svg>
