<svg width="21" height="20" viewBox="0 0 21 20" fill="none" xmlns="http://www.w3.org/2000/svg">
<path fill-rule="evenodd" clip-rule="evenodd" d="M8.75694 3.09882C9.52154 1.73952 11.4786 1.73952 12.2432 3.09882L17.8235 13.0194C18.5735 14.3526 17.61 15.9999 16.0804 15.9999H4.91978C3.39013 15.9999 2.4267 14.3526 3.17663 13.0194L8.75694 3.09882ZM11.5 13C11.5 13.5523 11.0523 14 10.5 14C9.94772 14 9.5 13.5523 9.5 13C9.5 12.4477 9.94772 12 10.5 12C11.0523 12 11.5 12.4477 11.5 13ZM10.5 5C9.94772 5 9.5 5.44772 9.5 6V9C9.5 9.55228 9.94772 10 10.5 10C11.0523 10 11.5 9.55228 11.5 9V6C11.5 5.44772 11.0523 5 10.5 5Z" fill="#424242"/>
</svg>
