<svg width="21" height="20" viewBox="0 0 21 20" fill="none" xmlns="http://www.w3.org/2000/svg">
<g clip-path="url(#clip0_4_328)">
<path fill-rule="evenodd" clip-rule="evenodd" d="M4.20711 2.29289C3.81658 1.90237 3.18342 1.90237 2.79289 2.29289C2.40237 2.68342 2.40237 3.31658 2.79289 3.70711L16.7929 17.7071C17.1834 18.0976 17.8166 18.0976 18.2071 17.7071C18.5976 17.3166 18.5976 16.6834 18.2071 16.2929L16.7339 14.8197C18.2715 13.5924 19.439 11.9211 20.0424 9.99996C18.7681 5.94288 14.9778 3 10.5002 3C8.87665 3 7.34344 3.38692 5.98779 4.07358L4.20711 2.29289ZM8.46813 6.55391L9.98201 8.0678C10.1473 8.02358 10.321 8 10.5003 8C11.6048 8 12.5003 8.89543 12.5003 10C12.5003 10.1792 12.4767 10.353 12.4325 10.5182L13.9463 12.0321C14.2983 11.4366 14.5003 10.7419 14.5003 10C14.5003 7.79086 12.7094 6 10.5003 6C9.75838 6 9.06367 6.20197 8.46813 6.55391Z" fill="#424242"/>
<path d="M12.9541 16.6967L10.2497 13.9923C8.24013 13.8681 6.6322 12.2601 6.50798 10.2506L2.83492 6.57754C2.00063 7.57223 1.35637 8.73169 0.958008 10C2.23228 14.0571 6.02257 17 10.5002 17C11.3469 17 12.1689 16.8948 12.9541 16.6967Z" fill="#424242"/>
</g>
<defs>
<clipPath id="clip0_4_328">
<rect width="20" height="20" fill="white" transform="translate(0.5)"/>
</clipPath>
</defs>
</svg>
