<svg width="21" height="20" viewBox="0 0 21 20" fill="none" xmlns="http://www.w3.org/2000/svg">
<g clip-path="url(#clip0_4_234)">
<path d="M10.5 12C11.6046 12 12.5 11.1046 12.5 10C12.5 8.89543 11.6046 8 10.5 8C9.39544 8 8.50001 8.89543 8.50001 10C8.50001 11.1046 9.39544 12 10.5 12Z" fill="#424242"/>
<path fill-rule="evenodd" clip-rule="evenodd" d="M0.957764 10C2.23202 5.94291 6.02232 3 10.5 3C14.9776 3 18.7679 5.94288 20.0422 9.99996C18.7679 14.0571 14.9776 17 10.4999 17C6.02232 17 2.23204 14.0571 0.957764 10ZM14.5 10C14.5 12.2091 12.7091 14 10.5 14C8.29087 14 6.50001 12.2091 6.50001 10C6.50001 7.79086 8.29087 6 10.5 6C12.7091 6 14.5 7.79086 14.5 10Z" fill="#424242"/>
</g>
<defs>
<clipPath id="clip0_4_234">
<rect width="20" height="20" fill="white" transform="translate(0.5)"/>
</clipPath>
</defs>
</svg>
