<svg width="21" height="20" viewBox="0 0 21 20" fill="none" xmlns="http://www.w3.org/2000/svg">
<path d="M5.0547 5.16795C4.74784 4.96338 4.3533 4.94431 4.02814 5.11833C3.70298 5.29235 3.5 5.63121 3.5 6V14C3.5 14.3688 3.70298 14.7077 4.02814 14.8817C4.3533 15.0557 4.74784 15.0366 5.0547 14.8321L10.5 11.2019V14C10.5 14.3688 10.703 14.7077 11.0281 14.8817C11.3533 15.0557 11.7478 15.0366 12.0547 14.8321L18.0547 10.8321C18.3329 10.6466 18.5 10.3344 18.5 10C18.5 9.66565 18.3329 9.35342 18.0547 9.16795L12.0547 5.16795C11.7478 4.96338 11.3533 4.94431 11.0281 5.11833C10.703 5.29235 10.5 5.63121 10.5 6V8.79815L5.0547 5.16795Z" fill="#424242"/>
</svg>
