<svg width="21" height="20" viewBox="0 0 21 20" fill="none" xmlns="http://www.w3.org/2000/svg">
<path fill-rule="evenodd" clip-rule="evenodd" d="M7.12478 2.65458C8.1684 2.23213 9.30833 2 10.5 2C15.4706 2 19.5 6.02944 19.5 11C19.5 11.5523 19.0523 12 18.5 12C17.9477 12 17.5 11.5523 17.5 11C17.5 7.13401 14.366 4 10.5 4C9.56987 4 8.68446 4.18088 7.87522 4.50845C7.36328 4.71568 6.78029 4.46867 6.57306 3.95673C6.36584 3.4448 6.61285 2.8618 7.12478 2.65458ZM5.16173 4.95861C5.5758 5.32408 5.6152 5.95602 5.24974 6.37008C4.16007 7.60467 3.5 9.22404 3.5 11C3.5 11.5523 3.05228 12 2.5 12C1.94772 12 1.5 11.5523 1.5 11C1.5 8.71818 2.35048 6.63256 3.75026 5.04662C4.11573 4.63255 4.74766 4.59315 5.16173 4.95861Z" fill="#424242"/>
<path fill-rule="evenodd" clip-rule="evenodd" d="M5.5 11C5.5 8.23858 7.73857 6 10.5 6C13.2614 6 15.5 8.23858 15.5 11C15.5 11.5523 15.0523 12 14.5 12C13.9477 12 13.5 11.5523 13.5 11C13.5 9.34315 12.1569 8 10.5 8C8.84315 8 7.5 9.34315 7.5 11C7.5 12.6772 7.15535 14.2764 6.53206 15.7288C6.31426 16.2363 5.72626 16.4712 5.21874 16.2533C4.71122 16.0355 4.47636 15.4475 4.69416 14.94C5.21247 13.7323 5.5 12.401 5.5 11ZM14.4212 13.0123C14.9666 13.0989 15.3387 13.6112 15.2521 14.1567C15.1205 14.9867 14.9378 15.7998 14.7072 16.5928C14.5531 17.1231 13.9982 17.428 13.4679 17.2739C12.9375 17.1197 12.6326 16.5648 12.7868 16.0345C12.994 15.3215 13.1584 14.5901 13.2768 13.8433C13.3634 13.2979 13.8757 12.9258 14.4212 13.0123Z" fill="#424242"/>
<path fill-rule="evenodd" clip-rule="evenodd" d="M10.5 10C11.0523 10 11.5 10.4477 11.5 11C11.5 13.2363 11.0406 15.3679 10.2101 17.3036C9.99239 17.8111 9.40441 18.046 8.89687 17.8283C8.38933 17.6105 8.15441 17.0225 8.37217 16.515C9.09772 14.8239 9.5 12.9602 9.5 11C9.5 10.4477 9.94771 10 10.5 10Z" fill="#424242"/>
</svg>
