<svg width="21" height="20" viewBox="0 0 21 20" fill="none" xmlns="http://www.w3.org/2000/svg">
<path fill-rule="evenodd" clip-rule="evenodd" d="M12.2568 2.03351C12.534 2.10713 12.7662 2.29624 12.8945 2.55279C13.3781 3.51991 13.739 4.10688 14.1021 4.5828C14.4696 5.06453 14.8584 5.45889 15.4497 6.05028C16.8164 7.41692 17.5 9.21013 17.5 11C17.5 12.7899 16.8164 14.5831 15.4497 15.9498C12.7161 18.6834 8.28392 18.6834 5.55025 15.9498C4.18361 14.5831 3.5 12.7899 3.5 11C3.5 9.21013 4.18361 7.41692 5.55025 6.05028C5.83625 5.76428 6.26637 5.67872 6.64004 5.83351C7.01372 5.98829 7.25736 6.35292 7.25736 6.75739C7.25736 7.8772 7.32729 8.73046 7.65481 9.41104C7.83491 9.78527 8.11585 10.1512 8.60004 10.4776C8.71568 9.41687 8.92752 8.12448 9.21375 6.89778C9.43911 5.93195 9.71939 4.96773 10.053 4.16366C10.2199 3.76148 10.4086 3.37854 10.6229 3.04791C10.8314 2.72608 11.0995 2.39858 11.4454 2.16795C11.684 2.00885 11.9795 1.95988 12.2568 2.03351ZM12.6213 15.1213C11.4497 16.2929 9.55025 16.2929 8.37868 15.1213C7.79289 14.5355 7.5 13.7678 7.5 13C7.5 13 8.37868 13.5 10 13.5C10 12.5 10.5 9.5 11.25 9C11.75 10 12.0355 10.2929 12.6213 10.8787C13.2071 11.4645 13.5 12.2322 13.5 13C13.5 13.7678 13.2071 14.5355 12.6213 15.1213Z" fill="#424242"/>
</svg>
