<svg width="21" height="20" viewBox="0 0 21 20" fill="none" xmlns="http://www.w3.org/2000/svg">
<path fill-rule="evenodd" clip-rule="evenodd" d="M4.5 4C3.39543 4 2.5 4.89543 2.5 6V14C2.5 15.1046 3.39543 16 4.5 16H16.5C17.6046 16 18.5 15.1046 18.5 14V8C18.5 6.89543 17.6046 6 16.5 6H11.5L9.5 4H4.5ZM11.5 9C11.5 8.44772 11.0523 8 10.5 8C9.94772 8 9.5 8.44772 9.5 9V10.5858L9.20711 10.2929C8.81658 9.90237 8.18342 9.90237 7.79289 10.2929C7.40237 10.6834 7.40237 11.3166 7.79289 11.7071L9.79289 13.7071C10.1834 14.0976 10.8166 14.0976 11.2071 13.7071L13.2071 11.7071C13.5976 11.3166 13.5976 10.6834 13.2071 10.2929C12.8166 9.90237 12.1834 9.90237 11.7929 10.2929L11.5 10.5858V9Z" fill="#424242"/>
</svg>
