<svg width="21" height="20" viewBox="0 0 21 20" fill="none" xmlns="http://www.w3.org/2000/svg">
<path fill-rule="evenodd" clip-rule="evenodd" d="M2.5 6C2.5 4.89543 3.39543 4 4.5 4H8.5L10.5 6H14.5C15.6046 6 16.5 6.89543 16.5 8V9H8.5C6.84315 9 5.5 10.3431 5.5 12V13.5C5.5 14.3284 4.82843 15 4 15C3.17157 15 2.5 14.3284 2.5 13.5V6Z" fill="#424242"/>
<path d="M6.5 12C6.5 10.8954 7.39543 10 8.5 10H16.5C17.6046 10 18.5 10.8954 18.5 12V14C18.5 15.1046 17.6046 16 16.5 16H2.5H4.5C5.60457 16 6.5 15.1046 6.5 14V12Z" fill="#424242"/>
</svg>
