<svg width="21" height="20" viewBox="0 0 21 20" fill="none" xmlns="http://www.w3.org/2000/svg">
<path fill-rule="evenodd" clip-rule="evenodd" d="M4.5 4C3.39543 4 2.5 4.89543 2.5 6V14C2.5 15.1046 3.39543 16 4.5 16H16.5C17.6046 16 18.5 15.1046 18.5 14V8C18.5 6.89543 17.6046 6 16.5 6H11.5L9.5 4H4.5ZM11.5 9C11.5 8.44772 11.0523 8 10.5 8C9.94772 8 9.5 8.44772 9.5 9V10H8.5C7.94772 10 7.5 10.4477 7.5 11C7.5 11.5523 7.94772 12 8.5 12H9.5V13C9.5 13.5523 9.94772 14 10.5 14C11.0523 14 11.5 13.5523 11.5 13V12H12.5C13.0523 12 13.5 11.5523 13.5 11C13.5 10.4477 13.0523 10 12.5 10H11.5V9Z" fill="#424242"/>
</svg>
