<svg width="21" height="20" viewBox="0 0 21 20" fill="none" xmlns="http://www.w3.org/2000/svg">
<path fill-rule="evenodd" clip-rule="evenodd" d="M5.5 5C5.5 3.34315 6.84315 2 8.5 2C9.26836 2 9.96924 2.28885 10.5 2.7639C11.0308 2.28885 11.7316 2 12.5 2C14.1569 2 15.5 3.34315 15.5 5C15.5 5.35064 15.4398 5.68722 15.3293 6H16.5C17.6046 6 18.5 6.89543 18.5 8C18.5 9.10457 17.6046 10 16.5 10H11.5V9C11.5 8.44772 11.0523 8 10.5 8C9.94772 8 9.5 8.44771 9.5 9V10H4.5C3.39543 10 2.5 9.10457 2.5 8C2.5 6.89543 3.39543 6 4.5 6H5.67071C5.56015 5.68722 5.5 5.35064 5.5 5ZM9.5 6V5C9.5 4.44772 9.05228 4 8.5 4C7.94772 4 7.5 4.44772 7.5 5C7.5 5.55228 7.94772 6 8.5 6H9.5ZM12.5 6C13.0523 6 13.5 5.55228 13.5 5C13.5 4.44772 13.0523 4 12.5 4C11.9477 4 11.5 4.44772 11.5 5V6H12.5Z" fill="#424242"/>
<path d="M9.5 11H3.5V16C3.5 17.1046 4.39543 18 5.5 18H9.5V11Z" fill="#424242"/>
<path d="M11.5 18H15.5C16.6046 18 17.5 17.1046 17.5 16V11H11.5V18Z" fill="#424242"/>
</svg>
