<svg width="21" height="20" viewBox="0 0 21 20" fill="none" xmlns="http://www.w3.org/2000/svg">
<path fill-rule="evenodd" clip-rule="evenodd" d="M10.5 18C14.9183 18 18.5 14.4183 18.5 10C18.5 5.58172 14.9183 2 10.5 2C6.08172 2 2.5 5.58172 2.5 10C2.5 14.4183 6.08172 18 10.5 18ZM4.83179 8.02741C5.20542 6.95361 5.87558 6.01864 6.74421 5.32056C7.01209 5.72966 7.47449 5.99991 8.00001 5.99991C8.82844 5.99991 9.50001 6.67148 9.50001 7.49991V7.99991C9.50001 9.10448 10.3954 9.99991 11.5 9.99991C12.6046 9.99991 13.5 9.10448 13.5 7.99991C13.5 7.05979 14.1487 6.27118 15.0228 6.05719C15.9428 7.11161 16.5 8.49069 16.5 9.99992C16.5 10.3407 16.4716 10.6748 16.417 11.0001H15.5C14.3954 11.0001 13.5 11.8955 13.5 13.0001V15.1973C12.6175 15.7078 11.5928 15.9999 10.4999 15.9999V14C10.4999 12.8954 9.60448 12 8.49992 12C7.39535 12 6.49992 11.1046 6.49992 10C6.49992 9.00849 5.77841 8.1855 4.83179 8.02741Z" fill="#424242"/>
</svg>
