<svg width="21" height="20" viewBox="0 0 21 20" fill="none" xmlns="http://www.w3.org/2000/svg">
<path fill-rule="evenodd" clip-rule="evenodd" d="M4.58296 9H6.52863C6.61783 7.45361 6.91228 6.02907 7.36644 4.88228C5.91752 5.77135 4.87513 7.25848 4.58296 9ZM10.5 2C6.08172 2 2.5 5.58172 2.5 10C2.5 14.4183 6.08172 18 10.5 18C14.9183 18 18.5 14.4183 18.5 10C18.5 5.58172 14.9183 2 10.5 2ZM10.5 4C10.424 4 10.2679 4.03173 10.0347 4.26184C9.79723 4.4962 9.53751 4.8849 9.29782 5.44417C8.90914 6.3511 8.62491 7.58559 8.53237 9H12.4676C12.3751 7.58559 12.0909 6.3511 11.7022 5.44417C11.4625 4.8849 11.2028 4.4962 10.9653 4.26184C10.7321 4.03173 10.576 4 10.5 4ZM14.4714 9C14.3822 7.45361 14.0877 6.02907 13.6336 4.88228C15.0825 5.77135 16.1249 7.25848 16.417 9H14.4714ZM12.4676 11H8.53237C8.62491 12.4144 8.90914 13.6489 9.29782 14.5558C9.53751 15.1151 9.79723 15.5038 10.0347 15.7382C10.2679 15.9683 10.424 16 10.5 16C10.576 16 10.7321 15.9683 10.9653 15.7382C11.2028 15.5038 11.4625 15.1151 11.7022 14.5558C12.0909 13.6489 12.3751 12.4144 12.4676 11ZM13.6336 15.1177C14.0877 13.9709 14.3822 12.5464 14.4714 11H16.417C16.1249 12.7415 15.0825 14.2287 13.6336 15.1177ZM7.36644 15.1177C6.91228 13.9709 6.61783 12.5464 6.52863 11H4.58296C4.87513 12.7415 5.91752 14.2287 7.36644 15.1177Z" fill="#424242"/>
</svg>
