<svg width="21" height="20" viewBox="0 0 21 20" fill="none" xmlns="http://www.w3.org/2000/svg">
<path d="M9.5 3C9.5 2.44772 9.94772 2 10.5 2C11.0523 2 11.5 2.44772 11.5 3V8.5C11.5 8.77614 11.7239 9 12 9C12.2761 9 12.5 8.77614 12.5 8.5V4C12.5 3.44772 12.9477 3 13.5 3C14.0523 3 14.5 3.44772 14.5 4V8.5C14.5 8.77614 14.7239 9 15 9C15.2761 9 15.5 8.77614 15.5 8.5V6C15.5 5.44772 15.9477 5 16.5 5C17.0523 5 17.5 5.44772 17.5 6V11C17.5 14.866 14.366 18 10.5 18C6.63401 18 3.5 14.866 3.5 11V9C3.5 8.44772 3.94772 8 4.5 8C5.05228 8 5.5 8.44772 5.5 9V11.5C5.5 11.7761 5.72386 12 6 12C6.27614 12 6.5 11.7761 6.5 11.5V4C6.5 3.44772 6.94772 3 7.5 3C8.05228 3 8.5 3.44772 8.5 4V8.5C8.5 8.77614 8.72386 9 9 9C9.27614 9 9.5 8.77614 9.5 8.5V3Z" fill="#424242"/>
</svg>
