<svg width="21" height="20" viewBox="0 0 21 20" fill="none" xmlns="http://www.w3.org/2000/svg">
<path fill-rule="evenodd" clip-rule="evenodd" d="M9.74254 3.02985C10.2783 3.1638 10.6041 3.70673 10.4701 4.24253L10.0308 5.99999H12.9692L13.5299 3.75746C13.6638 3.22166 14.2067 2.8959 14.7425 3.02985C15.2783 3.1638 15.6041 3.70673 15.4701 4.24253L15.0308 5.99999H17.5C18.0523 5.99999 18.5 6.44771 18.5 6.99999C18.5 7.55228 18.0523 7.99999 17.5 7.99999H14.5308L13.5308 12H15.5C16.0523 12 16.5 12.4477 16.5 13C16.5 13.5523 16.0523 14 15.5 14H13.0308L12.4701 16.2425C12.3362 16.7783 11.7933 17.1041 11.2575 16.9701C10.7217 16.8362 10.3959 16.2933 10.5299 15.7575L10.9692 14H8.03078L7.47014 16.2425C7.33619 16.7783 6.79326 17.1041 6.25746 16.9701C5.72167 16.8362 5.39591 16.2933 5.52986 15.7575L5.96922 14H3.5C2.94772 14 2.5 13.5523 2.5 13C2.5 12.4477 2.94772 12 3.5 12H6.46922L7.46922 7.99999H5.5C4.94772 7.99999 4.5 7.55228 4.5 6.99999C4.5 6.44771 4.94772 5.99999 5.5 5.99999H7.96922L8.52986 3.75746C8.66381 3.22166 9.20674 2.8959 9.74254 3.02985ZM9.53078 7.99999L8.53078 12H11.4692L12.4692 7.99999H9.53078Z" fill="#424242"/>
</svg>
