<svg width="21" height="20" viewBox="0 0 21 20" fill="none" xmlns="http://www.w3.org/2000/svg">
<path d="M11.2071 2.29289C10.8166 1.90237 10.1834 1.90237 9.79289 2.29289L2.79289 9.29289C2.40237 9.68342 2.40237 10.3166 2.79289 10.7071C3.18342 11.0976 3.81658 11.0976 4.20711 10.7071L4.5 10.4142V17C4.5 17.5523 4.94772 18 5.5 18H7.5C8.05228 18 8.5 17.5523 8.5 17V15C8.5 14.4477 8.94772 14 9.5 14H11.5C12.0523 14 12.5 14.4477 12.5 15V17C12.5 17.5523 12.9477 18 13.5 18H15.5C16.0523 18 16.5 17.5523 16.5 17V10.4142L16.7929 10.7071C17.1834 11.0976 17.8166 11.0976 18.2071 10.7071C18.5976 10.3166 18.5976 9.68342 18.2071 9.29289L11.2071 2.29289Z" fill="#424242"/>
</svg>
