<svg width="21" height="20" viewBox="0 0 21 20" fill="none" xmlns="http://www.w3.org/2000/svg">
<path d="M8.5 2C7.94772 2 7.5 2.44772 7.5 3C7.5 3.55228 7.94772 4 8.5 4H10.5C11.0523 4 11.5 3.55228 11.5 3C11.5 2.44772 11.0523 2 10.5 2H8.5Z" fill="#424242"/>
<path d="M3.5 5C3.5 3.89543 4.39543 3 5.5 3C5.5 4.65685 6.84315 6 8.5 6H10.5C12.1569 6 13.5 4.65685 13.5 3C14.6046 3 15.5 3.89543 15.5 5V11H10.9142L12.2071 9.70711C12.5976 9.31658 12.5976 8.68342 12.2071 8.29289C11.8166 7.90237 11.1834 7.90237 10.7929 8.29289L7.79289 11.2929C7.40237 11.6834 7.40237 12.3166 7.79289 12.7071L10.7929 15.7071C11.1834 16.0976 11.8166 16.0976 12.2071 15.7071C12.5976 15.3166 12.5976 14.6834 12.2071 14.2929L10.9142 13H15.5V16C15.5 17.1046 14.6046 18 13.5 18H5.5C4.39543 18 3.5 17.1046 3.5 16V5Z" fill="#424242"/>
<path d="M15.5 11H17.5C18.0523 11 18.5 11.4477 18.5 12C18.5 12.5523 18.0523 13 17.5 13H15.5V11Z" fill="#424242"/>
</svg>
