<svg width="21" height="20" viewBox="0 0 21 20" fill="none" xmlns="http://www.w3.org/2000/svg">
<path d="M10.5 2C9.94772 2 9.5 2.44772 9.5 3V4C9.5 4.55228 9.94772 5 10.5 5C11.0523 5 11.5 4.55228 11.5 4V3C11.5 2.44772 11.0523 2 10.5 2Z" fill="#424242"/>
<path fill-rule="evenodd" clip-rule="evenodd" d="M4.5 4H7.5C7.5 5.65685 8.84315 7 10.5 7C12.1569 7 13.5 5.65685 13.5 4H16.5C17.6046 4 18.5 4.89543 18.5 6V15C18.5 16.1046 17.6046 17 16.5 17H4.5C3.39543 17 2.5 16.1046 2.5 15V6C2.5 4.89543 3.39543 4 4.5 4ZM7 11C7.82843 11 8.5 10.3284 8.5 9.5C8.5 8.67157 7.82843 8 7 8C6.17157 8 5.5 8.67157 5.5 9.5C5.5 10.3284 6.17157 11 7 11ZM9.45048 15C9.48327 14.8384 9.50049 14.6712 9.50049 14.5C9.50049 13.1193 8.3812 12 7.00049 12C5.61978 12 4.50049 13.1193 4.50049 14.5C4.50049 14.6712 4.5177 14.8384 4.5505 15H9.45048ZM12.5 9C11.9477 9 11.5 9.44772 11.5 10C11.5 10.5523 11.9477 11 12.5 11H15.5C16.0523 11 16.5 10.5523 16.5 10C16.5 9.44772 16.0523 9 15.5 9H12.5ZM11.5 13C11.5 12.4477 11.9477 12 12.5 12H14.5C15.0523 12 15.5 12.4477 15.5 13C15.5 13.5523 15.0523 14 14.5 14H12.5C11.9477 14 11.5 13.5523 11.5 13Z" fill="#424242"/>
</svg>
