<svg width="21" height="20" viewBox="0 0 21 20" fill="none" xmlns="http://www.w3.org/2000/svg">
<path fill-rule="evenodd" clip-rule="evenodd" d="M3.5 5C3.5 3.89543 4.39543 3 5.5 3H6.5C7.05228 3 7.5 3.44772 7.5 4C7.5 4.55228 7.05228 5 6.5 5L5.5 5V15H15.5V5H14.5C13.9477 5 13.5 4.55228 13.5 4C13.5 3.44772 13.9477 3 14.5 3H15.5C16.6046 3 17.5 3.89543 17.5 5V15C17.5 16.1046 16.6046 17 15.5 17H5.5C4.39543 17 3.5 16.1046 3.5 15V5Z" fill="#424242"/>
<path d="M4.5 12H7.5L8.5 14H12.5L13.5 12H16.5V16H4.5V12Z" fill="#424242"/>
<path d="M7.79289 7.29289C8.18342 6.90237 8.81658 6.90237 9.20711 7.29289L9.5 7.58579V3C9.5 2.44772 9.94771 2 10.5 2C11.0523 2 11.5 2.44771 11.5 3L11.5 7.58579L11.7929 7.29289C12.1834 6.90237 12.8166 6.90237 13.2071 7.29289C13.5976 7.68342 13.5976 8.31658 13.2071 8.70711L11.2071 10.7071C11.0196 10.8946 10.7652 11 10.5 11C10.2348 11 9.98043 10.8946 9.79289 10.7071L7.79289 8.70711C7.40237 8.31658 7.40237 7.68342 7.79289 7.29289Z" fill="#424242"/>
</svg>
