<svg width="21" height="20" viewBox="0 0 21 20" fill="none" xmlns="http://www.w3.org/2000/svg">
<path fill-rule="evenodd" clip-rule="evenodd" d="M18.5 10C18.5 14.4183 14.9183 18 10.5 18C6.08172 18 2.5 14.4183 2.5 10C2.5 5.58172 6.08172 2 10.5 2C14.9183 2 18.5 5.58172 18.5 10ZM11.5 6C11.5 6.55228 11.0523 7 10.5 7C9.94772 7 9.5 6.55228 9.5 6C9.5 5.44772 9.94772 5 10.5 5C11.0523 5 11.5 5.44772 11.5 6ZM9.5 9C8.94772 9 8.5 9.44772 8.5 10C8.5 10.5523 8.94772 11 9.5 11V14C9.5 14.5523 9.94772 15 10.5 15H11.5C12.0523 15 12.5 14.5523 12.5 14C12.5 13.4477 12.0523 13 11.5 13V10C11.5 9.44772 11.0523 9 10.5 9H9.5Z" fill="#424242"/>
</svg>
