<svg width="21" height="20" viewBox="0 0 21 20" fill="none" xmlns="http://www.w3.org/2000/svg">
<path fill-rule="evenodd" clip-rule="evenodd" d="M18.5 8C18.5 11.3137 15.8137 14 12.5 14C11.8938 14 11.3087 13.9101 10.7571 13.7429L8.5 16H6.5V18H2.5V14L6.75707 9.74293C6.58989 9.19135 6.5 8.60617 6.5 8C6.5 4.68629 9.18629 2 12.5 2C15.8137 2 18.5 4.68629 18.5 8ZM12.5 4C11.9477 4 11.5 4.44772 11.5 5C11.5 5.55228 11.9477 6 12.5 6C13.6046 6 14.5 6.89543 14.5 8C14.5 8.55228 14.9477 9 15.5 9C16.0523 9 16.5 8.55228 16.5 8C16.5 5.79086 14.7091 4 12.5 4Z" fill="#424242"/>
</svg>
