<svg width="21" height="20" viewBox="0 0 21 20" fill="none" xmlns="http://www.w3.org/2000/svg">
<path d="M11.5 3C11.5 2.44772 11.0523 2 10.5 2C9.94771 2 9.5 2.44772 9.5 3V4C9.5 4.55228 9.94771 5 10.5 5C11.0523 5 11.5 4.55228 11.5 4V3Z" fill="#424242"/>
<path d="M16.1568 5.75731C16.5473 5.36678 16.5473 4.73362 16.1568 4.34309C15.7663 3.95257 15.1331 3.95257 14.7426 4.34309L14.0355 5.0502C13.645 5.44072 13.645 6.07389 14.0355 6.46441C14.426 6.85494 15.0592 6.85494 15.4497 6.46441L16.1568 5.75731Z" fill="#424242"/>
<path d="M18.5 10C18.5 10.5523 18.0523 11 17.5 11H16.5C15.9477 11 15.5 10.5523 15.5 10C15.5 9.44771 15.9477 9 16.5 9H17.5C18.0523 9 18.5 9.44771 18.5 10Z" fill="#424242"/>
<path d="M5.55019 6.46443C5.94071 6.85496 6.57388 6.85496 6.9644 6.46443C7.35493 6.07391 7.35493 5.44074 6.9644 5.05022L6.2573 4.34311C5.86677 3.95259 5.23361 3.95259 4.84308 4.34311C4.45256 4.73363 4.45256 5.3668 4.84308 5.75732L5.55019 6.46443Z" fill="#424242"/>
<path d="M5.5 10C5.5 10.5523 5.05228 11 4.5 11H3.5C2.94772 11 2.5 10.5523 2.5 10C2.5 9.44771 2.94772 9 3.5 9H4.5C5.05228 9 5.5 9.44771 5.5 10Z" fill="#424242"/>
<path d="M8.5 16V15H12.5V16C12.5 17.1046 11.6046 18 10.5 18C9.39543 18 8.5 17.1046 8.5 16Z" fill="#424242"/>
<path d="M12.5009 14C12.5155 13.6597 12.7076 13.3537 12.9768 13.1411C13.9046 12.4086 14.5 11.2738 14.5 10C14.5 7.79086 12.7091 6 10.5 6C8.29086 6 6.5 7.79086 6.5 10C6.5 11.2738 7.09545 12.4086 8.02319 13.1411C8.29241 13.3537 8.48451 13.6597 8.49911 14H12.5009Z" fill="#424242"/>
</svg>
