<svg width="21" height="20" viewBox="0 0 21 20" fill="none" xmlns="http://www.w3.org/2000/svg">
<path fill-rule="evenodd" clip-rule="evenodd" d="M11.8006 1.04627C12.2169 1.17749 12.5 1.56354 12.5 2.00001V7.00001L16.5 7.00001C16.8729 7.00001 17.2148 7.20747 17.387 7.5382C17.5592 7.86893 17.5331 8.268 17.3192 8.57347L10.3192 18.5735C10.0689 18.931 9.61564 19.085 9.19936 18.9537C8.78308 18.8225 8.5 18.4365 8.5 18L8.5 13H4.5C4.12712 13 3.78522 12.7926 3.61302 12.4618C3.44082 12.1311 3.46694 11.732 3.68077 11.4265L10.6808 1.42655C10.9311 1.06898 11.3844 0.915053 11.8006 1.04627Z" fill="#424242"/>
</svg>
