<svg width="21" height="20" viewBox="0 0 21 20" fill="none" xmlns="http://www.w3.org/2000/svg">
<path d="M13.0858 4.58579C13.8668 3.80474 15.1331 3.80474 15.9142 4.58579C16.6952 5.36684 16.6952 6.63316 15.9142 7.41421L12.9142 10.4142C12.1331 11.1953 10.8668 11.1953 10.0858 10.4142C9.69524 10.0237 9.06208 10.0237 8.67156 10.4142C8.28103 10.8047 8.28103 11.4379 8.67156 11.8284C10.2337 13.3905 12.7663 13.3905 14.3284 11.8284L17.3284 8.82843C18.8905 7.26633 18.8905 4.73367 17.3284 3.17157C15.7663 1.60948 13.2337 1.60948 11.6716 3.17157L10.1716 4.67157C9.78103 5.0621 9.78103 5.69526 10.1716 6.08579C10.5621 6.47631 11.1952 6.47631 11.5858 6.08579L13.0858 4.58579Z" fill="#424242"/>
<path d="M8.08579 9.58579C8.86683 8.80474 10.1332 8.80474 10.9142 9.58579C11.3047 9.97631 11.9379 9.97631 12.3284 9.58579C12.719 9.19526 12.719 8.5621 12.3284 8.17157C10.7663 6.60948 8.23367 6.60948 6.67157 8.17157L3.67157 11.1716C2.10948 12.7337 2.10948 15.2663 3.67157 16.8284C5.23367 18.3905 7.76633 18.3905 9.32843 16.8284L10.8284 15.3284C11.219 14.9379 11.219 14.3047 10.8284 13.9142C10.4379 13.5237 9.80474 13.5237 9.41421 13.9142L7.91421 15.4142C7.13316 16.1953 5.86684 16.1953 5.08579 15.4142C4.30474 14.6332 4.30474 13.3668 5.08579 12.5858L8.08579 9.58579Z" fill="#424242"/>
</svg>
