<svg width="21" height="20" viewBox="0 0 21 20" fill="none" xmlns="http://www.w3.org/2000/svg">
<path d="M10.5 2C7.73858 2 5.5 4.23858 5.5 7V9C4.39543 9 3.5 9.89543 3.5 11V16C3.5 17.1046 4.39543 18 5.5 18H15.5C16.6046 18 17.5 17.1046 17.5 16V11C17.5 9.89543 16.6046 9 15.5 9H7.5V7C7.5 5.34315 8.84315 4 10.5 4C11.8965 4 13.0725 4.95512 13.4055 6.24926C13.5432 6.78411 14.0884 7.1061 14.6232 6.96844C15.1581 6.83078 15.4801 6.28559 15.3424 5.75074C14.7874 3.59442 12.8312 2 10.5 2Z" fill="#424242"/>
</svg>
