<svg width="21" height="20" viewBox="0 0 21 20" fill="none" xmlns="http://www.w3.org/2000/svg">
<path fill-rule="evenodd" clip-rule="evenodd" d="M3.5 3C4.05229 3 4.5 3.44771 4.5 4L4.5 16C4.5 16.5523 4.05228 17 3.5 17C2.94771 17 2.5 16.5523 2.5 16L2.5 4C2.5 3.44771 2.94772 3 3.5 3ZM11.2071 6.29289C11.5976 6.68342 11.5976 7.31658 11.2071 7.70711L9.91421 9L17.5 9C18.0523 9 18.5 9.44771 18.5 10C18.5 10.5523 18.0523 11 17.5 11L9.91421 11L11.2071 12.2929C11.5976 12.6834 11.5976 13.3166 11.2071 13.7071C10.8166 14.0976 10.1834 14.0976 9.79289 13.7071L6.79289 10.7071C6.60536 10.5196 6.5 10.2652 6.5 10C6.5 9.73478 6.60536 9.48043 6.79289 9.29289L9.79289 6.29289C10.1834 5.90237 10.8166 5.90237 11.2071 6.29289Z" fill="#424242"/>
</svg>
