<svg width="21" height="20" viewBox="0 0 21 20" fill="none" xmlns="http://www.w3.org/2000/svg">
<path d="M3.5 3C2.94772 3 2.5 3.44772 2.5 4V16C2.5 16.5523 2.94772 17 3.5 17C4.05228 17 4.5 16.5523 4.5 16V4C4.5 3.44772 4.05228 3 3.5 3Z" fill="#424242"/>
<path d="M13.7929 12.2929C13.4024 12.6834 13.4024 13.3166 13.7929 13.7071C14.1834 14.0976 14.8166 14.0976 15.2071 13.7071L18.2071 10.7071C18.3946 10.5196 18.5 10.2652 18.5 10C18.5 9.73478 18.3946 9.48043 18.2071 9.29289L15.2071 6.29289C14.8166 5.90237 14.1834 5.90237 13.7929 6.29289C13.4024 6.68342 13.4024 7.31658 13.7929 7.70711L15.0858 9L7.5 9C6.94771 9 6.5 9.44772 6.5 10C6.5 10.5523 6.94772 11 7.5 11H15.0858L13.7929 12.2929Z" fill="#424242"/>
</svg>
