<svg width="21" height="20" viewBox="0 0 21 20" fill="none" xmlns="http://www.w3.org/2000/svg">
<path fill-rule="evenodd" clip-rule="evenodd" d="M3.44 6.4124C2.85524 6.77788 2.5 7.41882 2.5 8.1084V15.9999C2.5 17.1045 3.39543 17.9999 4.5 17.9999H16.5C17.6046 17.9999 18.5 17.1045 18.5 15.9999V8.1084C18.5 7.41882 18.1448 6.77788 17.56 6.4124L11.56 2.6624C10.9115 2.25706 10.0885 2.25706 9.44 2.6624L3.44 6.4124ZM6.0547 8.83462C5.59517 8.52826 4.9743 8.65244 4.66795 9.11197C4.3616 9.5715 4.48577 10.1924 4.9453 10.4987L9.9453 13.8321C10.2812 14.056 10.7188 14.056 11.0547 13.8321L16.0547 10.4987C16.5142 10.1924 16.6384 9.5715 16.3321 9.11197C16.0257 8.65244 15.4048 8.52826 14.9453 8.83462L10.5 11.7981L6.0547 8.83462Z" fill="#424242"/>
</svg>
