<svg width="21" height="20" viewBox="0 0 21 20" fill="none" xmlns="http://www.w3.org/2000/svg">
<path fill-rule="evenodd" clip-rule="evenodd" d="M12.5 1.58582L8.5 5.58582V18.4142L12.5 14.4142V1.58582Z" fill="#424242"/>
<path fill-rule="evenodd" clip-rule="evenodd" d="M4.20711 3.29292C3.92111 3.00692 3.49099 2.92137 3.11732 3.07615C2.74364 3.23093 2.5 3.59557 2.5 4.00003V14C2.5 14.2652 2.60536 14.5196 2.79289 14.7071L6.5 18.4142V5.58582L4.20711 3.29292Z" fill="#424242"/>
<path fill-rule="evenodd" clip-rule="evenodd" d="M18.2071 5.29292L14.5 1.58582V14.4142L16.7929 16.7071C17.0789 16.9931 17.509 17.0787 17.8827 16.9239C18.2564 16.7691 18.5 16.4045 18.5 16V6.00003C18.5 5.73481 18.3946 5.48046 18.2071 5.29292Z" fill="#424242"/>
</svg>
