<svg width="21" height="20" viewBox="0 0 21 20" fill="none" xmlns="http://www.w3.org/2000/svg">
<path fill-rule="evenodd" clip-rule="evenodd" d="M10.9963 2.13176C10.6889 1.95608 10.3115 1.95608 10.004 2.13176L3.00403 6.13176C2.52451 6.40577 2.35792 7.01662 2.63193 7.49614C2.81631 7.81881 3.15322 7.99979 3.5 8.00017V15C2.94772 15 2.5 15.4477 2.5 16C2.5 16.5523 2.94772 17 3.5 17H17.5C18.0523 17 18.5 16.5523 18.5 16C18.5 15.4477 18.0523 15 17.5 15V8.00017C17.8469 7.99991 18.184 7.81892 18.3684 7.49614C18.6424 7.01662 18.4758 6.40577 17.9963 6.13176L10.9963 2.13176ZM6.5 9C5.94772 9 5.5 9.44772 5.5 10V13C5.5 13.5523 5.94772 14 6.5 14C7.05228 14 7.5 13.5523 7.5 13V10C7.5 9.44772 7.05228 9 6.5 9ZM9.5 10C9.5 9.44772 9.94772 9 10.5 9C11.0523 9 11.5 9.44772 11.5 10V13C11.5 13.5523 11.0523 14 10.5 14C9.94772 14 9.5 13.5523 9.5 13V10ZM14.5 9C13.9477 9 13.5 9.44772 13.5 10V13C13.5 13.5523 13.9477 14 14.5 14C15.0523 14 15.5 13.5523 15.5 13V10C15.5 9.44772 15.0523 9 14.5 9Z" fill="#424242"/>
</svg>
