<svg width="21" height="20" viewBox="0 0 21 20" fill="none" xmlns="http://www.w3.org/2000/svg">
<path fill-rule="evenodd" clip-rule="evenodd" d="M3.5 5C3.5 4.44772 3.94772 4 4.5 4H16.5C17.0523 4 17.5 4.44772 17.5 5C17.5 5.55228 17.0523 6 16.5 6H4.5C3.94772 6 3.5 5.55228 3.5 5Z" fill="#424242"/>
<path fill-rule="evenodd" clip-rule="evenodd" d="M3.5 10C3.5 9.44772 3.94772 9 4.5 9H16.5C17.0523 9 17.5 9.44772 17.5 10C17.5 10.5523 17.0523 11 16.5 11H4.5C3.94772 11 3.5 10.5523 3.5 10Z" fill="#424242"/>
<path fill-rule="evenodd" clip-rule="evenodd" d="M3.5 15C3.5 14.4477 3.94772 14 4.5 14H16.5C17.0523 14 17.5 14.4477 17.5 15C17.5 15.5523 17.0523 16 16.5 16H4.5C3.94772 16 3.5 15.5523 3.5 15Z" fill="#424242"/>
</svg>
