<svg width="21" height="20" viewBox="0 0 21 20" fill="none" xmlns="http://www.w3.org/2000/svg">
<path d="M7.5 4C7.5 2.34315 8.84315 1 10.5 1C12.1569 1 13.5 2.34315 13.5 4V8C13.5 9.65685 12.1569 11 10.5 11C8.84315 11 7.5 9.65685 7.5 8V4Z" fill="#424242"/>
<path d="M11.5 14.9291C14.8923 14.4439 17.5 11.5265 17.5 8C17.5 7.44772 17.0523 7 16.5 7C15.9477 7 15.5 7.44772 15.5 8C15.5 10.7614 13.2614 13 10.5 13C7.73858 13 5.5 10.7614 5.5 8C5.5 7.44772 5.05228 7 4.5 7C3.94772 7 3.5 7.44772 3.5 8C3.5 11.5265 6.10771 14.4439 9.5 14.9291V17H6.5C5.94772 17 5.5 17.4477 5.5 18C5.5 18.5523 5.94772 19 6.5 19H14.5C15.0523 19 15.5 18.5523 15.5 18C15.5 17.4477 15.0523 17 14.5 17H11.5V14.9291Z" fill="#424242"/>
</svg>
