<svg width="21" height="20" viewBox="0 0 21 20" fill="none" xmlns="http://www.w3.org/2000/svg">
<path d="M18.5 3.00001C18.5 2.70042 18.3657 2.41661 18.134 2.22667C17.9023 2.03673 17.5977 1.96067 17.3039 2.01943L7.30388 4.01943C6.83646 4.11291 6.5 4.52333 6.5 5.00001V14.1138C6.18722 14.0401 5.85064 14 5.5 14C3.84315 14 2.5 14.8954 2.5 16C2.5 17.1046 3.84315 18 5.5 18C7.15685 18 8.49999 17.1046 8.5 16V7.81981L16.5 6.21981V12.1138C16.1872 12.0401 15.8506 12 15.5 12C13.8431 12 12.5 12.8954 12.5 14C12.5 15.1046 13.8431 16 15.5 16C17.1569 16 18.5 15.1046 18.5 14V3.00001Z" fill="#424242"/>
</svg>
