<svg width="21" height="20" viewBox="0 0 21 20" fill="none" xmlns="http://www.w3.org/2000/svg">
<path fill-rule="evenodd" clip-rule="evenodd" d="M4.5 4C4.5 2.89543 5.39543 2 6.5 2H14.5C15.6046 2 16.5 2.89543 16.5 4V16C17.0523 16 17.5 16.4477 17.5 17C17.5 17.5523 17.0523 18 16.5 18H13.5C12.9477 18 12.5 17.5523 12.5 17V15C12.5 14.4477 12.0523 14 11.5 14H9.5C8.94772 14 8.5 14.4477 8.5 15V17C8.5 17.5523 8.05228 18 7.5 18H4.5C3.94772 18 3.5 17.5523 3.5 17C3.5 16.4477 3.94772 16 4.5 16V4ZM7.5 5H9.5V7H7.5V5ZM9.5 9H7.5V11H9.5V9ZM11.5 5H13.5V7H11.5V5ZM13.5 9H11.5V11H13.5V9Z" fill="#424242"/>
</svg>
