<svg width="21" height="20" viewBox="0 0 21 20" fill="none" xmlns="http://www.w3.org/2000/svg">
<path d="M11.3944 2.55279C11.225 2.214 10.8788 2 10.5 2C10.1212 2 9.77498 2.214 9.60558 2.55279L2.60558 16.5528C2.42823 16.9075 2.47724 17.3335 2.7305 17.6386C2.98376 17.9438 3.39342 18.0705 3.77473 17.9615L8.77472 16.533C9.20402 16.4103 9.5 16.0179 9.5 15.5714V11C9.5 10.4477 9.94772 10 10.5 10C11.0523 10 11.5 10.4477 11.5 11V15.5714C11.5 16.0179 11.796 16.4103 12.2253 16.533L17.2253 17.9615C17.6066 18.0705 18.0163 17.9438 18.2695 17.6386C18.5228 17.3335 18.5718 16.9075 18.3944 16.5528L11.3944 2.55279Z" fill="#424242"/>
</svg>
