<svg width="21" height="20" viewBox="0 0 21 20" fill="none" xmlns="http://www.w3.org/2000/svg">
<path fill-rule="evenodd" clip-rule="evenodd" d="M8.5 4C6.84315 4 5.5 5.34315 5.5 7V11C5.5 13.7614 7.73858 16 10.5 16C13.2614 16 15.5 13.7614 15.5 11V7C15.5 6.44772 15.9477 6 16.5 6C17.0523 6 17.5 6.44772 17.5 7V11C17.5 14.866 14.366 18 10.5 18C6.63401 18 3.5 14.866 3.5 11V7C3.5 4.23858 5.73858 2 8.5 2C11.2614 2 13.5 4.23858 13.5 7V11C13.5 12.6569 12.1569 14 10.5 14C8.84315 14 7.5 12.6569 7.5 11V7C7.5 6.44772 7.94772 6 8.5 6C9.05228 6 9.5 6.44772 9.5 7V11C9.5 11.5523 9.94772 12 10.5 12C11.0523 12 11.5 11.5523 11.5 11V7C11.5 5.34315 10.1569 4 8.5 4Z" fill="#424242"/>
</svg>
