<svg width="21" height="20" viewBox="0 0 21 20" fill="none" xmlns="http://www.w3.org/2000/svg">
<path fill-rule="evenodd" clip-rule="evenodd" d="M18.5 10C18.5 14.4183 14.9183 18 10.5 18C6.08172 18 2.5 14.4183 2.5 10C2.5 5.58172 6.08172 2 10.5 2C14.9183 2 18.5 5.58172 18.5 10ZM7.5 8C7.5 7.44772 7.94772 7 8.5 7C9.05228 7 9.5 7.44772 9.5 8V12C9.5 12.5523 9.05228 13 8.5 13C7.94772 13 7.5 12.5523 7.5 12V8ZM12.5 7C11.9477 7 11.5 7.44772 11.5 8V12C11.5 12.5523 11.9477 13 12.5 13C13.0523 13 13.5 12.5523 13.5 12V8C13.5 7.44772 13.0523 7 12.5 7Z" fill="#424242"/>
</svg>
