<svg width="21" height="20" viewBox="0 0 21 20" fill="none" xmlns="http://www.w3.org/2000/svg">
<path d="M17.9142 2.58579C17.1332 1.80474 15.8668 1.80474 15.0858 2.58579L7.5 10.1716V13H10.3284L17.9142 5.41421C18.6953 4.63316 18.6953 3.36683 17.9142 2.58579Z" fill="#424242"/>
<path fill-rule="evenodd" clip-rule="evenodd" d="M2.5 6C2.5 4.89543 3.39543 4 4.5 4H8.5C9.05228 4 9.5 4.44772 9.5 5C9.5 5.55228 9.05228 6 8.5 6H4.5V16H14.5V12C14.5 11.4477 14.9477 11 15.5 11C16.0523 11 16.5 11.4477 16.5 12V16C16.5 17.1046 15.6046 18 14.5 18H4.5C3.39543 18 2.5 17.1046 2.5 16V6Z" fill="#424242"/>
</svg>
