<svg width="21" height="20" viewBox="0 0 21 20" fill="none" xmlns="http://www.w3.org/2000/svg">
<path d="M18.4241 2.61722C18.3757 2.50014 18.304 2.3904 18.2092 2.29502C18.2078 2.2936 18.2064 2.29219 18.205 2.29078C18.0242 2.11106 17.7751 2 17.5 2H13.5C12.9477 2 12.5 2.44772 12.5 3C12.5 3.55228 12.9477 4 13.5 4H15.0858L11.7929 7.29289C11.4024 7.68342 11.4024 8.31658 11.7929 8.70711C12.1834 9.09763 12.8166 9.09763 13.2071 8.70711L16.5 5.41421V7C16.5 7.55228 16.9477 8 17.5 8C18.0523 8 18.5 7.55228 18.5 7V3C18.5 2.86441 18.473 2.73512 18.4241 2.61722Z" fill="#424242"/>
<path d="M2.5 3C2.5 2.44772 2.94772 2 3.5 2H5.65287C6.14171 2 6.5589 2.35341 6.63927 2.8356L7.37858 7.27147C7.45075 7.70451 7.23206 8.13397 6.8394 8.3303L5.29126 9.10437C6.40756 11.8783 8.62168 14.0924 11.3956 15.2087L12.1697 13.6606C12.366 13.2679 12.7955 13.0492 13.2285 13.1214L17.6644 13.8607C18.1466 13.9411 18.5 14.3583 18.5 14.8471V17C18.5 17.5523 18.0523 18 17.5 18H15.5C8.3203 18 2.5 12.1797 2.5 5V3Z" fill="#424242"/>
</svg>
