<svg width="21" height="20" viewBox="0 0 21 20" fill="none" xmlns="http://www.w3.org/2000/svg">
<path d="M2.5 3C2.5 2.44772 2.94772 2 3.5 2H5.65287C6.14171 2 6.5589 2.35341 6.63927 2.8356L7.37858 7.27147C7.45075 7.70451 7.23206 8.13397 6.8394 8.3303L5.29126 9.10437C6.40756 11.8783 8.62168 14.0924 11.3956 15.2087L12.1697 13.6606C12.366 13.2679 12.7955 13.0492 13.2285 13.1214L17.6644 13.8607C18.1466 13.9411 18.5 14.3583 18.5 14.8471V17C18.5 17.5523 18.0523 18 17.5 18H15.5C8.3203 18 2.5 12.1797 2.5 5V3Z" fill="#424242"/>
<path d="M17.2071 3.29289C17.5976 3.68342 17.5976 4.31658 17.2071 4.70711L15.9142 6L17.2071 7.29289C17.5976 7.68342 17.5976 8.31658 17.2071 8.70711C16.8166 9.09763 16.1834 9.09763 15.7929 8.70711L14.5 7.41421L13.2071 8.70711C12.8166 9.09763 12.1834 9.09763 11.7929 8.70711C11.4024 8.31658 11.4024 7.68342 11.7929 7.29289L13.0858 6L11.7929 4.70711C11.4024 4.31658 11.4024 3.68342 11.7929 3.29289C12.1834 2.90237 12.8166 2.90237 13.2071 3.29289L14.5 4.58579L15.7929 3.29289C16.1834 2.90237 16.8166 2.90237 17.2071 3.29289Z" fill="#424242"/>
</svg>
