<svg width="21" height="20" viewBox="0 0 21 20" fill="none" xmlns="http://www.w3.org/2000/svg">
<path d="M2.5 3C2.5 2.44772 2.94772 2 3.5 2H5.65287C6.14171 2 6.5589 2.35341 6.63927 2.8356L7.37858 7.27147C7.45075 7.70451 7.23206 8.13397 6.8394 8.3303L5.29126 9.10437C6.40756 11.8783 8.62168 14.0924 11.3956 15.2087L12.1697 13.6606C12.366 13.2679 12.7955 13.0492 13.2285 13.1214L17.6644 13.8607C18.1466 13.9411 18.5 14.3583 18.5 14.8471V17C18.5 17.5523 18.0523 18 17.5 18H15.5C8.3203 18 2.5 12.1797 2.5 5V3Z" fill="#424242"/>
</svg>
