<svg width="21" height="20" viewBox="0 0 21 20" fill="none" xmlns="http://www.w3.org/2000/svg">
<path d="M14.9142 7L18.2071 3.70711C18.5976 3.31658 18.5976 2.68342 18.2071 2.29289C17.8166 1.90237 17.1834 1.90237 16.7929 2.29289L13.5 5.58579V4C13.5 3.44772 13.0523 3 12.5 3C11.9477 3 11.5 3.44772 11.5 4V7.99931C11.5 8.00031 11.5 8.002 11.5 8.003C11.5004 8.1375 11.5273 8.26575 11.5759 8.38278C11.6236 8.49805 11.6937 8.6062 11.7864 8.70055C11.7907 8.70494 11.7951 8.70929 11.7995 8.7136C11.8938 8.80626 12.002 8.87643 12.1172 8.92412C12.2351 8.97301 12.3644 9 12.5 9H16.5C17.0523 9 17.5 8.55228 17.5 8C17.5 7.44772 17.0523 7 16.5 7H14.9142Z" fill="#424242"/>
<path d="M2.5 3C2.5 2.44772 2.94772 2 3.5 2H5.65287C6.14171 2 6.5589 2.35341 6.63927 2.8356L7.37858 7.27147C7.45075 7.70451 7.23206 8.13397 6.8394 8.3303L5.29126 9.10437C6.40756 11.8783 8.62168 14.0924 11.3956 15.2087L12.1697 13.6606C12.366 13.2679 12.7955 13.0492 13.2285 13.1214L17.6644 13.8607C18.1466 13.9411 18.5 14.3583 18.5 14.8471V17C18.5 17.5523 18.0523 18 17.5 18H15.5C8.3203 18 2.5 12.1797 2.5 5V3Z" fill="#424242"/>
</svg>
