<svg width="21" height="20" viewBox="0 0 21 20" fill="none" xmlns="http://www.w3.org/2000/svg">
<path fill-rule="evenodd" clip-rule="evenodd" d="M10.5 18C14.9183 18 18.5 14.4183 18.5 10C18.5 5.58172 14.9183 2 10.5 2C6.08172 2 2.5 5.58172 2.5 10C2.5 14.4183 6.08172 18 10.5 18ZM10.0547 7.16795C9.74784 6.96338 9.3533 6.94431 9.02814 7.11833C8.70298 7.29235 8.5 7.63121 8.5 8V12C8.5 12.3688 8.70298 12.7077 9.02814 12.8817C9.3533 13.0557 9.74784 13.0366 10.0547 12.8321L13.0547 10.8321C13.3329 10.6466 13.5 10.3344 13.5 10C13.5 9.66565 13.3329 9.35342 13.0547 9.16795L10.0547 7.16795Z" fill="#424242"/>
</svg>
