<svg width="21" height="20" viewBox="0 0 21 20" fill="none" xmlns="http://www.w3.org/2000/svg">
<path fill-rule="evenodd" clip-rule="evenodd" d="M10.5 18C14.9183 18 18.5 14.4183 18.5 10C18.5 5.58172 14.9183 2 10.5 2C6.08172 2 2.5 5.58172 2.5 10C2.5 14.4183 6.08172 18 10.5 18ZM11.5 7C11.5 6.44772 11.0523 6 10.5 6C9.94772 6 9.5 6.44772 9.5 7V9H7.5C6.94772 9 6.5 9.44771 6.5 10C6.5 10.5523 6.94772 11 7.5 11H9.5V13C9.5 13.5523 9.94772 14 10.5 14C11.0523 14 11.5 13.5523 11.5 13V11H13.5C14.0523 11 14.5 10.5523 14.5 10C14.5 9.44772 14.0523 9 13.5 9H11.5V7Z" fill="#424242"/>
</svg>
