<svg width="21" height="20" viewBox="0 0 21 20" fill="none" xmlns="http://www.w3.org/2000/svg">
<path fill-rule="evenodd" clip-rule="evenodd" d="M3.5 3C2.94772 3 2.5 3.44772 2.5 4C2.5 4.55228 2.94772 5 3.5 5V13C3.5 14.1046 4.39543 15 5.5 15H8.08579L6.79289 16.2929C6.40237 16.6834 6.40237 17.3166 6.79289 17.7071C7.18342 18.0976 7.81658 18.0976 8.20711 17.7071L10.5 15.4142L12.7929 17.7071C13.1834 18.0976 13.8166 18.0976 14.2071 17.7071C14.5976 17.3166 14.5976 16.6834 14.2071 16.2929L12.9142 15H15.5C16.6046 15 17.5 14.1046 17.5 13V5C18.0523 5 18.5 4.55228 18.5 4C18.5 3.44772 18.0523 3 17.5 3H3.5ZM14.5 7C14.5 6.44772 14.0523 6 13.5 6C12.9477 6 12.5 6.44772 12.5 7V11C12.5 11.5523 12.9477 12 13.5 12C14.0523 12 14.5 11.5523 14.5 11V7ZM11.5 8C11.5 7.44772 11.0523 7 10.5 7C9.94772 7 9.5 7.44772 9.5 8V11C9.5 11.5523 9.94772 12 10.5 12C11.0523 12 11.5 11.5523 11.5 11V8ZM8.5 9C8.5 8.44772 8.05228 8 7.5 8C6.94772 8 6.5 8.44772 6.5 9V11C6.5 11.5523 6.94772 12 7.5 12C8.05228 12 8.5 11.5523 8.5 11V9Z" fill="#424242"/>
</svg>
