<svg width="21" height="20" viewBox="0 0 21 20" fill="none" xmlns="http://www.w3.org/2000/svg">
<path fill-rule="evenodd" clip-rule="evenodd" d="M3.5 3C2.94772 3 2.5 3.44772 2.5 4C2.5 4.55228 2.94772 5 3.5 5V13C3.5 14.1046 4.39543 15 5.5 15H8.08579L6.79289 16.2929C6.40237 16.6834 6.40237 17.3166 6.79289 17.7071C7.18342 18.0976 7.81658 18.0976 8.20711 17.7071L10.5 15.4142L12.7929 17.7071C13.1834 18.0976 13.8166 18.0976 14.2071 17.7071C14.5976 17.3166 14.5976 16.6834 14.2071 16.2929L12.9142 15H15.5C16.6046 15 17.5 14.1046 17.5 13V5C18.0523 5 18.5 4.55228 18.5 4C18.5 3.44772 18.0523 3 17.5 3H3.5ZM15.2071 7.70711C15.5976 7.31658 15.5976 6.68342 15.2071 6.29289C14.8166 5.90237 14.1834 5.90237 13.7929 6.29289L10.5 9.58579L9.20711 8.29289C8.81658 7.90237 8.18342 7.90237 7.79289 8.29289L5.79289 10.2929C5.40237 10.6834 5.40237 11.3166 5.79289 11.7071C6.18342 12.0976 6.81658 12.0976 7.20711 11.7071L8.5 10.4142L9.79289 11.7071C10.1834 12.0976 10.8166 12.0976 11.2071 11.7071L15.2071 7.70711Z" fill="#424242"/>
</svg>
