<svg width="21" height="20" viewBox="0 0 21 20" fill="none" xmlns="http://www.w3.org/2000/svg">
<path fill-rule="evenodd" clip-rule="evenodd" d="M5.5 4V7H4.5C3.39543 7 2.5 7.89543 2.5 9V12C2.5 13.1046 3.39543 14 4.5 14H5.5V16C5.5 17.1046 6.39543 18 7.5 18H13.5C14.6046 18 15.5 17.1046 15.5 16V14H16.5C17.6046 14 18.5 13.1046 18.5 12V9C18.5 7.89543 17.6046 7 16.5 7H15.5V4C15.5 2.89543 14.6046 2 13.5 2H7.5C6.39543 2 5.5 2.89543 5.5 4ZM13.5 4H7.5V7H13.5V4ZM13.5 12H7.5V16H13.5V12Z" fill="#424242"/>
</svg>
