<svg width="21" height="20" viewBox="0 0 21 20" fill="none" xmlns="http://www.w3.org/2000/svg">
<path d="M10.5 3.5C10.5 2.67157 11.1716 2 12 2C12.8284 2 13.5 2.67157 13.5 3.5V4C13.5 4.55228 13.9477 5 14.5 5H17.5C18.0523 5 18.5 5.44772 18.5 6V9C18.5 9.55228 18.0523 10 17.5 10H17C16.1716 10 15.5 10.6716 15.5 11.5C15.5 12.3284 16.1716 13 17 13H17.5C18.0523 13 18.5 13.4477 18.5 14V17C18.5 17.5523 18.0523 18 17.5 18H14.5C13.9477 18 13.5 17.5523 13.5 17V16.5C13.5 15.6716 12.8284 15 12 15C11.1716 15 10.5 15.6716 10.5 16.5V17C10.5 17.5523 10.0523 18 9.5 18H6.5C5.94772 18 5.5 17.5523 5.5 17V14C5.5 13.4477 5.05228 13 4.5 13H4C3.17157 13 2.5 12.3284 2.5 11.5C2.5 10.6716 3.17157 10 4 10H4.5C5.05228 10 5.5 9.55228 5.5 9V6C5.5 5.44772 5.94772 5 6.5 5H9.5C10.0523 5 10.5 4.55228 10.5 4V3.5Z" fill="#424242"/>
</svg>
