<svg width="21" height="20" viewBox="0 0 21 20" fill="none" xmlns="http://www.w3.org/2000/svg">
<path fill-rule="evenodd" clip-rule="evenodd" d="M3.5 4C3.5 3.44772 3.94772 3 4.5 3H7.5C8.05228 3 8.5 3.44772 8.5 4V7C8.5 7.55228 8.05228 8 7.5 8H4.5C3.94772 8 3.5 7.55228 3.5 7V4ZM5.5 6V5H6.5V6H5.5Z" fill="#424242"/>
<path fill-rule="evenodd" clip-rule="evenodd" d="M3.5 13C3.5 12.4477 3.94772 12 4.5 12H7.5C8.05228 12 8.5 12.4477 8.5 13V16C8.5 16.5523 8.05228 17 7.5 17H4.5C3.94772 17 3.5 16.5523 3.5 16V13ZM5.5 15V14H6.5V15H5.5Z" fill="#424242"/>
<path fill-rule="evenodd" clip-rule="evenodd" d="M13.5 3C12.9477 3 12.5 3.44772 12.5 4V7C12.5 7.55228 12.9477 8 13.5 8H16.5C17.0523 8 17.5 7.55228 17.5 7V4C17.5 3.44772 17.0523 3 16.5 3H13.5ZM14.5 5V6H15.5V5H14.5Z" fill="#424242"/>
<path d="M11.5 4C11.5 3.44772 11.0523 3 10.5 3C9.94772 3 9.5 3.44772 9.5 4V5C9.5 5.55228 9.94772 6 10.5 6C11.0523 6 11.5 5.55228 11.5 5V4Z" fill="#424242"/>
<path d="M10.5 7C11.0523 7 11.5 7.44772 11.5 8V9H13.5C14.0523 9 14.5 9.44772 14.5 10C14.5 10.5523 14.0523 11 13.5 11H10.5C9.94772 11 9.5 10.5523 9.5 10V8C9.5 7.44772 9.94772 7 10.5 7Z" fill="#424242"/>
<path d="M16.5 9C15.9477 9 15.5 9.44772 15.5 10C15.5 10.5523 15.9477 11 16.5 11C17.0523 11 17.5 10.5523 17.5 10C17.5 9.44772 17.0523 9 16.5 9Z" fill="#424242"/>
<path d="M9.5 13C9.5 12.4477 9.94772 12 10.5 12H11.5C12.0523 12 12.5 12.4477 12.5 13C12.5 13.5523 12.0523 14 11.5 14V16C11.5 16.5523 11.0523 17 10.5 17C9.94772 17 9.5 16.5523 9.5 16V13Z" fill="#424242"/>
<path d="M7.5 11C8.05228 11 8.5 10.5523 8.5 10C8.5 9.44772 8.05228 9 7.5 9H4.5C3.94772 9 3.5 9.44771 3.5 10C3.5 10.5523 3.94772 11 4.5 11H7.5Z" fill="#424242"/>
<path d="M17.5 13C17.5 13.5523 17.0523 14 16.5 14H14.5C13.9477 14 13.5 13.5523 13.5 13C13.5 12.4477 13.9477 12 14.5 12H16.5C17.0523 12 17.5 12.4477 17.5 13Z" fill="#424242"/>
<path d="M16.5 17C17.0523 17 17.5 16.5523 17.5 16C17.5 15.4477 17.0523 15 16.5 15H13.5C12.9477 15 12.5 15.4477 12.5 16C12.5 16.5523 12.9477 17 13.5 17H16.5Z" fill="#424242"/>
</svg>
