<svg width="21" height="20" viewBox="0 0 21 20" fill="none" xmlns="http://www.w3.org/2000/svg">
<path fill-rule="evenodd" clip-rule="evenodd" d="M18.5 10C18.5 14.4183 14.9183 18 10.5 18C6.08172 18 2.5 14.4183 2.5 10C2.5 5.58172 6.08172 2 10.5 2C14.9183 2 18.5 5.58172 18.5 10ZM10.5 7C10.1311 7 9.8076 7.19922 9.63318 7.50073C9.35664 7.97879 8.74491 8.14215 8.26685 7.86561C7.78879 7.58906 7.62543 6.97733 7.90197 6.49927C8.41918 5.60518 9.38833 5 10.5 5C12.1569 5 13.5 6.34315 13.5 8C13.5 9.30622 12.6652 10.4175 11.5 10.8293V11C11.5 11.5523 11.0523 12 10.5 12C9.94773 12 9.50001 11.5523 9.50001 11V10C9.50001 9.44772 9.94773 9 10.5 9C11.0523 9 11.5 8.55228 11.5 8C11.5 7.44772 11.0523 7 10.5 7ZM10.5 15C11.0523 15 11.5 14.5523 11.5 14C11.5 13.4477 11.0523 13 10.5 13C9.94772 13 9.5 13.4477 9.5 14C9.5 14.5523 9.94772 15 10.5 15Z" fill="#424242"/>
</svg>
