<svg width="21" height="20" viewBox="0 0 21 20" fill="#fff" xmlns="http://www.w3.org/2000/svg">
<path fill-rule="evenodd" clip-rule="evenodd" d="M5.5 2C4.39543 2 3.5 2.89543 3.5 4V18L7 16L10.5 18L14 16L17.5 18V4C17.5 2.89543 16.6046 2 15.5 2H5.5ZM8 5C7.17157 5 6.5 5.67157 6.5 6.5C6.5 7.32843 7.17157 8 8 8C8.82843 8 9.5 7.32843 9.5 6.5C9.5 5.67157 8.82843 5 8 5ZM14.2071 5.29289C13.8166 4.90237 13.1834 4.90237 12.7929 5.29289L6.79289 11.2929C6.40237 11.6834 6.40237 12.3166 6.79289 12.7071C7.18342 13.0976 7.81658 13.0976 8.20711 12.7071L14.2071 6.70711C14.5976 6.31658 14.5976 5.68342 14.2071 5.29289ZM13 10C12.1716 10 11.5 10.6716 11.5 11.5C11.5 12.3284 12.1716 13 13 13C13.8284 13 14.5 12.3284 14.5 11.5C14.5 10.6716 13.8284 10 13 10Z" fill="#424242"/>
</svg>
