<svg width="21" height="20" viewBox="0 0 21 20" fill="none" xmlns="http://www.w3.org/2000/svg">
<path fill-rule="evenodd" clip-rule="evenodd" d="M5.5 2C4.39543 2 3.5 2.89543 3.5 4V18L7 16L10.5 18L14 16L17.5 18V4C17.5 2.89543 16.6046 2 15.5 2H5.5ZM10.2071 5.70711C10.5976 5.31658 10.5976 4.68342 10.2071 4.29289C9.81658 3.90237 9.18342 3.90237 8.79289 4.29289L5.79289 7.29289C5.40237 7.68342 5.40237 8.31658 5.79289 8.70711L8.79289 11.7071C9.18342 12.0976 9.81658 12.0976 10.2071 11.7071C10.5976 11.3166 10.5976 10.6834 10.2071 10.2929L8.91421 9H10.5C12.1569 9 13.5 10.3431 13.5 12V13C13.5 13.5523 13.9477 14 14.5 14C15.0523 14 15.5 13.5523 15.5 13V12C15.5 9.23858 13.2614 7 10.5 7H8.91421L10.2071 5.70711Z" fill="#424242"/>
</svg>
