<svg width="21" height="20" viewBox="0 0 21 20" fill="none" xmlns="http://www.w3.org/2000/svg">
<path fill-rule="evenodd" clip-rule="evenodd" d="M4.5 2C5.05228 2 5.5 2.44772 5.5 3V5.10125C6.77009 3.80489 8.54052 3 10.5 3C13.5494 3 16.141 4.94932 17.1014 7.66675C17.2855 8.18747 17.0126 8.75879 16.4918 8.94284C15.9711 9.12689 15.3998 8.85396 15.2157 8.33325C14.5289 6.38991 12.6755 5 10.5 5C8.86507 5 7.41204 5.78502 6.49935 7H9.5C10.0523 7 10.5 7.44772 10.5 8C10.5 8.55228 10.0523 9 9.5 9H4.5C3.94772 9 3.5 8.55228 3.5 8V3C3.5 2.44772 3.94772 2 4.5 2ZM4.50817 11.0572C5.02888 10.8731 5.6002 11.146 5.78425 11.6668C6.47112 13.6101 8.32453 15 10.5 15C12.1349 15 13.588 14.215 14.5006 13L11.5 13C10.9477 13 10.5 12.5523 10.5 12C10.5 11.4477 10.9477 11 11.5 11H16.5C16.7652 11 17.0196 11.1054 17.2071 11.2929C17.3946 11.4804 17.5 11.7348 17.5 12V17C17.5 17.5523 17.0523 18 16.5 18C15.9477 18 15.5 17.5523 15.5 17V14.8987C14.2299 16.1951 12.4595 17 10.5 17C7.45059 17 4.85905 15.0507 3.89857 12.3332C3.71452 11.8125 3.98745 11.2412 4.50817 11.0572Z" fill="#424242"/>
</svg>
