<svg width="21" height="20" viewBox="0 0 21 20" fill="none" xmlns="http://www.w3.org/2000/svg">
<path fill-rule="evenodd" clip-rule="evenodd" d="M8.20711 3.29289C8.59763 3.68342 8.59763 4.31658 8.20711 4.70711L5.91421 7H11.5C15.366 7 18.5 10.134 18.5 14V16C18.5 16.5523 18.0523 17 17.5 17C16.9477 17 16.5 16.5523 16.5 16V14C16.5 11.2386 14.2614 9 11.5 9H5.91421L8.20711 11.2929C8.59763 11.6834 8.59763 12.3166 8.20711 12.7071C7.81658 13.0976 7.18342 13.0976 6.79289 12.7071L2.79289 8.70711C2.40237 8.31658 2.40237 7.68342 2.79289 7.29289L6.79289 3.29289C7.18342 2.90237 7.81658 2.90237 8.20711 3.29289Z" fill="#424242"/>
</svg>
