<svg width="21" height="20" viewBox="0 0 21 20" fill="none" xmlns="http://www.w3.org/2000/svg">
<path d="M8.94523 14.8321C9.25208 15.0367 9.64663 15.0558 9.97179 14.8817C10.2969 14.7077 10.4999 14.3689 10.4999 14.0001L10.4999 11.2019L15.9452 14.8321C16.2521 15.0367 16.6466 15.0558 16.9718 14.8817C17.2969 14.7077 17.4999 14.3689 17.4999 14.0001V6.00006C17.4999 5.63127 17.2969 5.29241 16.9718 5.11839C16.6466 4.94437 16.2521 4.96344 15.9452 5.16801L10.4999 8.79821V6.00006C10.4999 5.63127 10.2969 5.29241 9.97179 5.11839C9.64663 4.94437 9.25208 4.96344 8.94523 5.16801L2.94523 9.16801C2.66703 9.35348 2.49993 9.66571 2.49993 10.0001C2.49993 10.3344 2.66703 10.6466 2.94523 10.8321L8.94523 14.8321Z" fill="#424242"/>
</svg>
