<svg width="21" height="20" viewBox="0 0 21 20" fill="none" xmlns="http://www.w3.org/2000/svg">
<path d="M5.5 3C4.94772 3 4.5 3.44772 4.5 4C4.5 4.55228 4.94772 5 5.5 5C11.0228 5 15.5 9.47715 15.5 15C15.5 15.5523 15.9477 16 16.5 16C17.0523 16 17.5 15.5523 17.5 15C17.5 8.37258 12.1274 3 5.5 3Z" fill="#424242"/>
<path d="M4.5 9C4.5 8.44772 4.94772 8 5.5 8C9.36599 8 12.5 11.134 12.5 15C12.5 15.5523 12.0523 16 11.5 16C10.9477 16 10.5 15.5523 10.5 15C10.5 12.2386 8.26142 10 5.5 10C4.94772 10 4.5 9.55228 4.5 9Z" fill="#424242"/>
<path d="M3.5 15C3.5 13.8954 4.39543 13 5.5 13C6.60457 13 7.5 13.8954 7.5 15C7.5 16.1046 6.60457 17 5.5 17C4.39543 17 3.5 16.1046 3.5 15Z" fill="#424242"/>
</svg>
