<svg width="21" height="20" viewBox="0 0 21 20" fill="none" xmlns="http://www.w3.org/2000/svg">
<path d="M10.2071 7.29289C9.81658 6.90237 9.18342 6.90237 8.79289 7.29289C8.40237 7.68342 8.40237 8.31658 8.79289 8.70711L11.7929 11.7071C12.1834 12.0976 12.8166 12.0976 13.2071 11.7071L16.2071 8.70711C16.5976 8.31658 16.5976 7.68342 16.2071 7.29289C15.8166 6.90237 15.1834 6.90237 14.7929 7.29289L13.5 8.58579L13.5 5H16.5C17.6046 5 18.5 5.89543 18.5 7V12C18.5 13.1046 17.6046 14 16.5 14H8.5C7.39543 14 6.5 13.1046 6.5 12V7C6.5 5.89543 7.39543 5 8.5 5H11.5L11.5 8.58579L10.2071 7.29289Z" fill="#424242"/>
<path d="M11.5 3C11.5 2.44772 11.9477 2 12.5 2C13.0523 2 13.5 2.44772 13.5 3L13.5 5H11.5L11.5 3Z" fill="#424242"/>
<path d="M4.5 9C3.39543 9 2.5 9.89543 2.5 11V16C2.5 17.1046 3.39543 18 4.5 18H12.5C13.6046 18 14.5 17.1046 14.5 16H4.5V9Z" fill="#424242"/>
</svg>
