<svg width="21" height="20" viewBox="0 0 21 20" fill="none" xmlns="http://www.w3.org/2000/svg">
<path d="M8.20711 10.2929C7.81658 9.90237 7.18342 9.90237 6.79289 10.2929C6.40237 10.6834 6.40237 11.3166 6.79289 11.7071L9.79289 14.7071C10.1834 15.0976 10.8166 15.0976 11.2071 14.7071L14.2071 11.7071C14.5976 11.3166 14.5976 10.6834 14.2071 10.2929C13.8166 9.90237 13.1834 9.90237 12.7929 10.2929L11.5 11.5858L11.5 6H16.5C17.6046 6 18.5 6.89543 18.5 8V15C18.5 16.1046 17.6046 17 16.5 17H4.5C3.39543 17 2.5 16.1046 2.5 15V8C2.5 6.89543 3.39543 6 4.5 6H9.5L9.5 11.5858L8.20711 10.2929Z" fill="#424242"/>
<path d="M9.5 4C9.5 3.44772 9.94772 3 10.5 3C11.0523 3 11.5 3.44772 11.5 4L11.5 6H9.5L9.5 4Z" fill="#424242"/>
</svg>
