<svg width="21" height="20" viewBox="0 0 21 20" fill="none" xmlns="http://www.w3.org/2000/svg">
<path fill-rule="evenodd" clip-rule="evenodd" d="M10.5 2C11.0523 2 11.5 2.44772 11.5 3V4.32297L15.4544 5.90474L17.0528 5.10557C17.5468 4.85858 18.1474 5.05881 18.3944 5.55279C18.6414 6.04676 18.4412 6.64744 17.9472 6.89443L16.7141 7.51101L18.4522 12.9307C18.5728 13.3065 18.461 13.718 18.1669 13.9812C17.4599 14.614 16.5238 15 15.5 15C14.4762 15 13.5401 14.614 12.8331 13.9812C12.539 13.718 12.4273 13.3065 12.5478 12.9307L14.2631 7.58227L11.5 6.47703V16H13.5C14.0523 16 14.5 16.4477 14.5 17C14.5 17.5523 14.0523 18 13.5 18H7.50001C6.94772 18 6.50001 17.5523 6.50001 17C6.50001 16.4477 6.94772 16 7.50001 16H9.50001V6.47703L6.73692 7.58227L8.45223 12.9307C8.57276 13.3065 8.46099 13.718 8.16692 13.9812C7.45991 14.614 6.52384 15 5.50001 15C4.47617 15 3.5401 14.614 2.83309 13.9812C2.53902 13.718 2.42726 13.3065 2.54778 12.9307L4.28595 7.51101L3.05279 6.89443C2.55881 6.64744 2.35859 6.04676 2.60558 5.55279C2.85257 5.05881 3.45324 4.85858 3.94722 5.10557L5.54556 5.90474L9.50001 4.32297V3C9.50001 2.44772 9.94772 2 10.5 2ZM5.50001 10.2745L4.68177 12.8258C4.93135 12.9378 5.20804 13 5.50001 13C5.79198 13 6.06866 12.9378 6.31824 12.8258L5.50001 10.2745ZM15.5 10.2745L14.6818 12.8258C14.9314 12.9378 15.208 13 15.5 13C15.792 13 16.0687 12.9378 16.3182 12.8258L15.5 10.2745Z" fill="#424242"/>
</svg>
