<svg width="21" height="20" viewBox="0 0 21 20" fill="none" xmlns="http://www.w3.org/2000/svg">
<path fill-rule="evenodd" clip-rule="evenodd" d="M6 2C4.067 2 2.5 3.567 2.5 5.5C2.5 7.433 4.067 9 6 9C6.60276 9 7.16993 8.84763 7.6651 8.57931L9.08582 10L7.66515 11.4207C7.16997 11.1524 6.60278 11 6 11C4.067 11 2.5 12.567 2.5 14.5C2.5 16.433 4.067 18 6 18C7.933 18 9.5 16.433 9.5 14.5C9.5 13.8973 9.34764 13.3301 9.07934 12.835L17.2072 4.70711C17.5977 4.31658 17.5977 3.68342 17.2072 3.29289C16.8167 2.90237 16.1835 2.90237 15.793 3.29289L10.5 8.58582L9.07931 7.1651C9.34763 6.66993 9.5 6.10276 9.5 5.5C9.5 3.567 7.933 2 6 2ZM4.5 5.5C4.5 4.67157 5.17157 4 6 4C6.82843 4 7.5 4.67157 7.5 5.5C7.5 6.32843 6.82843 7 6 7C5.17157 7 4.5 6.32843 4.5 5.5ZM4.5 14.5C4.5 13.6716 5.17157 13 6 13C6.82843 13 7.5 13.6716 7.5 14.5C7.5 15.3284 6.82843 16 6 16C5.17157 16 4.5 15.3284 4.5 14.5Z" fill="#424242"/>
<path d="M13.3284 11.4142C12.9379 11.0237 12.3047 11.0237 11.9142 11.4142C11.5237 11.8047 11.5237 12.4379 11.9142 12.8284L15.7929 16.7071C16.1834 17.0976 16.8166 17.0976 17.2071 16.7071C17.5976 16.3166 17.5976 15.6834 17.2071 15.2929L13.3284 11.4142Z" fill="#424242"/>
</svg>
