<svg width="21" height="20" viewBox="0 0 21 20" fill="none" xmlns="http://www.w3.org/2000/svg">
<path fill-rule="evenodd" clip-rule="evenodd" d="M8.5 4C6.29086 4 4.5 5.79086 4.5 8C4.5 10.2091 6.29086 12 8.5 12C10.7091 12 12.5 10.2091 12.5 8C12.5 5.79086 10.7091 4 8.5 4ZM2.5 8C2.5 4.68629 5.18629 2 8.5 2C11.8137 2 14.5 4.68629 14.5 8C14.5 9.29583 14.0892 10.4957 13.3907 11.4765L18.2071 16.2929C18.5976 16.6834 18.5976 17.3166 18.2071 17.7071C17.8166 18.0976 17.1834 18.0976 16.7929 17.7071L11.9765 12.8907C10.9957 13.5892 9.79583 14 8.5 14C5.18629 14 2.5 11.3137 2.5 8Z" fill="#424242"/>
</svg>
