<svg width="21" height="20" viewBox="0 0 21 20" fill="none" xmlns="http://www.w3.org/2000/svg">
<path fill-rule="evenodd" clip-rule="evenodd" d="M10.5 3C10.7652 3 11.0196 3.10536 11.2071 3.29289L14.2071 6.29289C14.5976 6.68342 14.5976 7.31658 14.2071 7.70711C13.8166 8.09763 13.1834 8.09763 12.7929 7.70711L10.5 5.41421L8.20711 7.70711C7.81658 8.09763 7.18342 8.09763 6.79289 7.70711C6.40237 7.31658 6.40237 6.68342 6.79289 6.29289L9.79289 3.29289C9.98043 3.10536 10.2348 3 10.5 3ZM6.79289 12.2929C7.18342 11.9024 7.81658 11.9024 8.20711 12.2929L10.5 14.5858L12.7929 12.2929C13.1834 11.9024 13.8166 11.9024 14.2071 12.2929C14.5976 12.6834 14.5976 13.3166 14.2071 13.7071L11.2071 16.7071C10.8166 17.0976 10.1834 17.0976 9.79289 16.7071L6.79289 13.7071C6.40237 13.3166 6.40237 12.6834 6.79289 12.2929Z" fill="#424242"/>
</svg>
