<svg width="21" height="20" viewBox="0 0 21 20" fill="none" xmlns="http://www.w3.org/2000/svg">
<path fill-rule="evenodd" clip-rule="evenodd" d="M2.5 5C2.5 3.89543 3.39543 3 4.5 3H16.5C17.6046 3 18.5 3.89543 18.5 5V7C18.5 8.10457 17.6046 9 16.5 9H4.5C3.39543 9 2.5 8.10457 2.5 7V5ZM16.5 6C16.5 6.55228 16.0523 7 15.5 7C14.9477 7 14.5 6.55228 14.5 6C14.5 5.44772 14.9477 5 15.5 5C16.0523 5 16.5 5.44772 16.5 6Z" fill="#424242"/>
<path fill-rule="evenodd" clip-rule="evenodd" d="M2.5 13C2.5 11.8954 3.39543 11 4.5 11H16.5C17.6046 11 18.5 11.8954 18.5 13V15C18.5 16.1046 17.6046 17 16.5 17H4.5C3.39543 17 2.5 16.1046 2.5 15V13ZM16.5 14C16.5 14.5523 16.0523 15 15.5 15C14.9477 15 14.5 14.5523 14.5 14C14.5 13.4477 14.9477 13 15.5 13C16.0523 13 16.5 13.4477 16.5 14Z" fill="#424242"/>
</svg>
