<svg width="21" height="20" viewBox="0 0 21 20" fill="none" xmlns="http://www.w3.org/2000/svg">
<path fill-rule="evenodd" clip-rule="evenodd" d="M2.66611 4.99891C5.67437 4.95809 8.41528 3.81033 10.5 1.94446C12.5847 3.81033 15.3256 4.95809 18.3339 4.99891C18.4431 5.64968 18.5 6.31821 18.5 7.00003C18.5 12.2249 15.1608 16.6698 10.5 18.3172C5.83923 16.6698 2.5 12.2249 2.5 7.00003C2.5 6.31821 2.55686 5.64968 2.66611 4.99891ZM14.2071 8.70711C14.5976 8.31658 14.5976 7.68342 14.2071 7.29289C13.8166 6.90237 13.1834 6.90237 12.7929 7.29289L9.5 10.5858L8.20711 9.29289C7.81658 8.90237 7.18342 8.90237 6.79289 9.29289C6.40237 9.68342 6.40237 10.3166 6.79289 10.7071L8.79289 12.7071C9.18342 13.0976 9.81658 13.0976 10.2071 12.7071L14.2071 8.70711Z" fill="#424242"/>
</svg>
