<svg width="21" height="20" viewBox="0 0 21 20" fill="none" xmlns="http://www.w3.org/2000/svg">
<path fill-rule="evenodd" clip-rule="evenodd" d="M10.5 1.94446C8.41528 3.81033 5.67437 4.95809 2.66611 4.99891C2.55686 5.64968 2.5 6.31821 2.5 7.00003C2.5 12.2249 5.83923 16.6698 10.5 18.3172C15.1608 16.6698 18.5 12.2249 18.5 7.00003C18.5 6.31821 18.4431 5.64968 18.3339 4.99891C15.3256 4.95809 12.5847 3.81033 10.5 1.94446ZM11.5 14C11.5 14.5523 11.0523 15 10.5 15C9.94772 15 9.5 14.5523 9.5 14C9.5 13.4477 9.94772 13 10.5 13C11.0523 13 11.5 13.4477 11.5 14ZM11.5 7C11.5 6.44772 11.0523 6 10.5 6C9.94772 6 9.5 6.44772 9.5 7V10C9.5 10.5523 9.94772 11 10.5 11C11.0523 11 11.5 10.5523 11.5 10V7Z" fill="#424242"/>
</svg>
