<svg width="21" height="20" viewBox="0 0 21 20" fill="none" xmlns="http://www.w3.org/2000/svg">
<path fill-rule="evenodd" clip-rule="evenodd" d="M10.5 2C8.29086 2 6.5 3.79086 6.5 6V7H5.5C4.99046 7 4.56239 7.38314 4.50612 7.88957L3.50612 16.8896C3.47471 17.1723 3.56518 17.455 3.75488 17.6669C3.94458 17.8789 4.21556 18 4.5 18H16.5C16.7844 18 17.0554 17.8789 17.2451 17.6669C17.4348 17.455 17.5253 17.1723 17.4939 16.8896L16.4939 7.88957C16.4376 7.38314 16.0096 7 15.5 7H14.5V6C14.5 3.79086 12.7091 2 10.5 2ZM12.5 7V6C12.5 4.89543 11.6046 4 10.5 4C9.39543 4 8.5 4.89543 8.5 6V7H12.5ZM6.5 10C6.5 9.44772 6.94772 9 7.5 9C8.05228 9 8.5 9.44772 8.5 10C8.5 10.5523 8.05228 11 7.5 11C6.94772 11 6.5 10.5523 6.5 10ZM13.5 9C12.9477 9 12.5 9.44772 12.5 10C12.5 10.5523 12.9477 11 13.5 11C14.0523 11 14.5 10.5523 14.5 10C14.5 9.44772 14.0523 9 13.5 9Z" fill="#424242"/>
</svg>
