<svg width="21" height="20" viewBox="0 0 21 20" fill="none" xmlns="http://www.w3.org/2000/svg">
<path d="M3.5 3C2.94772 3 2.5 3.44772 2.5 4C2.5 4.55228 2.94772 5 3.5 5H14.5C15.0523 5 15.5 4.55228 15.5 4C15.5 3.44772 15.0523 3 14.5 3H3.5Z" fill="#424242"/>
<path d="M3.5 7C2.94772 7 2.5 7.44772 2.5 8C2.5 8.55228 2.94772 9 3.5 9H8.5C9.05228 9 9.5 8.55228 9.5 8C9.5 7.44772 9.05228 7 8.5 7H3.5Z" fill="#424242"/>
<path d="M3.5 11C2.94772 11 2.5 11.4477 2.5 12C2.5 12.5523 2.94772 13 3.5 13H7.5C8.05228 13 8.5 12.5523 8.5 12C8.5 11.4477 8.05228 11 7.5 11H3.5Z" fill="#424242"/>
<path d="M13.5 16C13.5 16.5523 13.9477 17 14.5 17C15.0523 17 15.5 16.5523 15.5 16L15.5 10.4142L16.7929 11.7071C17.1834 12.0976 17.8166 12.0976 18.2071 11.7071C18.5976 11.3166 18.5976 10.6834 18.2071 10.2929L15.2071 7.29289C15.0196 7.10536 14.7652 7 14.5 7C14.2348 7 13.9804 7.10536 13.7929 7.29289L10.7929 10.2929C10.4024 10.6834 10.4024 11.3166 10.7929 11.7071C11.1834 12.0976 11.8166 12.0976 12.2071 11.7071L13.5 10.4142L13.5 16Z" fill="#424242"/>
</svg>
