<svg width="21" height="20" viewBox="0 0 21 20" fill="none" xmlns="http://www.w3.org/2000/svg">
<path d="M3.5 3C2.94772 3 2.5 3.44772 2.5 4C2.5 4.55228 2.94772 5 3.5 5H14.5C15.0523 5 15.5 4.55228 15.5 4C15.5 3.44772 15.0523 3 14.5 3H3.5Z" fill="#424242"/>
<path d="M3.5 7C2.94772 7 2.5 7.44772 2.5 8C2.5 8.55228 2.94772 9 3.5 9H10.5C11.0523 9 11.5 8.55228 11.5 8C11.5 7.44772 11.0523 7 10.5 7H3.5Z" fill="#424242"/>
<path d="M3.5 11C2.94772 11 2.5 11.4477 2.5 12C2.5 12.5523 2.94772 13 3.5 13H7.5C8.05228 13 8.5 12.5523 8.5 12C8.5 11.4477 8.05228 11 7.5 11H3.5Z" fill="#424242"/>
<path d="M15.5 8C15.5 7.44772 15.0523 7 14.5 7C13.9477 7 13.5 7.44771 13.5 8L13.5 13.5858L12.2071 12.2929C11.8166 11.9024 11.1834 11.9024 10.7929 12.2929C10.4024 12.6834 10.4024 13.3166 10.7929 13.7071L13.7929 16.7071C13.9804 16.8946 14.2348 17 14.5 17C14.7652 17 15.0196 16.8946 15.2071 16.7071L18.2071 13.7071C18.5976 13.3166 18.5976 12.6834 18.2071 12.2929C17.8166 11.9024 17.1834 11.9024 16.7929 12.2929L15.5 13.5858L15.5 8Z" fill="#424242"/>
</svg>
