<svg width="21" height="20" viewBox="0 0 21 20" fill="none" xmlns="http://www.w3.org/2000/svg">
<path d="M18.5 3C18.5 2.65342 18.3205 2.33156 18.0257 2.14935C17.7309 1.96714 17.3628 1.95058 17.0528 2.10557L9.26393 6H5.5C3.84315 6 2.5 7.34315 2.5 9C2.5 10.6569 3.84315 12 5.5 12H5.77925L7.55132 17.3162C7.68744 17.7246 8.06958 18 8.50001 18H9.50001C10.0523 18 10.5 17.5523 10.5 17V12.618L17.0528 15.8944C17.3628 16.0494 17.7309 16.0329 18.0257 15.8507C18.3205 15.6684 18.5 15.3466 18.5 15V3Z" fill="#424242"/>
</svg>
