<svg width="21" height="20" viewBox="0 0 21 20" fill="none" xmlns="http://www.w3.org/2000/svg">
<path d="M9.54896 3.92704C9.84831 3.00573 11.1517 3.00573 11.4511 3.92704L12.5206 7.21883C12.6545 7.63086 13.0385 7.90982 13.4717 7.90982H16.9329C17.9016 7.90982 18.3044 9.14943 17.5207 9.71883L14.7205 11.7533C14.37 12.0079 14.2234 12.4593 14.3572 12.8713L15.4268 16.1631C15.7262 17.0844 14.6717 17.8505 13.888 17.2811L11.0878 15.2467C10.7373 14.9921 10.2627 14.9921 9.91223 15.2467L7.11206 17.2811C6.32835 17.8505 5.27387 17.0844 5.57322 16.1631L6.64279 12.8713C6.77666 12.4593 6.63 12.0079 6.27952 11.7533L3.47935 9.71883C2.69563 9.14943 3.09841 7.90982 4.06713 7.90982H7.52833C7.96156 7.90982 8.34551 7.63086 8.47939 7.21883L9.54896 3.92704Z" fill="#424242"/>
</svg>
