<svg width="21" height="20" viewBox="0 0 21 20" fill="none" xmlns="http://www.w3.org/2000/svg">
<path d="M4.20711 2.29289C3.81658 1.90237 3.18342 1.90237 2.79289 2.29289C2.40237 2.68342 2.40237 3.31658 2.79289 3.70711L9.71426 10.6285C9.76325 10.6906 9.81947 10.7469 9.88164 10.7958L16.7929 17.7071C17.1834 18.0976 17.8166 18.0976 18.2071 17.7071C18.5976 17.3166 18.5976 16.6834 18.2071 16.2929L17.5323 15.6181C20.3626 12.0844 20.1398 6.91177 16.8641 3.63603C16.4736 3.24551 15.8404 3.24551 15.4499 3.63603C15.0593 4.02656 15.0593 4.65972 15.4499 5.05025C17.9435 7.54386 18.1625 11.4508 16.1068 14.1926L14.672 12.7578C15.9582 10.8164 15.7461 8.17494 14.0357 6.46446C13.6451 6.07394 13.012 6.07394 12.6214 6.46446C12.2309 6.85498 12.2309 7.48815 12.6214 7.87867C13.5451 8.80233 13.7406 10.1784 13.2078 11.2936L11.2164 9.30219C11.2103 9.29595 11.2042 9.28979 11.1979 9.2837L4.20711 2.29289Z" fill="#424242"/>
<path d="M3.73766 8.1865C3.88012 7.65291 3.56305 7.10485 3.02946 6.96239C2.49586 6.81992 1.94781 7.137 1.80535 7.67059C1.0045 10.6701 1.77982 14.0074 4.13615 16.3637C4.52667 16.7542 5.15984 16.7542 5.55036 16.3637C5.94089 15.9732 5.94089 15.34 5.55036 14.9495C3.71924 13.1184 3.1134 10.5246 3.73766 8.1865Z" fill="#424242"/>
<path d="M7.90075 11.4995C7.62434 11.0214 7.01266 10.8578 6.53452 11.1343C6.05639 11.4107 5.89285 12.0223 6.16926 12.5005C6.38367 12.8714 6.64907 13.2198 6.96458 13.5353C7.35511 13.9258 7.98827 13.9258 8.3788 13.5353C8.76932 13.1448 8.76932 12.5116 8.3788 12.1211C8.18771 11.93 8.02865 11.7208 7.90075 11.4995Z" fill="#424242"/>
</svg>
