<svg width="21" height="20" viewBox="0 0 21 20" fill="none" xmlns="http://www.w3.org/2000/svg">
<path fill-rule="evenodd" clip-rule="evenodd" d="M5.55036 3.63579C5.94088 4.02631 5.94088 4.65948 5.55036 5.05C2.81669 7.78367 2.81669 12.2158 5.55036 14.9495C5.94088 15.34 5.94088 15.9732 5.55036 16.3637C5.15983 16.7542 4.52667 16.7542 4.13615 16.3637C0.621427 12.849 0.621427 7.15051 4.13615 3.63579C4.52667 3.24526 5.15984 3.24526 5.55036 3.63579ZM15.4499 3.63602C15.8404 3.2455 16.4736 3.2455 16.8641 3.63602C20.3788 7.15074 20.3788 12.8492 16.8641 16.3639C16.4736 16.7545 15.8404 16.7545 15.4499 16.3639C15.0593 15.9734 15.0593 15.3403 15.4499 14.9497C18.1835 12.2161 18.1835 7.78391 15.4499 5.05023C15.0593 4.65971 15.0593 4.02655 15.4499 3.63602ZM8.37879 6.46422C8.76932 6.85474 8.76932 7.48791 8.37879 7.87843C7.20722 9.05 7.20722 10.9495 8.37879 12.1211C8.76932 12.5116 8.76932 13.1448 8.37879 13.5353C7.98827 13.9258 7.3551 13.9258 6.96458 13.5353C5.01196 11.5827 5.01196 8.41684 6.96458 6.46422C7.3551 6.07369 7.98827 6.07369 8.37879 6.46422ZM12.6214 6.46445C13.012 6.07392 13.6451 6.07392 14.0356 6.46445C15.9883 8.41707 15.9883 11.5829 14.0356 13.5355C13.6451 13.926 13.012 13.926 12.6214 13.5355C12.2309 13.145 12.2309 12.5118 12.6214 12.1213C13.793 10.9497 13.793 9.05023 12.6214 7.87866C12.2309 7.48814 12.2309 6.85497 12.6214 6.46445ZM10.5001 8.99998C11.0524 8.99998 11.5001 9.4477 11.5001 9.99998V10.01C11.5001 10.5623 11.0524 11.01 10.5001 11.01C9.94782 11.01 9.50011 10.5623 9.50011 10.01V9.99998C9.50011 9.4477 9.94782 8.99998 10.5001 8.99998Z" fill="#424242"/>
</svg>
