<svg width="21" height="20" viewBox="0 0 21 20" fill="none" xmlns="http://www.w3.org/2000/svg">
<path d="M10.5 2C11.0523 2 11.5 2.44772 11.5 3V4C11.5 4.55228 11.0523 5 10.5 5C9.94772 5 9.5 4.55228 9.5 4V3C9.5 2.44772 9.94772 2 10.5 2Z" fill="#424242"/>
<path d="M14.5 10C14.5 12.2091 12.7091 14 10.5 14C8.29086 14 6.5 12.2091 6.5 10C6.5 7.79086 8.29086 6 10.5 6C12.7091 6 14.5 7.79086 14.5 10Z" fill="#424242"/>
<path d="M14.0356 14.9497L14.7427 15.6568C15.1332 16.0473 15.7664 16.0473 16.1569 15.6568C16.5474 15.2663 16.5474 14.6331 16.1569 14.2426L15.4498 13.5355C15.0593 13.145 14.4261 13.145 14.0356 13.5355C13.6451 13.926 13.6451 14.5592 14.0356 14.9497Z" fill="#424242"/>
<path d="M16.1568 4.34309C16.5473 4.73362 16.5473 5.36678 16.1568 5.75731L15.4497 6.46441C15.0592 6.85494 14.426 6.85494 14.0355 6.46441C13.645 6.07389 13.645 5.44072 14.0355 5.0502L14.7426 4.34309C15.1331 3.95257 15.7663 3.95257 16.1568 4.34309Z" fill="#424242"/>
<path d="M17.5 11C18.0523 11 18.5 10.5523 18.5 10C18.5 9.44772 18.0523 9 17.5 9H16.5C15.9477 9 15.5 9.44772 15.5 10C15.5 10.5523 15.9477 11 16.5 11H17.5Z" fill="#424242"/>
<path d="M10.5 15C11.0523 15 11.5 15.4477 11.5 16V17C11.5 17.5523 11.0523 18 10.5 18C9.94772 18 9.5 17.5523 9.5 17V16C9.5 15.4477 9.94772 15 10.5 15Z" fill="#424242"/>
<path d="M5.55031 6.46443C5.94083 6.85496 6.574 6.85496 6.96452 6.46443C7.35505 6.07391 7.35505 5.44074 6.96452 5.05022L6.25742 4.34311C5.86689 3.95259 5.23373 3.95259 4.8432 4.34311C4.45268 4.73363 4.45268 5.3668 4.8432 5.75732L5.55031 6.46443Z" fill="#424242"/>
<path d="M6.96443 14.9497L6.25732 15.6568C5.8668 16.0473 5.23363 16.0473 4.84311 15.6568C4.45259 15.2663 4.45259 14.6331 4.84311 14.2426L5.55022 13.5355C5.94074 13.145 6.57391 13.145 6.96443 13.5355C7.35496 13.926 7.35496 14.5592 6.96443 14.9497Z" fill="#424242"/>
<path d="M4.5 11C5.05228 11 5.5 10.5523 5.5 10C5.5 9.44772 5.05228 9 4.5 9H3.5C2.94772 9 2.5 9.44772 2.5 10C2.5 10.5523 2.94772 11 3.5 11H4.5Z" fill="#424242"/>
</svg>
