<svg width="21" height="20" viewBox="0 0 21 20" fill="none" xmlns="http://www.w3.org/2000/svg">
<path fill-rule="evenodd" clip-rule="evenodd" d="M18.5 10C18.5 14.4183 14.9183 18 10.5 18C6.08172 18 2.5 14.4183 2.5 10C2.5 5.58172 6.08172 2 10.5 2C14.9183 2 18.5 5.58172 18.5 10ZM16.5 10C16.5 10.9926 16.259 11.9289 15.8322 12.7536L14.3076 11.229C14.4325 10.8418 14.5 10.4288 14.5 10C14.5 9.67136 14.4604 9.35198 14.3856 9.04638L15.9484 7.4836C16.3024 8.24889 16.5 9.10137 16.5 10ZM11.3346 13.9128L12.9156 15.4939C12.1766 15.8193 11.3594 16 10.5 16C9.60137 16 8.74889 15.8024 7.9836 15.4484L9.54638 13.8856C9.85198 13.9604 10.1714 14 10.5 14C10.7862 14 11.0654 13.9699 11.3346 13.9128ZM6.65807 11.1171C6.55516 10.7626 6.5 10.3877 6.5 10C6.5 9.66808 6.54043 9.3456 6.61663 9.03722L6.5378 9.11604L5.00611 7.58436C4.68068 8.32343 4.5 9.14061 4.5 10C4.5 10.9539 4.72258 11.8557 5.11864 12.6565L6.65807 11.1171ZM7.74639 4.66778C8.57107 4.24104 9.50739 4 10.5 4C11.4539 4 12.3557 4.22258 13.1565 4.61864L11.6171 6.15807C11.2626 6.05516 10.8877 6 10.5 6C10.0712 6 9.6582 6.06747 9.27097 6.19236L7.74639 4.66778ZM12.5 10C12.5 11.1046 11.6046 12 10.5 12C9.39543 12 8.5 11.1046 8.5 10C8.5 8.89543 9.39543 8 10.5 8C11.6046 8 12.5 8.89543 12.5 10Z" fill="#424242"/>
</svg>
