<svg width="21" height="20" viewBox="0 0 21 20" fill="none" xmlns="http://www.w3.org/2000/svg">
<path d="M5.5 12C5.5 12.5523 5.94771 13 6.5 13C7.05228 13 7.5 12.5523 7.5 12L7.5 6.41421L8.79289 7.70711C9.18342 8.09763 9.81658 8.09763 10.2071 7.70711C10.5976 7.31658 10.5976 6.68342 10.2071 6.29289L7.20711 3.29289C7.01957 3.10536 6.76522 3 6.5 3C6.23478 3 5.98043 3.10536 5.79289 3.29289L2.79289 6.29289C2.40237 6.68342 2.40237 7.31658 2.79289 7.70711C3.18342 8.09763 3.81658 8.09763 4.20711 7.70711L5.5 6.41421L5.5 12Z" fill="#424242"/>
<path d="M15.5 8C15.5 7.44772 15.0523 7 14.5 7C13.9477 7 13.5 7.44772 13.5 8L13.5 13.5858L12.2071 12.2929C11.8166 11.9024 11.1834 11.9024 10.7929 12.2929C10.4024 12.6834 10.4024 13.3166 10.7929 13.7071L13.7929 16.7071C13.9804 16.8946 14.2348 17 14.5 17C14.7652 17 15.0196 16.8946 15.2071 16.7071L18.2071 13.7071C18.5976 13.3166 18.5976 12.6834 18.2071 12.2929C17.8166 11.9024 17.1834 11.9024 16.7929 12.2929L15.5 13.5858L15.5 8Z" fill="#424242"/>
</svg>
