<svg width="21" height="20" viewBox="0 0 21 20" fill="none" xmlns="http://www.w3.org/2000/svg">
<path d="M8.5 5C7.94772 5 7.5 5.44771 7.5 6C7.5 6.55228 7.94772 7 8.5 7L14.0858 7L12.7929 8.29289C12.4024 8.68342 12.4024 9.31658 12.7929 9.70711C13.1834 10.0976 13.8166 10.0976 14.2071 9.70711L17.2071 6.70711C17.3946 6.51957 17.5 6.26522 17.5 6C17.5 5.73478 17.3946 5.48043 17.2071 5.29289L14.2071 2.29289C13.8166 1.90237 13.1834 1.90237 12.7929 2.29289C12.4024 2.68342 12.4024 3.31658 12.7929 3.70711L14.0858 5L8.5 5Z" fill="#424242"/>
<path d="M12.5 15C13.0523 15 13.5 14.5523 13.5 14C13.5 13.4477 13.0523 13 12.5 13L6.91421 13L8.20711 11.7071C8.59763 11.3166 8.59763 10.6834 8.20711 10.2929C7.81658 9.90237 7.18342 9.90237 6.79289 10.2929L3.79289 13.2929C3.60536 13.4804 3.5 13.7348 3.5 14C3.5 14.2652 3.60536 14.5196 3.79289 14.7071L6.79289 17.7071C7.18342 18.0976 7.81658 18.0976 8.20711 17.7071C8.59763 17.3166 8.59763 16.6834 8.20711 16.2929L6.91421 15L12.5 15Z" fill="#424242"/>
</svg>
