<svg width="21" height="20" viewBox="0 0 21 20" fill="none" xmlns="http://www.w3.org/2000/svg">
<path fill-rule="evenodd" clip-rule="evenodd" d="M6.5 2C5.39543 2 4.5 2.89543 4.5 4V16C4.5 17.1046 5.39543 18 6.5 18H14.5C15.6046 18 16.5 17.1046 16.5 16V4C16.5 2.89543 15.6046 2 14.5 2H6.5ZM7.5 4C6.94772 4 6.5 4.44772 6.5 5C6.5 5.55228 6.94772 6 7.5 6H13.5C14.0523 6 14.5 5.55228 14.5 5C14.5 4.44772 14.0523 4 13.5 4H7.5ZM13.5 11C14.0523 11 14.5 11.4477 14.5 12V15C14.5 15.5523 14.0523 16 13.5 16C12.9477 16 12.5 15.5523 12.5 15V12C12.5 11.4477 12.9477 11 13.5 11ZM10.5 14C9.94772 14 9.5 14.4477 9.5 15C9.5 15.5523 9.94772 16 10.5 16H10.51C11.0623 16 11.51 15.5523 11.51 15C11.51 14.4477 11.0623 14 10.51 14H10.5ZM6.5 15C6.5 14.4477 6.94772 14 7.5 14H7.51C8.06228 14 8.51 14.4477 8.51 15C8.51 15.5523 8.06228 16 7.51 16H7.5C6.94772 16 6.5 15.5523 6.5 15ZM7.5 11C6.94772 11 6.5 11.4477 6.5 12C6.5 12.5523 6.94772 13 7.5 13H7.51C8.06228 13 8.51 12.5523 8.51 12C8.51 11.4477 8.06228 11 7.51 11H7.5ZM9.5 12C9.5 11.4477 9.94772 11 10.5 11H10.51C11.0623 11 11.51 11.4477 11.51 12C11.51 12.5523 11.0623 13 10.51 13H10.5C9.94772 13 9.5 12.5523 9.5 12ZM13.5 8C12.9477 8 12.5 8.44772 12.5 9C12.5 9.55228 12.9477 10 13.5 10H13.51C14.0623 10 14.51 9.55228 14.51 9C14.51 8.44772 14.0623 8 13.51 8H13.5ZM9.5 9C9.5 8.44772 9.94772 8 10.5 8H10.51C11.0623 8 11.51 8.44772 11.51 9C11.51 9.55228 11.0623 10 10.51 10H10.5C9.94772 10 9.5 9.55228 9.5 9ZM7.5 8C6.94772 8 6.5 8.44772 6.5 9C6.5 9.55228 6.94772 10 7.5 10H7.51C8.06228 10 8.51 9.55228 8.51 9C8.51 8.44772 8.06228 8 7.51 8H7.5Z" fill="#424242"/>
</svg>
