<svg width="21" height="20" viewBox="0 0 21 20" fill="none" xmlns="http://www.w3.org/2000/svg">
<path fill-rule="evenodd" clip-rule="evenodd" d="M18.2071 9.29289C18.5976 9.68342 18.5976 10.3166 18.2071 10.7071L11.2071 17.7071C10.8166 18.0976 10.1834 18.0976 9.79289 17.7071L2.79289 10.7071C2.5976 10.5118 2.49997 10.2558 2.5 9.99988V5C2.5 3.34315 3.84315 2 5.5 2H10.5003C10.7561 2.00007 11.0119 2.0977 11.2071 2.29289L18.2071 9.29289ZM5.5 6C6.05228 6 6.5 5.55228 6.5 5C6.5 4.44772 6.05228 4 5.5 4C4.94772 4 4.5 4.44772 4.5 5C4.5 5.55228 4.94772 6 5.5 6Z" fill="#424242"/>
</svg>
