<svg width="21" height="20" viewBox="0 0 21 20" fill="none" xmlns="http://www.w3.org/2000/svg">
<path d="M3.5 4C3.5 3.44772 3.94772 3 4.5 3H16.5C17.0523 3 17.5 3.44772 17.5 4V6C17.5 6.55228 17.0523 7 16.5 7H4.5C3.94772 7 3.5 6.55228 3.5 6V4Z" fill="#424242"/>
<path d="M3.5 10C3.5 9.44771 3.94772 9 4.5 9H10.5C11.0523 9 11.5 9.44771 11.5 10V16C11.5 16.5523 11.0523 17 10.5 17H4.5C3.94772 17 3.5 16.5523 3.5 16V10Z" fill="#424242"/>
<path d="M14.5 9C13.9477 9 13.5 9.44771 13.5 10V16C13.5 16.5523 13.9477 17 14.5 17H16.5C17.0523 17 17.5 16.5523 17.5 16V10C17.5 9.44771 17.0523 9 16.5 9H14.5Z" fill="#424242"/>
</svg>
