<svg width="21" height="20" viewBox="0 0 21 20" fill="none" xmlns="http://www.w3.org/2000/svg">
<path fill-rule="evenodd" clip-rule="evenodd" d="M2.5 5C2.5 3.89543 3.39543 3 4.5 3H16.5C17.6046 3 18.5 3.89543 18.5 5V15C18.5 16.1046 17.6046 17 16.5 17H4.5C3.39543 17 2.5 16.1046 2.5 15V5ZM5.79289 6.29289C6.18342 5.90237 6.81658 5.90237 7.20711 6.29289L10.2071 9.29289C10.5976 9.68342 10.5976 10.3166 10.2071 10.7071L7.20711 13.7071C6.81658 14.0976 6.18342 14.0976 5.79289 13.7071C5.40237 13.3166 5.40237 12.6834 5.79289 12.2929L8.08579 10L5.79289 7.70711C5.40237 7.31658 5.40237 6.68342 5.79289 6.29289ZM11.5 12C10.9477 12 10.5 12.4477 10.5 13C10.5 13.5523 10.9477 14 11.5 14H14.5C15.0523 14 15.5 13.5523 15.5 13C15.5 12.4477 15.0523 12 14.5 12H11.5Z" fill="#424242"/>
</svg>
