<svg width="21" height="20" viewBox="0 0 21 20" fill="none" xmlns="http://www.w3.org/2000/svg">
<path d="M18.5 9.5C18.5 10.3284 17.8285 11 17 11C16.1716 11 15.5 10.3284 15.5 9.5V3.5C15.5 2.67157 16.1716 2 17 2C17.8285 2 18.5 2.67157 18.5 3.5V9.5Z" fill="#424242"/>
<path d="M14.5 9.66667V4.23607C14.5 3.47852 14.072 2.786 13.3945 2.44721L13.3446 2.42229C12.7892 2.14458 12.1767 2 11.5558 2L6.13964 2C5.18628 2 4.36545 2.67292 4.17848 3.60777L2.97848 9.60777C2.73097 10.8453 3.67755 12 4.93964 12H8.50004V16C8.50004 17.1046 9.39547 18 10.5 18C11.0523 18 11.5 17.5523 11.5 17V16.3333C11.5 15.4679 11.7807 14.6257 12.3 13.9333L13.7 12.0667C14.2193 11.3743 14.5 10.5321 14.5 9.66667Z" fill="#424242"/>
</svg>
