<svg width="21" height="20" viewBox="0 0 21 20" fill="none" xmlns="http://www.w3.org/2000/svg">
<path fill-rule="evenodd" clip-rule="evenodd" d="M7.5 2C8.05229 2 8.5 2.44772 8.5 3V4H9.23222C9.24399 3.99979 9.2558 3.99979 9.26764 4H11.5C12.0523 4 12.5 4.44772 12.5 5C12.5 5.55228 12.0523 6 11.5 6H10.078C9.71634 7.68748 9.13075 9.29154 8.35405 10.7796C8.64482 11.1338 8.94964 11.476 9.26766 11.8055C9.65124 12.2028 9.64007 12.8359 9.24271 13.2195C8.84536 13.603 8.2123 13.5919 7.82872 13.1945C7.63961 12.9986 7.45467 12.7987 7.27404 12.5948C6.38894 13.9101 5.34386 15.1084 4.16692 16.1618C3.75539 16.5301 3.12319 16.4951 2.75487 16.0836C2.38654 15.672 2.42156 15.0398 2.83309 14.6715C4.04618 13.5858 5.10213 12.3288 5.96309 10.9389C5.40662 10.1499 4.90867 9.31652 4.47557 8.44503C4.22979 7.95045 4.43148 7.35027 4.92606 7.10449C5.42063 6.8587 6.02082 7.06039 6.2666 7.55497C6.5002 8.02502 6.75495 8.48278 7.0296 8.92699C7.44699 7.99272 7.78246 7.01402 8.02697 6H3.5C2.94772 6 2.5 5.55228 2.5 5C2.5 4.44772 2.94772 4 3.5 4H6.5V3C6.5 2.44772 6.94772 2 7.5 2ZM13.5 8C13.8788 8 14.225 8.214 14.3944 8.55279L17.3854 14.5348C17.3919 14.5471 17.3981 14.5596 17.4041 14.5722L18.3944 16.5528C18.6414 17.0468 18.4412 17.6474 17.9472 17.8944C17.4532 18.1414 16.8526 17.9412 16.6056 17.4472L15.882 16H11.118L10.3944 17.4472C10.1474 17.9412 9.54677 18.1414 9.05279 17.8944C8.55881 17.6474 8.35859 17.0468 8.60557 16.5528L9.59588 14.5722C9.60186 14.5596 9.60809 14.5471 9.61457 14.5348L12.6056 8.55279C12.775 8.214 13.1212 8 13.5 8ZM12.118 14H14.882L13.5 11.2361L12.118 14Z" fill="#424242"/>
</svg>
