<svg width="21" height="20" viewBox="0 0 21 20" fill="none" xmlns="http://www.w3.org/2000/svg">
<path fill-rule="evenodd" clip-rule="evenodd" d="M12.5 7C11.9477 7 11.5 6.55228 11.5 6C11.5 5.44772 11.9477 5 12.5 5H17.5C18.0523 5 18.5 5.44772 18.5 6V11C18.5 11.5523 18.0523 12 17.5 12C16.9477 12 16.5 11.5523 16.5 11V8.41421L12.2071 12.7071C11.8166 13.0976 11.1834 13.0976 10.7929 12.7071L8.5 10.4142L4.20711 14.7071C3.81658 15.0976 3.18342 15.0976 2.79289 14.7071C2.40237 14.3166 2.40237 13.6834 2.79289 13.2929L7.79289 8.29289C8.18342 7.90237 8.81658 7.90237 9.20711 8.29289L11.5 10.5858L15.0858 7H12.5Z" fill="#424242"/>
</svg>
