<svg width="21" height="20" viewBox="0 0 21 20" fill="none" xmlns="http://www.w3.org/2000/svg">
<path fill-rule="evenodd" clip-rule="evenodd" d="M12.5 13C11.9477 13 11.5 13.4477 11.5 14C11.5 14.5523 11.9477 15 12.5 15H17.5C18.0523 15 18.5 14.5523 18.5 14V9C18.5 8.44772 18.0523 8 17.5 8C16.9477 8 16.5 8.44772 16.5 9V11.5858L12.2071 7.29289C11.8166 6.90237 11.1834 6.90237 10.7929 7.29289L8.5 9.58579L4.20711 5.29289C3.81658 4.90237 3.18342 4.90237 2.79289 5.29289C2.40237 5.68342 2.40237 6.31658 2.79289 6.70711L7.79289 11.7071C8.18342 12.0976 8.81658 12.0976 9.20711 11.7071L11.5 9.41421L15.0858 13H12.5Z" fill="#424242"/>
</svg>
