<svg width="21" height="20" viewBox="0 0 21 20" fill="none" xmlns="http://www.w3.org/2000/svg">
<path d="M8.5 16.5C8.5 17.3284 7.82843 18 7 18C6.17157 18 5.5 17.3284 5.5 16.5C5.5 15.6716 6.17157 15 7 15C7.82843 15 8.5 15.6716 8.5 16.5Z" fill="#424242"/>
<path d="M15.5 16.5C15.5 17.3284 14.8284 18 14 18C13.1716 18 12.5 17.3284 12.5 16.5C12.5 15.6716 13.1716 15 14 15C14.8284 15 15.5 15.6716 15.5 16.5Z" fill="#424242"/>
<path d="M3.5 4C2.94772 4 2.5 4.44772 2.5 5V15C2.5 15.5523 2.94772 16 3.5 16H4.55001C4.78164 14.8589 5.79052 14 7 14C8.20948 14 9.21836 14.8589 9.44999 16H10.5C11.0523 16 11.5 15.5523 11.5 15V5C11.5 4.44772 11.0523 4 10.5 4H3.5Z" fill="#424242"/>
<path d="M14.5 7C13.9477 7 13.5 7.44772 13.5 8V14.05C13.6616 14.0172 13.8288 14 14 14C15.2095 14 16.2184 14.8589 16.45 16H17.5C18.0523 16 18.5 15.5523 18.5 15V10C18.5 9.73478 18.3946 9.48043 18.2071 9.29289L16.2071 7.29289C16.0196 7.10536 15.7652 7 15.5 7H14.5Z" fill="#424242"/>
</svg>
