<svg width="21" height="20" viewBox="0 0 21 20" fill="none" xmlns="http://www.w3.org/2000/svg">
<path fill-rule="evenodd" clip-rule="evenodd" d="M3.5 17C3.5 16.4477 3.94772 16 4.5 16H16.5C17.0523 16 17.5 16.4477 17.5 17C17.5 17.5523 17.0523 18 16.5 18H4.5C3.94772 18 3.5 17.5523 3.5 17ZM6.79289 6.70711C6.40237 6.31658 6.40237 5.68342 6.79289 5.29289L9.79289 2.29289C9.98043 2.10536 10.2348 2 10.5 2C10.7652 2 11.0196 2.10536 11.2071 2.29289L14.2071 5.29289C14.5976 5.68342 14.5976 6.31658 14.2071 6.70711C13.8166 7.09763 13.1834 7.09763 12.7929 6.70711L11.5 5.41421L11.5 13C11.5 13.5523 11.0523 14 10.5 14C9.94771 14 9.5 13.5523 9.5 13L9.5 5.41421L8.20711 6.70711C7.81658 7.09763 7.18342 7.09763 6.79289 6.70711Z" fill="#424242"/>
</svg>
