<svg width="21" height="20" viewBox="0 0 21 20" fill="none" xmlns="http://www.w3.org/2000/svg">
<path d="M13.5 6C13.5 7.65685 12.1569 9 10.5 9C8.84315 9 7.5 7.65685 7.5 6C7.5 4.34315 8.84315 3 10.5 3C12.1569 3 13.5 4.34315 13.5 6Z" fill="#424242"/>
<path d="M18.5 8C18.5 9.10457 17.6046 10 16.5 10C15.3954 10 14.5 9.10457 14.5 8C14.5 6.89543 15.3954 6 16.5 6C17.6046 6 18.5 6.89543 18.5 8Z" fill="#424242"/>
<path d="M14.5 15C14.5 12.7909 12.7091 11 10.5 11C8.29086 11 6.5 12.7909 6.5 15V18H14.5V15Z" fill="#424242"/>
<path d="M6.5 8C6.5 9.10457 5.60457 10 4.5 10C3.39543 10 2.5 9.10457 2.5 8C2.5 6.89543 3.39543 6 4.5 6C5.60457 6 6.5 6.89543 6.5 8Z" fill="#424242"/>
<path d="M16.5 18V15C16.5 13.9459 16.2282 12.9552 15.7507 12.0943C15.9902 12.0327 16.2413 12 16.5 12C18.1569 12 19.5 13.3431 19.5 15V18H16.5Z" fill="#424242"/>
<path d="M5.24926 12.0943C4.77185 12.9552 4.5 13.9459 4.5 15V18H1.5V15C1.5 13.3431 2.84315 12 4.5 12C4.75871 12 5.00977 12.0327 5.24926 12.0943Z" fill="#424242"/>
</svg>
