<svg width="21" height="20" viewBox="0 0 21 20" fill="none" xmlns="http://www.w3.org/2000/svg">
<path d="M9.5 6C9.5 7.65685 8.15685 9 6.5 9C4.84315 9 3.5 7.65685 3.5 6C3.5 4.34315 4.84315 3 6.5 3C8.15685 3 9.5 4.34315 9.5 6Z" fill="#424242"/>
<path d="M17.5 6C17.5 7.65685 16.1569 9 14.5 9C12.8431 9 11.5 7.65685 11.5 6C11.5 4.34315 12.8431 3 14.5 3C16.1569 3 17.5 4.34315 17.5 6Z" fill="#424242"/>
<path d="M13.4291 17C13.4758 16.6734 13.5 16.3395 13.5 16C13.5 14.3648 12.9393 12.8606 11.9998 11.6691C12.7352 11.2435 13.5892 11 14.5 11C17.2614 11 19.5 13.2386 19.5 16V17H13.4291Z" fill="#424242"/>
<path d="M6.5 11C9.26142 11 11.5 13.2386 11.5 16V17H1.5V16C1.5 13.2386 3.73858 11 6.5 11Z" fill="#424242"/>
</svg>
