<svg width="21" height="20" viewBox="0 0 21 20" fill="none" xmlns="http://www.w3.org/2000/svg">
<path d="M8.5 9C10.1569 9 11.5 7.65685 11.5 6C11.5 4.34315 10.1569 3 8.5 3C6.84315 3 5.5 4.34315 5.5 6C5.5 7.65685 6.84315 9 8.5 9Z" fill="#424242"/>
<path d="M8.5 11C11.8137 11 14.5 13.6863 14.5 17H2.5C2.5 13.6863 5.18629 11 8.5 11Z" fill="#424242"/>
<path d="M16.5 7C16.5 6.44772 16.0523 6 15.5 6C14.9477 6 14.5 6.44772 14.5 7V8H13.5C12.9477 8 12.5 8.44771 12.5 9C12.5 9.55228 12.9477 10 13.5 10H14.5V11C14.5 11.5523 14.9477 12 15.5 12C16.0523 12 16.5 11.5523 16.5 11V10H17.5C18.0523 10 18.5 9.55228 18.5 9C18.5 8.44772 18.0523 8 17.5 8H16.5V7Z" fill="#424242"/>
</svg>
