<svg width="21" height="20" viewBox="0 0 21 20" fill="none" xmlns="http://www.w3.org/2000/svg">
<path d="M11.5 6C11.5 7.65685 10.1569 9 8.5 9C6.84315 9 5.5 7.65685 5.5 6C5.5 4.34315 6.84315 3 8.5 3C10.1569 3 11.5 4.34315 11.5 6Z" fill="#424242"/>
<path d="M14.5 17C14.5 13.6863 11.8137 11 8.5 11C5.18629 11 2.5 13.6863 2.5 17H14.5Z" fill="#424242"/>
<path d="M13.5 8C12.9477 8 12.5 8.44771 12.5 9C12.5 9.55229 12.9477 10 13.5 10H17.5C18.0523 10 18.5 9.55229 18.5 9C18.5 8.44771 18.0523 8 17.5 8H13.5Z" fill="#424242"/>
</svg>
