<svg width="21" height="20" viewBox="0 0 21 20" fill="none" xmlns="http://www.w3.org/2000/svg">
<path fill-rule="evenodd" clip-rule="evenodd" d="M18.5 10C18.5 14.4183 14.9183 18 10.5 18C6.08172 18 2.5 14.4183 2.5 10C2.5 5.58172 6.08172 2 10.5 2C14.9183 2 18.5 5.58172 18.5 10ZM12.5 7C12.5 8.10457 11.6046 9 10.5 9C9.39543 9 8.5 8.10457 8.5 7C8.5 5.89543 9.39543 5 10.5 5C11.6046 5 12.5 5.89543 12.5 7ZM10.4999 11C8.48239 11 6.74394 12.195 5.95374 13.9157C7.05403 15.192 8.68265 16 10.5 16C12.3173 16 13.9459 15.1921 15.0462 13.9158C14.256 12.195 12.5175 11 10.4999 11Z" fill="#424242"/>
</svg>
