<svg width="21" height="20" viewBox="0 0 21 20" fill="none" xmlns="http://www.w3.org/2000/svg">
<path d="M5.1485 3.08366C5.65459 3.30478 5.8856 3.89429 5.66448 4.40038C4.91582 6.11389 4.5 8.00707 4.5 10C4.5 11.9929 4.91582 13.8861 5.66448 15.5996C5.8856 16.1057 5.65459 16.6952 5.1485 16.9164C4.64242 17.1375 4.0529 16.9065 3.83178 16.4004C2.97486 14.4391 2.5 12.2737 2.5 10C2.5 7.72632 2.97486 5.56091 3.83178 3.59964C4.0529 3.09355 4.64242 2.86254 5.1485 3.08366Z" fill="#424242"/>
<path d="M13.4613 7C12.5499 7 11.688 7.41427 11.1186 8.12592L10.7911 8.53528L10.6799 8.25722C10.3762 7.4979 9.64078 7 8.82297 7H8.5C7.94772 7 7.5 7.44772 7.5 8C7.5 8.55228 7.94772 9 8.5 9H8.82297L9.3551 10.3303L8.31962 11.6247C8.12985 11.8619 7.84253 12 7.53875 12H7.5C6.94772 12 6.5 12.4477 6.5 13C6.5 13.5523 6.94772 14 7.5 14H7.53875C8.4501 14 9.31204 13.5857 9.88136 12.8741L10.2089 12.4647L10.3201 12.7428C10.6238 13.5021 11.3592 14 12.177 14H12.5C13.0523 14 13.5 13.5523 13.5 13C13.5 12.4477 13.0523 12 12.5 12H12.177L11.6449 10.6697L12.6804 9.37531C12.8702 9.13809 13.1575 9 13.4613 9H13.5C14.0523 9 14.5 8.55228 14.5 8C14.5 7.44772 14.0523 7 13.5 7H13.4613Z" fill="#424242"/>
<path d="M15.3355 4.40038C15.1144 3.89429 15.3454 3.30478 15.8515 3.08366C16.3576 2.86254 16.9471 3.09355 17.1682 3.59964C18.0251 5.56091 18.5 7.72632 18.5 10C18.5 12.2737 18.0251 14.4391 17.1682 16.4004C16.9471 16.9065 16.3576 17.1375 15.8515 16.9164C15.3454 16.6952 15.1144 16.1057 15.3355 15.5996C16.0842 13.8861 16.5 11.9929 16.5 10C16.5 8.00707 16.0842 6.11389 15.3355 4.40038Z" fill="#424242"/>
</svg>
