<svg width="21" height="20" viewBox="0 0 21 20" fill="none" xmlns="http://www.w3.org/2000/svg">
<path d="M2.5 6C2.5 4.89543 3.39543 4 4.5 4H10.5C11.6046 4 12.5 4.89543 12.5 6V14C12.5 15.1046 11.6046 16 10.5 16H4.5C3.39543 16 2.5 15.1046 2.5 14V6Z" fill="#424242"/>
<path d="M15.0528 7.10557C14.714 7.27497 14.5 7.62123 14.5 8V12C14.5 12.3788 14.714 12.725 15.0528 12.8944L17.0528 13.8944C17.3628 14.0494 17.7309 14.0329 18.0257 13.8507C18.3205 13.6684 18.5 13.3466 18.5 13V7C18.5 6.65342 18.3205 6.33156 18.0257 6.14935C17.7309 5.96714 17.3628 5.95058 17.0528 6.10557L15.0528 7.10557Z" fill="#424242"/>
</svg>
