<svg width="21" height="20" viewBox="0 0 21 20" fill="none" xmlns="http://www.w3.org/2000/svg">
<path fill-rule="evenodd" clip-rule="evenodd" d="M3.5 4C3.5 3.44772 3.94772 3 4.5 3H16.5C17.0523 3 17.5 3.44772 17.5 4C17.5 4.55228 17.0523 5 16.5 5H4.5C3.94772 5 3.5 4.55228 3.5 4ZM3.5 8C3.5 7.44772 3.94772 7 4.5 7H16.5C17.0523 7 17.5 7.44772 17.5 8C17.5 8.55228 17.0523 9 16.5 9H4.5C3.94772 9 3.5 8.55228 3.5 8ZM3.5 12C3.5 11.4477 3.94772 11 4.5 11H16.5C17.0523 11 17.5 11.4477 17.5 12C17.5 12.5523 17.0523 13 16.5 13H4.5C3.94772 13 3.5 12.5523 3.5 12ZM3.5 16C3.5 15.4477 3.94772 15 4.5 15H16.5C17.0523 15 17.5 15.4477 17.5 16C17.5 16.5523 17.0523 17 16.5 17H4.5C3.94772 17 3.5 16.5523 3.5 16Z" fill="#424242"/>
</svg>
