<svg width="21" height="20" viewBox="0 0 21 20" fill="none" xmlns="http://www.w3.org/2000/svg">
<path d="M2.5 4C2.5 3.44772 2.94772 3 3.5 3H5.5C6.05228 3 6.5 3.44772 6.5 4V16C6.5 16.5523 6.05228 17 5.5 17H3.5C2.94772 17 2.5 16.5523 2.5 16V4Z" fill="#424242"/>
<path d="M8.5 4C8.5 3.44772 8.94772 3 9.5 3H11.5C12.0523 3 12.5 3.44772 12.5 4V16C12.5 16.5523 12.0523 17 11.5 17H9.5C8.94772 17 8.5 16.5523 8.5 16V4Z" fill="#424242"/>
<path d="M15.5 3C14.9477 3 14.5 3.44772 14.5 4V16C14.5 16.5523 14.9477 17 15.5 17H17.5C18.0523 17 18.5 16.5523 18.5 16V4C18.5 3.44772 18.0523 3 17.5 3H15.5Z" fill="#424242"/>
</svg>
