<svg width="21" height="20" viewBox="0 0 21 20" fill="none" xmlns="http://www.w3.org/2000/svg">
<path d="M5.5 3C4.39543 3 3.5 3.89543 3.5 5V7C3.5 8.10457 4.39543 9 5.5 9H7.5C8.60457 9 9.5 8.10457 9.5 7V5C9.5 3.89543 8.60457 3 7.5 3H5.5Z" fill="#424242"/>
<path d="M5.5 11C4.39543 11 3.5 11.8954 3.5 13V15C3.5 16.1046 4.39543 17 5.5 17H7.5C8.60457 17 9.5 16.1046 9.5 15V13C9.5 11.8954 8.60457 11 7.5 11H5.5Z" fill="#424242"/>
<path d="M11.5 5C11.5 3.89543 12.3954 3 13.5 3H15.5C16.6046 3 17.5 3.89543 17.5 5V7C17.5 8.10457 16.6046 9 15.5 9H13.5C12.3954 9 11.5 8.10457 11.5 7V5Z" fill="#424242"/>
<path d="M11.5 13C11.5 11.8954 12.3954 11 13.5 11H15.5C16.6046 11 17.5 11.8954 17.5 13V15C17.5 16.1046 16.6046 17 15.5 17H13.5C12.3954 17 11.5 16.1046 11.5 15V13Z" fill="#424242"/>
</svg>
