<svg width="21" height="20" viewBox="0 0 21 20" fill="none" xmlns="http://www.w3.org/2000/svg">
<path d="M5.5 3C4.39543 3 3.5 3.89543 3.5 5V7C3.5 8.10457 4.39543 9 5.5 9H7.5C8.60457 9 9.5 8.10457 9.5 7V5C9.5 3.89543 8.60457 3 7.5 3H5.5Z" fill="#424242"/>
<path d="M5.5 11C4.39543 11 3.5 11.8954 3.5 13V15C3.5 16.1046 4.39543 17 5.5 17H7.5C8.60457 17 9.5 16.1046 9.5 15V13C9.5 11.8954 8.60457 11 7.5 11H5.5Z" fill="#424242"/>
<path d="M11.5 5C11.5 3.89543 12.3954 3 13.5 3H15.5C16.6046 3 17.5 3.89543 17.5 5V7C17.5 8.10457 16.6046 9 15.5 9H13.5C12.3954 9 11.5 8.10457 11.5 7V5Z" fill="#424242"/>
<path d="M14.5 11C15.0523 11 15.5 11.4477 15.5 12V13H16.5C17.0523 13 17.5 13.4477 17.5 14C17.5 14.5523 17.0523 15 16.5 15H15.5V16C15.5 16.5523 15.0523 17 14.5 17C13.9477 17 13.5 16.5523 13.5 16V15H12.5C11.9477 15 11.5 14.5523 11.5 14C11.5 13.4477 11.9477 13 12.5 13H13.5V12C13.5 11.4477 13.9477 11 14.5 11Z" fill="#424242"/>
</svg>
