<svg width="21" height="20" viewBox="0 0 21 20" fill="none" xmlns="http://www.w3.org/2000/svg">
<path fill-rule="evenodd" clip-rule="evenodd" d="M9.88268 3.07615C10.2564 3.23093 10.5 3.59557 10.5 4.00003V16C10.5 16.4045 10.2564 16.7691 9.88268 16.9239C9.50901 17.0787 9.07889 16.9931 8.79289 16.7071L5.08579 13H2.5C1.94772 13 1.5 12.5523 1.5 12V8.00003C1.5 7.44774 1.94772 7.00003 2.5 7.00003H5.08579L8.79289 3.29292C9.07889 3.00692 9.50901 2.92137 9.88268 3.07615Z" fill="#424242"/>
<path fill-rule="evenodd" clip-rule="evenodd" d="M12.7929 7.29289C13.1834 6.90237 13.8166 6.90237 14.2071 7.29289L15.5 8.58579L16.7929 7.29289C17.1834 6.90237 17.8166 6.90237 18.2071 7.29289C18.5976 7.68342 18.5976 8.31658 18.2071 8.70711L16.9142 10L18.2071 11.2929C18.5976 11.6834 18.5976 12.3166 18.2071 12.7071C17.8166 13.0976 17.1834 13.0976 16.7929 12.7071L15.5 11.4142L14.2071 12.7071C13.8166 13.0976 13.1834 13.0976 12.7929 12.7071C12.4024 12.3166 12.4024 11.6834 12.7929 11.2929L14.0858 10L12.7929 8.70711C12.4024 8.31658 12.4024 7.68342 12.7929 7.29289Z" fill="#424242"/>
</svg>
