<svg width="21" height="20" viewBox="0 0 21 20" fill="none" xmlns="http://www.w3.org/2000/svg">
<path fill-rule="evenodd" clip-rule="evenodd" d="M9.88268 3.07615C10.2564 3.23093 10.5 3.59557 10.5 4.00003V16C10.5 16.4045 10.2564 16.7691 9.88268 16.9239C9.50901 17.0787 9.07889 16.9931 8.79289 16.7071L5.08579 13H2.5C1.94772 13 1.5 12.5523 1.5 12V8.00003C1.5 7.44774 1.94772 7.00003 2.5 7.00003H5.08579L8.79289 3.29292C9.07889 3.00692 9.50901 2.92137 9.88268 3.07615Z" fill="#424242"/>
<path fill-rule="evenodd" clip-rule="evenodd" d="M15.1568 2.92888C15.5474 2.53836 16.1805 2.53836 16.5711 2.92888C18.3796 4.73743 19.5 7.2388 19.5 9.99995C19.5 12.7611 18.3796 15.2625 16.5711 17.071C16.1805 17.4615 15.5474 17.4615 15.1568 17.071C14.7663 16.6805 14.7663 16.0473 15.1568 15.6568C16.6057 14.208 17.5 12.2094 17.5 9.99995C17.5 7.79053 16.6057 5.7919 15.1568 4.34309C14.7663 3.95257 14.7663 3.3194 15.1568 2.92888ZM12.3284 5.75731C12.7189 5.36678 13.3521 5.36678 13.7426 5.75731C14.2685 6.28319 14.6976 6.90687 15.0003 7.59958C15.322 8.33592 15.5 9.14847 15.5 9.99995C15.5 11.6565 14.8273 13.1579 13.7426 14.2426C13.3521 14.6331 12.7189 14.6331 12.3284 14.2426C11.9379 13.8521 11.9379 13.2189 12.3284 12.8284C13.0534 12.1034 13.5 11.1048 13.5 9.99995C13.5 9.42922 13.3811 8.8889 13.1676 8.40032C12.9663 7.93958 12.6802 7.52327 12.3284 7.17152C11.9379 6.781 11.9379 6.14783 12.3284 5.75731Z" fill="#424242"/>
</svg>
