<svg width="21" height="20" viewBox="0 0 21 20" fill="none" xmlns="http://www.w3.org/2000/svg">
<path fill-rule="evenodd" clip-rule="evenodd" d="M18.2781 8.22183C13.9823 3.92606 7.01752 3.92606 2.72176 8.22183C2.33123 8.61235 1.69807 8.61235 1.30754 8.22183C0.917017 7.8313 0.917017 7.19814 1.30754 6.80761C6.38436 1.7308 14.6155 1.7308 19.6923 6.80761C20.0828 7.19814 20.0828 7.8313 19.6923 8.22183C19.3018 8.61235 18.6686 8.61235 18.2781 8.22183ZM15.4497 11.0503C12.716 8.31659 8.28385 8.31659 5.55018 11.0503C5.15966 11.4408 4.52649 11.4408 4.13597 11.0503C3.74544 10.6597 3.74544 10.0266 4.13597 9.63605C7.65069 6.12133 13.3492 6.12133 16.8639 9.63605C17.2544 10.0266 17.2544 10.6597 16.8639 11.0503C16.4734 11.4408 15.8402 11.4408 15.4497 11.0503ZM12.6213 13.8787C11.4497 12.7071 9.55018 12.7071 8.37861 13.8787C7.98809 14.2692 7.35492 14.2692 6.9644 13.8787C6.57387 13.4882 6.57387 12.855 6.9644 12.4645C8.91702 10.5119 12.0828 10.5119 14.0355 12.4645C14.426 12.855 14.426 13.4882 14.0355 13.8787C13.6449 14.2692 13.0118 14.2692 12.6213 13.8787ZM9.49993 16C9.49993 15.4477 9.94765 15 10.4999 15H10.5099C11.0622 15 11.5099 15.4477 11.5099 16C11.5099 16.5523 11.0622 17 10.5099 17H10.4999C9.94765 17 9.49993 16.5523 9.49993 16Z" fill="#424242"/>
</svg>
