<svg width="21" height="20" viewBox="0 0 21 20" fill="none" xmlns="http://www.w3.org/2000/svg">
<path fill-rule="evenodd" clip-rule="evenodd" d="M10.5 18C14.9183 18 18.5 14.4183 18.5 10C18.5 5.58172 14.9183 2 10.5 2C6.08172 2 2.5 5.58172 2.5 10C2.5 14.4183 6.08172 18 10.5 18ZM9.20711 7.29289C8.81658 6.90237 8.18342 6.90237 7.79289 7.29289C7.40237 7.68342 7.40237 8.31658 7.79289 8.70711L9.08579 10L7.79289 11.2929C7.40237 11.6834 7.40237 12.3166 7.79289 12.7071C8.18342 13.0976 8.81658 13.0976 9.20711 12.7071L10.5 11.4142L11.7929 12.7071C12.1834 13.0976 12.8166 13.0976 13.2071 12.7071C13.5976 12.3166 13.5976 11.6834 13.2071 11.2929L11.9142 10L13.2071 8.70711C13.5976 8.31658 13.5976 7.68342 13.2071 7.29289C12.8166 6.90237 12.1834 6.90237 11.7929 7.29289L10.5 8.58579L9.20711 7.29289Z" fill="#424242"/>
</svg>
